<svg width="17" height="15" viewBox="0 0 17 15" fill="none" xmlns="http://www.w3.org/2000/svg">
<path fill-rule="evenodd" clip-rule="evenodd" d="M10.0515 12.341C10.1513 12.2413 10.251 12.1415 10.3507 12.0418C11.4477 10.9448 12.2454 9.54871 12.4449 7.95313C12.5446 7.55424 12.5446 7.05562 12.5446 6.65673C12.5446 6.45728 12.5446 6.35756 12.5446 6.15811C12.4449 4.26336 11.5474 2.46833 10.251 1.17193C10.1513 1.0722 10.0515 0.972479 9.9518 0.872757C9.65263 0.573585 9.25374 0.274414 8.85484 0.074967C8.6554 -0.0247568 8.35623 -0.0247568 8.05705 0.0749671C7.65816 0.274414 7.35899 0.573585 6.96009 0.872757C6.86037 0.97248 6.76065 1.0722 6.66092 1.17193C5.56396 2.26889 4.8659 3.66502 4.56673 5.16087C4.8659 5.16087 4.96562 5.06115 5.06535 5.06115C6.76065 4.36308 9.55291 4.06391 10.8493 5.46004C10.1513 5.2606 9.35346 5.06115 8.55567 5.06115C7.75788 5.06115 6.9601 5.16087 6.26203 5.46004C5.66369 5.55977 5.16507 5.85894 4.56673 6.15811C4.06811 6.45728 3.56949 6.85618 3.07087 7.35479C2.07364 8.35203 1.27585 9.84789 0.976677 11.4435C0.876953 11.8424 0.876953 12.341 0.876953 12.7399L0.876953 12.8396C0.876953 13.039 0.976677 13.3382 1.27585 13.4379C1.67474 13.6374 2.07364 13.8368 2.57226 13.9366C3.27032 14.2357 4.06811 14.3354 4.8659 14.3354C5.86314 14.3354 6.86037 14.136 7.75788 13.7371C7.65816 13.6374 7.55844 13.5377 7.35899 13.5377C5.66369 12.2413 4.16783 10.3465 4.66645 7.95314C4.96562 9.54871 5.66369 10.9448 6.76065 12.0418C6.9601 12.1415 7.05982 12.2413 7.15954 12.341C7.55844 12.7399 8.05706 13.1388 8.55567 13.3382C9.65263 13.9366 10.949 14.3354 12.2454 14.3354C13.0432 14.3354 13.841 14.2357 14.5391 13.9366C15.0377 13.8368 15.4366 13.6374 15.8355 13.4379C16.0349 13.3382 16.2344 13.1388 16.2344 12.8396L16.2344 12.7399C16.2344 12.2413 16.2344 11.8424 16.1347 11.4435C15.8355 9.84788 15.0377 8.45175 13.9408 7.35479C13.7413 7.15535 13.5419 6.9559 13.2427 6.75645C13.3424 9.0501 12.3452 11.4435 10.0515 12.341ZM11.0488 7.05562C10.949 8.55148 10.251 9.94761 9.25374 10.9448C9.05429 11.1443 8.85484 11.3437 8.55567 11.5432C8.35623 11.3437 8.15678 11.1443 7.95733 10.9448C6.9601 9.94761 6.26203 8.55148 6.16231 7.05562C6.86037 6.75645 7.75788 6.557 8.55567 6.557C9.45319 6.557 10.251 6.75645 11.0488 7.05562Z" fill="#51912D"/>
</svg>
