<svg width="16" height="16" viewBox="0 0 16 16" fill="none" xmlns="http://www.w3.org/2000/svg">
<circle cx="8.00065" cy="7.9987" r="6.66667" fill="#FFCC80"/>
<path d="M7.10938 9.29877H8.36553V9.18608C8.37216 8.53977 8.60417 8.23816 9.12784 7.9233C9.74763 7.5554 10.152 7.06818 10.152 6.2893C10.152 5.12926 9.21733 4.45312 7.90152 4.45312C6.69839 4.45312 5.71733 5.08286 5.6875 6.40862H7.03977C7.05966 5.86837 7.4607 5.58002 7.89489 5.58002C8.34233 5.58002 8.7036 5.87831 8.7036 6.33902C8.7036 6.7732 8.38873 7.06155 7.98106 7.32008C7.42424 7.6714 7.11269 8.02604 7.10938 9.18608V9.29877ZM7.76231 11.42C8.18655 11.42 8.55445 11.0653 8.55777 10.6245C8.55445 10.1903 8.18655 9.8357 7.76231 9.8357C7.32481 9.8357 6.96354 10.1903 6.96686 10.6245C6.96354 11.0653 7.32481 11.42 7.76231 11.42Z" fill="#106D5A"/>
</svg>
