<svg width="25" height="26" viewBox="0 0 25 26" fill="none" xmlns="http://www.w3.org/2000/svg">
<path d="M9.3335 3.66667C9.3335 2.95942 9.61445 2.28115 10.1145 1.78105C10.6146 1.28095 11.2929 1 12.0002 1C12.7074 1 13.3857 1.28095 13.8858 1.78105C14.3859 2.28115 14.6668 2.95942 14.6668 3.66667C16.198 4.3907 17.5034 5.51777 18.4429 6.92707C19.3824 8.33636 19.9207 9.97476 20.0002 11.6667V15.6667C20.1005 16.4956 20.3941 17.2894 20.8572 17.9842C21.3204 18.6789 21.9402 19.2552 22.6668 19.6667H1.3335C2.06008 19.2552 2.67991 18.6789 3.14308 17.9842C3.60625 17.2894 3.89982 16.4956 4.00016 15.6667V11.6667C4.07958 9.97476 4.6179 8.33636 5.55743 6.92707C6.49696 5.51777 7.80228 4.3907 9.3335 3.66667" stroke="#587471" stroke-width="2" stroke-linecap="round" stroke-linejoin="round"/>
<path d="M8 19.667V21.0003C8 22.0612 8.42143 23.0786 9.17157 23.8288C9.92172 24.5789 10.9391 25.0003 12 25.0003C13.0609 25.0003 14.0783 24.5789 14.8284 23.8288C15.5786 23.0786 16 22.0612 16 21.0003V19.667" stroke="#587471" stroke-width="2" stroke-linecap="round" stroke-linejoin="round"/>
<ellipse cx="18.3998" cy="8.19961" rx="5.6" ry="5.6" fill="#FF9900" stroke="#F8F8FA" stroke-width="2"/>
</svg>
