<svg width="60" height="20" viewBox="0 0 60 20" fill="none" xmlns="http://www.w3.org/2000/svg">
<g clip-path="url(#clip0)">
<path d="M26.0288 18.0135H23.3975V5.36328H26.0288V18.0135Z" fill="#106D5A"/>
<path d="M33.9231 12.9691C33.9231 12.3644 33.7498 11.8711 33.3874 11.5052C33.0407 11.1392 32.5523 10.9642 31.9693 10.9642C31.4809 10.9642 30.9767 11.0119 30.504 11.1074C30.0155 11.2028 29.5744 11.346 29.1804 11.537V18.0133H26.6279V10.5186C26.9588 10.2163 27.337 9.94577 27.7624 9.70709C28.1878 9.45249 28.629 9.24563 29.0859 9.0706C29.5428 8.89556 30.0155 8.75236 30.5197 8.65688C31.0082 8.56141 31.4966 8.51367 31.9693 8.51367C32.6468 8.51367 33.2613 8.62506 33.8286 8.83192C34.3958 9.03877 34.8685 9.34111 35.2624 9.73891C35.6563 10.1367 35.9557 10.5982 36.1762 11.1551C36.3968 11.712 36.5071 12.3167 36.5071 12.985V18.0292H33.9389V12.9691H33.9231Z" fill="#106D5A"/>
<path d="M43.2977 5.06055C44.2903 5.06055 45.1569 5.23558 45.929 5.58565C46.7011 5.93572 47.3471 6.41308 47.8828 7.01775C48.4185 7.62241 48.8282 8.32255 49.096 9.11816C49.3796 9.91377 49.5214 10.773 49.5214 11.68C49.5214 12.6029 49.3796 13.4622 49.096 14.2578C48.8124 15.0693 48.4027 15.7695 47.8828 16.3741C47.3471 16.9788 46.7011 17.4562 45.929 17.8062C45.1569 18.1563 44.2746 18.3313 43.2977 18.3313C42.3208 18.3313 41.4542 18.1563 40.6822 17.8062C39.9258 17.4562 39.2798 16.9788 38.7441 16.3741C38.2242 15.7695 37.8145 15.0534 37.5309 14.2419C37.2473 13.4304 37.1055 12.5711 37.1055 11.6641C37.1055 10.7571 37.2473 9.89786 37.5309 9.10225C37.8145 8.30664 38.2084 7.6065 38.7441 7.00184C39.2641 6.39717 39.9101 5.91981 40.6822 5.56974C41.4542 5.23558 42.3208 5.06055 43.2977 5.06055ZM43.2977 16.0718C43.8334 16.0718 44.3219 15.9604 44.763 15.7536C45.2042 15.5308 45.5824 15.2444 45.9132 14.8466C46.2284 14.4647 46.4805 14.0032 46.6538 13.4622C46.8271 12.9212 46.9216 12.3324 46.9216 11.68C46.9216 11.0435 46.8271 10.4548 46.6538 9.92968C46.4805 9.38867 46.2284 8.94313 45.9132 8.54532C45.5981 8.16343 45.2042 7.8611 44.763 7.63833C44.3219 7.41555 43.8334 7.32008 43.2977 7.32008C42.7777 7.32008 42.2893 7.43147 41.8481 7.63833C41.4069 7.8611 41.0445 8.14752 40.7294 8.54532C40.4143 8.92721 40.1779 9.38867 40.0046 9.92968C39.8313 10.4707 39.7368 11.0435 39.7368 11.68C39.7368 12.3324 39.8313 12.9212 40.0046 13.4622C40.1779 14.0032 40.43 14.4647 40.7294 14.8466C41.0445 15.2285 41.4227 15.5308 41.8481 15.7536C42.2893 15.9604 42.7777 16.0718 43.2977 16.0718Z" fill="#106D5A"/>
<path d="M57.4308 12.9691C57.4308 12.3644 57.2575 11.8711 56.8951 11.5052C56.5484 11.1392 56.06 10.9642 55.477 10.9642C54.9886 10.9642 54.4844 11.0119 54.0117 11.1074C53.5232 11.2028 53.082 11.346 52.6881 11.537V18.0133H50.1514V10.5186C50.4822 10.2163 50.8604 9.94577 51.2858 9.70709C51.7112 9.45249 52.1524 9.24563 52.6094 9.0706C53.0663 8.89556 53.539 8.75236 54.0432 8.65688C54.5316 8.56141 55.0201 8.51367 55.4928 8.51367C56.1703 8.51367 56.7848 8.62506 57.352 8.83192C57.9192 9.03877 58.3919 9.34111 58.7858 9.73891C59.1797 10.1367 59.4791 10.5982 59.6997 11.1551C59.9203 11.712 60.0306 12.3167 60.0306 12.985V18.0292H57.4623V12.9691H57.4308Z" fill="#106D5A"/>
<path fill-rule="evenodd" clip-rule="evenodd" d="M12.2111 16.6601C12.3372 16.5328 12.479 16.4214 12.605 16.2782C14.0704 14.7984 15.0945 12.8889 15.4569 10.7407C15.5515 10.152 15.6145 9.54733 15.6145 8.94266C15.6145 8.71989 15.6145 8.51303 15.5987 8.30617C15.4412 5.69657 14.3225 3.34156 12.605 1.60713C12.479 1.47984 12.3529 1.35254 12.2111 1.22524C11.77 0.827435 11.2973 0.461454 10.7931 0.14321C10.4937 -0.0477366 10.0998 -0.0477366 9.78466 0.14321C9.28046 0.461454 8.80777 0.827435 8.3666 1.22524C8.24055 1.35254 8.09874 1.46392 7.97269 1.60713C6.53887 3.05514 5.51471 4.93279 5.13655 7.0332C5.29412 6.95364 5.46744 6.87407 5.625 6.79451C7.83088 5.79204 11.5651 5.48971 13.3771 7.3037C12.4002 6.98546 11.3603 6.82634 10.2731 6.82634C9.18592 6.82634 8.14601 7.00137 7.16912 7.3037C6.39706 7.5583 5.65651 7.89246 4.96324 8.30617C4.2542 8.7358 3.59244 9.26091 2.9937 9.86557C1.54412 11.3295 0.519958 13.2549 0.157563 15.403C0.0630252 15.9918 0 16.5964 0 17.2011C0 17.2329 0 17.2647 0 17.3125C0 17.6466 0.189076 17.949 0.488445 18.1081C1.03992 18.4104 1.6229 18.6491 2.22164 18.8401C3.19853 19.1583 4.23845 19.3174 5.32563 19.3174C6.68067 19.3174 7.97269 19.0469 9.17017 18.5695C9.01261 18.4582 8.85504 18.3627 8.69748 18.2513C6.33403 16.5646 4.41177 13.9232 5.10504 10.7567C5.48319 12.9048 6.50735 14.8143 7.95693 16.2941C8.08298 16.4214 8.20903 16.5487 8.35084 16.676C8.93382 17.2011 9.57983 17.6785 10.2731 18.0604C11.7384 18.8719 13.4401 19.3492 15.2363 19.3492C16.3235 19.3492 17.3634 19.1742 18.3403 18.8719C18.9391 18.6809 19.5221 18.4263 20.0735 18.1399C20.3729 17.9808 20.562 17.6785 20.562 17.3284C20.562 17.2966 20.562 17.2647 20.562 17.2329C20.562 16.6123 20.5147 16.0236 20.4044 15.4348C20.0263 13.2867 19.0021 11.3772 17.5525 9.89739C17.2689 9.61097 16.9538 9.32455 16.6387 9.06996C16.6071 12.1888 15.2679 15.403 12.2111 16.6601ZM13.5189 9.57915C13.3613 11.6159 12.479 13.4617 11.1397 14.8302C10.8718 15.1007 10.5882 15.3553 10.2889 15.5781C9.9895 15.3394 9.70588 15.1007 9.43803 14.8302C8.08298 13.4617 7.20063 11.6318 7.05882 9.57915C8.05147 9.14952 9.15441 8.91084 10.3046 8.91084C11.4391 8.89493 12.5263 9.13361 13.5189 9.57915Z" fill="#106D5A"/>
<path fill-rule="evenodd" clip-rule="evenodd" d="M12.2111 16.6599C12.3371 16.5326 12.479 16.4212 12.605 16.2939C14.0703 14.8141 15.0945 12.9046 15.4569 10.7565C15.4727 10.661 15.4884 10.5496 15.5042 10.4542C15.2048 9.16527 14.4327 8.05141 13.3771 7.30354C12.4002 6.98529 11.3603 6.82617 10.2888 6.82617C9.28042 6.82617 8.30353 6.96938 7.37391 7.2558C6.17643 8.06732 5.34135 9.26074 5.12076 10.7565C5.13652 10.7088 5.105 10.8042 5.12076 10.7565C5.49891 12.9046 6.52307 14.8141 7.97265 16.2939C8.06719 16.3894 8.17748 16.5008 8.28778 16.5963C8.91803 16.8668 9.61131 17.01 10.3361 17.01C10.9979 17.01 11.6281 16.8827 12.2111 16.6599ZM9.42223 14.8141C8.06719 13.4457 7.18484 11.6157 7.04303 9.56307C8.03568 9.13344 9.13862 8.89476 10.2888 8.89476C11.439 8.89476 12.542 9.13344 13.5346 9.56307C13.3771 11.5998 12.4947 13.4457 11.1554 14.8141C10.8876 15.0846 10.604 15.3392 10.3046 15.562C9.9737 15.3392 9.69009 15.0846 9.42223 14.8141Z" fill="#106D5A"/>
<g opacity="0.6">
<path opacity="0.6" fill-rule="evenodd" clip-rule="evenodd" d="M12.2111 16.6599C12.3371 16.5326 12.479 16.4212 12.605 16.2939C14.0703 14.8141 15.0945 12.9046 15.4569 10.7565C15.4727 10.661 15.4884 10.5496 15.5042 10.4542C15.2048 9.16527 14.4327 8.05141 13.3771 7.30354C12.4002 6.98529 11.3603 6.82617 10.2888 6.82617C9.28042 6.82617 8.30353 6.96938 7.37391 7.2558C6.17643 8.06732 5.34135 9.26074 5.12076 10.7565C5.13652 10.7088 5.105 10.8042 5.12076 10.7565C5.49891 12.9046 6.52307 14.8141 7.97265 16.2939C8.06719 16.3894 8.17748 16.5008 8.28778 16.5963C8.91803 16.8668 9.61131 17.01 10.3361 17.01C10.9979 17.01 11.6281 16.8827 12.2111 16.6599ZM9.42223 14.8141C8.06719 13.4457 7.18484 11.6157 7.04303 9.56307C8.03568 9.13344 9.13862 8.89476 10.2888 8.89476C11.439 8.89476 12.542 9.13344 13.5346 9.56307C13.3771 11.5998 12.4947 13.4457 11.1554 14.8141C10.8876 15.0846 10.604 15.3392 10.3046 15.562C9.9737 15.3392 9.69009 15.0846 9.42223 14.8141Z" fill="#106D5A"/>
</g>
</g>
<defs>
<clipPath id="clip0">
<rect width="60" height="20" fill="white"/>
</clipPath>
</defs>
</svg>
