<svg width="115" height="35" viewBox="0 0 115 35" fill="none" xmlns="http://www.w3.org/2000/svg">
<path d="M111.406 35H3.59375C1.61719 35 0 33.425 0 31.5V3.5C0 1.575 1.61719 0 3.59375 0H111.406C113.383 0 115 1.575 115 3.5V31.5C115 33.425 113.383 35 111.406 35Z" fill="black"/>
<path d="M24.2582 17.3251C24.2582 14.6126 26.5941 13.3001 26.684 13.2126C25.3363 11.3751 23.3598 11.1126 22.641 11.0251C20.934 10.8501 19.2269 11.9876 18.4184 11.9876C17.5199 11.9876 16.1723 11.0251 14.7348 11.0251C12.848 11.0251 11.141 12.0751 10.1527 13.7376C8.17617 17.0626 9.61367 21.9626 11.5004 24.6751C12.4887 25.9876 13.5668 27.4751 15.0043 27.3876C16.4418 27.3001 16.9809 26.5126 18.6879 26.5126C20.3949 26.5126 20.8441 27.3876 22.3715 27.3876C23.8988 27.3876 24.8871 26.0751 25.7855 24.7626C26.8637 23.2751 27.3129 21.7876 27.3129 21.7001C27.223 21.6126 24.2582 20.5626 24.2582 17.3251Z" fill="white"/>
<path d="M21.4724 9.27539C22.1912 8.31289 22.7302 7.08789 22.6404 5.77539C21.5623 5.86289 20.1248 6.47539 19.406 7.43789C18.6873 8.22539 18.0584 9.53789 18.238 10.7629C19.406 10.8504 20.6638 10.1504 21.4724 9.27539Z" fill="white"/>
<path d="M44.7422 27.2123H42.7656L41.6875 23.8873H37.9141L36.9258 27.2123H35.0391L38.8125 15.9248H41.1484L44.7422 27.2123ZM41.3281 22.4873L40.3398 19.5123C40.25 19.2498 40.0703 18.4623 39.7109 17.4123C39.6211 17.8498 39.4414 18.6373 39.1719 19.5123L38.1836 22.4873H41.3281Z" fill="white"/>
<path d="M54.3555 23.0998C54.3555 24.4998 53.9961 25.5498 53.1875 26.4248C52.4688 27.1248 51.6602 27.4748 50.582 27.4748C49.5039 27.4748 48.6953 27.1248 48.2461 26.3373V30.6248H46.3594V21.8748C46.3594 20.9998 46.3594 20.1248 46.2695 19.1623H47.8867L47.9766 20.4748C48.6055 19.5123 49.5039 18.9873 50.7617 18.9873C51.75 18.9873 52.5586 19.3373 53.1875 20.1248C53.9961 20.8248 54.3555 21.7873 54.3555 23.0998ZM52.4688 23.0998C52.4688 22.3123 52.2891 21.6123 51.9297 21.1748C51.5703 20.6498 51.0313 20.3873 50.3125 20.3873C49.8633 20.3873 49.4141 20.5623 49.0547 20.8248C48.6953 21.0873 48.4258 21.5248 48.3359 21.9623C48.2461 22.2248 48.2461 22.3998 48.2461 22.4873V23.8873C48.2461 24.4998 48.4258 24.9373 48.7852 25.3748C49.1445 25.8123 49.6836 25.9873 50.2227 25.9873C50.9414 25.9873 51.4805 25.7248 51.8399 25.1998C52.2891 24.6748 52.4688 23.9748 52.4688 23.0998Z" fill="white"/>
<path d="M63.9687 23.0998C63.9687 24.4998 63.6094 25.5498 62.8008 26.4248C62.082 27.1248 61.2734 27.4748 60.1953 27.4748C59.1172 27.4748 58.3086 27.1248 57.8594 26.3373V30.6248H55.9727V21.8748C55.9727 20.9998 55.9727 20.1248 55.8828 19.1623H57.5L57.5898 20.4748C58.2188 19.5123 59.1172 18.9873 60.375 18.9873C61.3633 18.9873 62.1719 19.3373 62.8008 20.1248C63.6094 20.8248 63.9687 21.7873 63.9687 23.0998ZM62.082 23.0998C62.082 22.3123 61.9023 21.6123 61.543 21.1748C61.1836 20.6498 60.6445 20.3873 59.9258 20.3873C59.4766 20.3873 59.0273 20.5623 58.668 20.8248C58.3086 21.0873 58.0391 21.5248 57.9492 21.9623C57.8594 22.2248 57.8594 22.3998 57.8594 22.4873V23.8873C57.8594 24.4998 58.0391 24.9373 58.3984 25.3748C58.7578 25.8123 59.2969 25.9873 59.8359 25.9873C60.5547 25.9873 61.0937 25.7248 61.4531 25.1998C61.9023 24.6748 62.082 23.9748 62.082 23.0998Z" fill="white"/>
<path d="M74.75 24.0629C74.75 25.0254 74.3906 25.8129 73.7617 26.4254C73.043 27.1254 71.9648 27.3879 70.6172 27.3879C69.3594 27.3879 68.3711 27.1254 67.6523 26.6879L68.1016 25.2004C68.9102 25.6379 69.8086 25.9004 70.7969 25.9004C71.5156 25.9004 72.0547 25.7254 72.4141 25.4629C72.7734 25.1129 72.9531 24.7629 72.9531 24.2379C72.9531 23.8004 72.7734 23.3629 72.5039 23.1004C72.1445 22.7504 71.6055 22.4879 70.8867 22.2254C68.8203 21.5254 67.832 20.3879 67.832 18.9879C67.832 18.0254 68.1914 17.3254 68.9102 16.7129C69.6289 16.1004 70.5273 15.8379 71.7852 15.8379C72.8633 15.8379 73.6719 16.0129 74.3906 16.3629L73.9414 17.8504C73.3125 17.5004 72.5937 17.3254 71.6953 17.3254C71.0664 17.3254 70.5273 17.5004 70.168 17.7629C69.8984 18.0254 69.7188 18.3754 69.7188 18.8129C69.7188 19.2504 69.8984 19.6004 70.2578 19.9504C70.5273 20.2129 71.1563 20.4754 71.9648 20.8254C72.9531 21.1754 73.6719 21.7004 74.2109 22.2254C74.4805 22.6629 74.75 23.2754 74.75 24.0629Z" fill="white"/>
<path d="M80.8594 20.475H78.793V24.4125C78.793 25.375 79.1523 25.9 79.8711 25.9C80.2305 25.9 80.5 25.9 80.6797 25.8125L80.7695 27.2125C80.4102 27.3875 79.9609 27.3875 79.332 27.3875C78.6133 27.3875 77.9844 27.2125 77.625 26.775C77.1758 26.3375 76.9961 25.6375 76.9961 24.5875V20.475H75.7383V19.075H76.9961V17.5875L78.793 17.0625V19.075H80.8594V20.475Z" fill="white"/>
<path d="M90.1133 23.1004C90.1133 24.3254 89.7539 25.3754 89.0352 26.1629C88.2266 26.9504 87.2383 27.3879 85.9805 27.3879C84.7227 27.3879 83.7344 26.9504 83.0156 26.1629C82.2969 25.3754 81.9375 24.4129 81.9375 23.1879C81.9375 21.9629 82.2969 20.9129 83.1055 20.1254C83.8242 19.3379 84.9024 18.9004 86.1602 18.9004C87.418 18.9004 88.4063 19.3379 89.125 20.1254C89.7539 20.9129 90.1133 21.8754 90.1133 23.1004ZM88.1367 23.1879C88.1367 22.4004 87.957 21.7879 87.5977 21.2629C87.2383 20.6504 86.6094 20.3004 85.8906 20.3004C85.1719 20.3004 84.543 20.6504 84.1836 21.2629C83.8242 21.7879 83.6445 22.4879 83.6445 23.1879C83.6445 23.9754 83.8242 24.5879 84.1836 25.1129C84.543 25.7254 85.1719 26.0754 85.8906 26.0754C86.6094 26.0754 87.1484 25.7254 87.5977 25.1129C87.957 24.5879 88.1367 23.8879 88.1367 23.1879Z" fill="white"/>
<path d="M96.1328 20.65C95.9531 20.65 95.7734 20.5625 95.5039 20.5625C94.875 20.5625 94.3359 20.825 93.9766 21.2625C93.707 21.7 93.5273 22.225 93.5273 22.8375V27.125H91.6406V21.525C91.6406 20.5625 91.6406 19.775 91.5508 18.9875H93.168L93.2578 20.5625H93.3477C93.5273 20.0375 93.8867 19.6 94.2461 19.25C94.6953 18.9875 95.1445 18.8125 95.5938 18.8125C95.7734 18.8125 95.9531 18.8125 96.043 18.8125V20.65H96.1328Z" fill="white"/>
<path d="M104.398 22.7504C104.398 23.1004 104.398 23.3629 104.309 23.5379H98.7383C98.7383 24.3254 99.0078 24.9379 99.5469 25.3754C99.9961 25.7254 100.625 25.9879 101.344 25.9879C102.152 25.9879 102.961 25.9004 103.59 25.6379L103.859 26.8629C103.051 27.2129 102.152 27.3879 101.074 27.3879C99.8164 27.3879 98.7383 27.0379 98.0195 26.2504C97.3008 25.5504 96.9414 24.5004 96.9414 23.2754C96.9414 22.0504 97.3008 21.0004 97.9297 20.2129C98.6484 19.3379 99.6367 18.9004 100.895 18.9004C102.062 18.9004 103.051 19.3379 103.59 20.2129C104.219 20.9129 104.398 21.7879 104.398 22.7504ZM102.691 22.3129C102.691 21.7879 102.602 21.3504 102.332 20.9129C101.973 20.3879 101.523 20.1254 100.895 20.1254C100.266 20.1254 99.8164 20.3879 99.457 20.8254C99.1875 21.1754 99.0078 21.7004 98.918 22.2254H102.691V22.3129Z" fill="white"/>
<path d="M40.7891 9.0127C40.7891 9.9752 40.5195 10.7627 39.8906 11.2877C39.3516 11.7252 38.543 11.9877 37.4648 11.9877C36.9258 11.9877 36.4766 11.9877 36.1172 11.9002V6.4752C36.5664 6.3877 37.1055 6.3877 37.7344 6.3877C38.7226 6.3877 39.4414 6.5627 39.9805 7.0002C40.4297 7.4377 40.7891 8.1377 40.7891 9.0127ZM39.8008 9.0127C39.8008 8.4002 39.6211 7.8752 39.2617 7.5252C38.9023 7.1752 38.3633 7.0002 37.7344 7.0002C37.4648 7.0002 37.1953 7.0002 37.0156 7.0877V11.2002C37.1055 11.2002 37.375 11.2002 37.6445 11.2002C38.3633 11.2002 38.9023 11.0252 39.2617 10.6752C39.6211 10.3252 39.8008 9.7127 39.8008 9.0127Z" fill="white"/>
<path d="M45.8203 9.88711C45.8203 10.4996 45.6406 11.0246 45.2813 11.3746C44.9219 11.8121 44.3828 11.9871 43.7539 11.9871C43.125 11.9871 42.6758 11.8121 42.3164 11.3746C41.957 11.0246 41.7773 10.4996 41.7773 9.88711C41.7773 9.27461 41.957 8.74961 42.3164 8.39961C42.6758 7.96211 43.2148 7.78711 43.8438 7.78711C44.4727 7.78711 44.9219 7.96211 45.2813 8.39961C45.6406 8.74961 45.8203 9.27461 45.8203 9.88711ZM44.9219 9.88711C44.9219 9.53711 44.832 9.18711 44.6524 8.92461C44.4727 8.57461 44.2031 8.48711 43.8438 8.48711C43.4844 8.48711 43.2148 8.66211 43.0352 8.92461C42.8555 9.18711 42.7656 9.53711 42.7656 9.88711C42.7656 10.2371 42.8555 10.5871 43.0352 10.8496C43.2148 11.1996 43.4844 11.2871 43.8438 11.2871C44.2031 11.2871 44.4727 11.1121 44.6524 10.7621C44.832 10.5871 44.9219 10.2371 44.9219 9.88711Z" fill="white"/>
<path d="M52.7383 7.875L51.4805 11.9H50.6719L50.1328 10.15C49.9531 9.7125 49.8633 9.275 49.7734 8.8375C49.6836 9.275 49.5937 9.7125 49.4141 10.15L48.875 11.9H48.0664L46.7188 7.875H47.6172L48.0664 9.8C48.1562 10.2375 48.2461 10.675 48.3359 11.1125C48.4258 10.7625 48.5156 10.325 48.6953 9.8L49.2344 7.875H49.9531L50.4922 9.7125C50.6719 10.15 50.7617 10.5875 50.8516 11.025C50.9414 10.5875 51.0313 10.15 51.1211 9.7125L51.6602 7.875H52.7383Z" fill="white"/>
<path d="M57.4102 11.9002H56.5117V9.6252C56.5117 8.9252 56.2422 8.5752 55.7031 8.5752C55.4336 8.5752 55.2539 8.6627 55.0742 8.8377C54.8945 9.0127 54.8047 9.2752 54.8047 9.5377V11.9002H53.9062V9.0127C53.9062 8.6627 53.9062 8.3127 53.9062 7.8752H54.7148V8.4877C54.8047 8.3127 54.9844 8.1377 55.1641 7.9627C55.4336 7.7877 55.7031 7.7002 55.9727 7.7002C56.332 7.7002 56.6914 7.7877 56.9609 8.0502C57.3203 8.3127 57.4102 8.7502 57.4102 9.3627V11.9002Z" fill="white"/>
<path d="M59.9258 11.8996H59.0273V6.03711H59.9258V11.8996Z" fill="white"/>
<path d="M65.3164 9.88711C65.3164 10.4996 65.1367 11.0246 64.7773 11.3746C64.418 11.8121 63.8789 11.9871 63.25 11.9871C62.6211 11.9871 62.1719 11.8121 61.8125 11.3746C61.4531 11.0246 61.2734 10.4996 61.2734 9.88711C61.2734 9.27461 61.4531 8.74961 61.8125 8.39961C62.1719 8.04961 62.7109 7.78711 63.3398 7.78711C63.9687 7.78711 64.418 7.96211 64.7773 8.39961C65.1367 8.74961 65.3164 9.27461 65.3164 9.88711ZM64.418 9.88711C64.418 9.53711 64.3281 9.18711 64.1484 8.92461C63.9687 8.57461 63.6992 8.48711 63.3398 8.48711C62.9805 8.48711 62.7109 8.66211 62.5313 8.92461C62.3516 9.18711 62.2617 9.53711 62.2617 9.88711C62.2617 10.2371 62.3516 10.5871 62.5313 10.8496C62.7109 11.1996 62.9805 11.2871 63.3398 11.2871C63.6992 11.2871 63.9687 11.1121 64.1484 10.7621C64.3281 10.5871 64.418 10.2371 64.418 9.88711Z" fill="white"/>
<path d="M69.7188 11.8996H68.9102L68.8203 11.4621C68.5508 11.8121 68.1016 11.9871 67.6523 11.9871C67.293 11.9871 66.9336 11.8996 66.7539 11.6371C66.5742 11.3746 66.3945 11.1121 66.3945 10.8496C66.3945 10.3246 66.5742 9.97461 67.0234 9.71211C67.4727 9.44961 68.0117 9.36211 68.8203 9.36211V9.27461C68.8203 8.74961 68.5508 8.48711 68.0117 8.48711C67.5625 8.48711 67.293 8.57461 66.9336 8.74961L66.7539 8.13711C67.1133 7.87461 67.5625 7.78711 68.1914 7.78711C69.2695 7.78711 69.8086 8.31211 69.8086 9.44961V10.9371C69.7188 11.3746 69.7188 11.6371 69.7188 11.8996ZM68.8203 10.4996V9.88711C67.832 9.88711 67.293 10.1496 67.293 10.6746C67.293 10.8496 67.3828 11.0246 67.4727 11.1121C67.5625 11.1996 67.7422 11.2871 67.9219 11.2871C68.1016 11.2871 68.2813 11.1996 68.4609 11.1121C68.6406 11.0246 68.7305 10.8496 68.8203 10.6746C68.8203 10.6746 68.8203 10.5871 68.8203 10.4996Z" fill="white"/>
<path d="M74.9297 11.9H74.1211V11.2875C73.8516 11.8125 73.4023 11.9875 72.7734 11.9875C72.2344 11.9875 71.875 11.8125 71.5156 11.4625C71.1563 11.1125 71.0664 10.5875 71.0664 9.975C71.0664 9.3625 71.2461 8.8375 71.6055 8.4C71.9648 8.05 72.4141 7.875 72.8633 7.875C73.4024 7.875 73.7617 8.05 74.0313 8.4V6.125H74.9297V10.85C74.9297 11.2 74.9297 11.55 74.9297 11.9ZM74.0313 10.2375V9.5375C74.0313 9.45 74.0313 9.3625 74.0313 9.275C73.9414 9.1 73.8516 8.925 73.6719 8.75C73.4922 8.575 73.3125 8.575 73.043 8.575C72.6836 8.575 72.4141 8.75 72.2344 9.0125C72.0547 9.275 71.9648 9.625 71.9648 10.0625C71.9648 10.5 72.0547 10.7625 72.2344 11.025C72.4141 11.2875 72.6836 11.4625 73.043 11.4625C73.3125 11.4625 73.582 11.375 73.7617 11.1125C73.9414 10.7625 74.0313 10.5 74.0313 10.2375Z" fill="white"/>
<path d="M82.7461 9.88711C82.7461 10.4996 82.5664 11.0246 82.207 11.3746C81.8476 11.8121 81.3086 11.9871 80.6797 11.9871C80.0508 11.9871 79.6016 11.8121 79.2422 11.3746C78.8828 11.0246 78.7031 10.4996 78.7031 9.88711C78.7031 9.27461 78.8828 8.74961 79.2422 8.39961C79.6016 7.96211 80.1406 7.78711 80.7695 7.78711C81.3984 7.78711 81.8476 7.96211 82.207 8.39961C82.5664 8.74961 82.7461 9.27461 82.7461 9.88711ZM81.7578 9.88711C81.7578 9.53711 81.668 9.18711 81.4883 8.92461C81.3086 8.57461 81.0391 8.48711 80.6797 8.48711C80.3203 8.48711 80.0508 8.66211 79.8711 8.92461C79.6914 9.18711 79.6016 9.53711 79.6016 9.88711C79.6016 10.2371 79.6914 10.5871 79.8711 10.8496C80.0508 11.1996 80.3203 11.2871 80.6797 11.2871C81.0391 11.2871 81.3086 11.1121 81.4883 10.7621C81.668 10.5871 81.7578 10.2371 81.7578 9.88711Z" fill="white"/>
<path d="M87.6875 11.9002H86.7891V9.6252C86.7891 8.9252 86.5195 8.5752 85.9805 8.5752C85.7109 8.5752 85.5313 8.6627 85.3516 8.8377C85.1719 9.0127 85.082 9.2752 85.082 9.5377V11.9002H84.1836V9.0127C84.1836 8.6627 84.1836 8.3127 84.1836 7.8752H84.9922V8.4877C85.082 8.3127 85.2617 8.1377 85.4414 7.9627C85.7109 7.7877 85.9805 7.7002 86.25 7.7002C86.6094 7.7002 86.9688 7.7877 87.2383 8.0502C87.5977 8.3127 87.6875 8.7502 87.6875 9.3627V11.9002Z" fill="white"/>
<path d="M93.7969 8.57461H92.8086V10.4996C92.8086 11.0246 92.9883 11.1996 93.3477 11.1996C93.5274 11.1996 93.6172 11.1996 93.7969 11.1996V11.8996C93.6172 11.9871 93.3477 11.9871 93.0781 11.9871C92.7188 11.9871 92.4492 11.8996 92.2695 11.6371C92.0898 11.4621 92 11.0246 92 10.5871V8.57461H91.3711V7.87461H92V7.17461L92.8985 6.91211V7.87461H93.8867V8.57461H93.7969Z" fill="white"/>
<path d="M98.6484 11.8996H97.75V9.62461C97.75 8.92461 97.4805 8.57461 96.9414 8.57461C96.4922 8.57461 96.2227 8.74961 96.043 9.18711C96.043 9.27461 96.043 9.36211 96.043 9.53711V11.8996H95.1445V6.03711H96.043V8.48711C96.3125 8.04961 96.7617 7.78711 97.3008 7.78711C97.6601 7.78711 98.0195 7.87461 98.1992 8.13711C98.4687 8.39961 98.6484 8.92461 98.6484 9.44961V11.8996Z" fill="white"/>
<path d="M103.59 9.7125C103.59 9.8875 103.59 9.975 103.59 10.15H100.895C100.895 10.5875 101.074 10.85 101.254 11.025C101.523 11.2 101.793 11.2875 102.152 11.2875C102.602 11.2875 102.961 11.2 103.23 11.1125L103.41 11.725C103.051 11.9 102.602 11.9875 102.063 11.9875C101.434 11.9875 100.895 11.8125 100.535 11.4625C100.176 11.1125 99.9961 10.5875 99.9961 9.975C99.9961 9.3625 100.176 8.8375 100.535 8.4875C100.895 8.05 101.344 7.875 101.973 7.875C102.602 7.875 103.051 8.05 103.32 8.4875C103.5 8.75 103.59 9.1875 103.59 9.7125ZM102.781 9.45C102.781 9.1875 102.691 8.925 102.602 8.75C102.422 8.4875 102.242 8.4 101.883 8.4C101.613 8.4 101.344 8.4875 101.164 8.75C100.984 8.925 100.895 9.1875 100.895 9.45H102.781Z" fill="white"/>
</svg>
