<svg width="115" height="35" viewBox="0 0 115 35" fill="none" xmlns="http://www.w3.org/2000/svg">
<g clip-path="url(#clip0)">
<path d="M110.741 34.9946H4.25926C1.87407 34.9946 0 33.0703 0 30.6211V4.3803C0 1.93116 1.87407 0.00683594 4.25926 0.00683594H110.741C113.126 0.00683594 115 1.93116 115 4.3803V30.6211C115 33.0703 113.126 34.9946 110.741 34.9946Z" fill="black"/>
<path d="M40.3777 8.92751C40.3777 9.62726 40.2073 10.2395 39.7814 10.6769C39.2703 11.2017 38.674 11.4641 37.9073 11.4641C37.1407 11.4641 36.5444 11.2017 36.0333 10.6769C35.5222 10.1521 35.2666 9.53979 35.2666 8.75257C35.2666 7.96534 35.5222 7.35306 36.0333 6.82824C36.5444 6.30342 37.1407 6.04102 37.9073 6.04102C38.2481 6.04102 38.5888 6.12848 38.9296 6.30342C39.2703 6.47836 39.5259 6.6533 39.6962 6.91571L39.2703 7.35306C38.9296 6.91571 38.5036 6.74077 37.9073 6.74077C37.3962 6.74077 36.8851 6.91571 36.5444 7.35306C36.1185 7.70293 35.9481 8.22775 35.9481 8.84004C35.9481 9.45232 36.1185 9.97714 36.5444 10.327C36.9703 10.6769 37.3962 10.9393 37.9073 10.9393C38.5036 10.9393 38.9296 10.7644 39.3555 10.327C39.611 10.0646 39.7814 9.71473 39.7814 9.27738H37.9073V8.57763H40.3777V8.92751ZM44.2962 6.74077H41.9962V8.40269H44.1259V9.01498H41.9962V10.6769H44.2962V11.3766H41.3147V6.12848H44.2962V6.74077ZM47.1073 11.3766H46.4259V6.74077H44.9777V6.12848H48.5555V6.74077H47.1073V11.3766ZM51.0259 11.3766V6.12848H51.7073V11.3766H51.0259ZM54.6036 11.3766H53.9222V6.74077H52.474V6.12848H55.9666V6.74077H54.5185V11.3766H54.6036ZM62.6962 10.6769C62.1851 11.2017 61.5888 11.4641 60.8222 11.4641C60.0555 11.4641 59.4592 11.2017 58.9481 10.6769C58.437 10.1521 58.1814 9.53979 58.1814 8.75257C58.1814 7.96534 58.437 7.35306 58.9481 6.82824C59.4592 6.30342 60.0555 6.04102 60.8222 6.04102C61.5888 6.04102 62.1851 6.30342 62.6962 6.82824C63.2073 7.35306 63.4629 7.96534 63.4629 8.75257C63.4629 9.53979 63.2073 10.1521 62.6962 10.6769ZM59.4592 10.2395C59.7999 10.5894 60.3111 10.8518 60.8222 10.8518C61.3333 10.8518 61.8444 10.6769 62.1851 10.2395C62.5259 9.88967 62.7814 9.36485 62.7814 8.75257C62.7814 8.14028 62.611 7.61546 62.1851 7.26559C61.8444 6.91571 61.3333 6.6533 60.8222 6.6533C60.3111 6.6533 59.7999 6.82824 59.4592 7.26559C59.1185 7.61546 58.8629 8.14028 58.8629 8.75257C58.8629 9.36485 59.0333 9.88967 59.4592 10.2395ZM64.3999 11.3766V6.12848H65.1666L67.637 10.2395V6.12848H68.3185V11.3766H67.637L64.9962 7.09065V11.3766H64.3999Z" fill="white"/>
<path d="M58.0107 19.0739C55.9663 19.0739 54.3478 20.6484 54.3478 22.8351C54.3478 24.9344 55.9663 26.5963 58.0107 26.5963C60.0552 26.5963 61.6737 25.0219 61.6737 22.8351C61.6737 20.5609 60.0552 19.0739 58.0107 19.0739ZM58.0107 25.0219C56.9033 25.0219 55.9663 24.0597 55.9663 22.7477C55.9663 21.4356 56.9033 20.4735 58.0107 20.4735C59.1181 20.4735 60.0552 21.3482 60.0552 22.7477C60.0552 24.0597 59.1181 25.0219 58.0107 25.0219ZM50.0885 19.0739C48.0441 19.0739 46.4256 20.6484 46.4256 22.8351C46.4256 24.9344 48.0441 26.5963 50.0885 26.5963C52.133 26.5963 53.7515 25.0219 53.7515 22.8351C53.7515 20.5609 52.133 19.0739 50.0885 19.0739ZM50.0885 25.0219C48.9811 25.0219 48.0441 24.0597 48.0441 22.7477C48.0441 21.4356 48.9811 20.4735 50.0885 20.4735C51.1959 20.4735 52.133 21.3482 52.133 22.7477C52.133 24.0597 51.1959 25.0219 50.0885 25.0219ZM40.633 20.2111V21.7855H44.2959C44.2107 22.6602 43.87 23.3599 43.4441 23.7973C42.933 24.3221 42.0811 24.9344 40.633 24.9344C38.333 24.9344 36.6293 23.0975 36.6293 20.7359C36.6293 18.3742 38.4182 16.5373 40.633 16.5373C41.8256 16.5373 42.7626 17.0622 43.4441 17.6744L44.5515 16.5373C43.6144 15.6626 42.4219 14.9629 40.7181 14.9629C37.6515 14.9629 35.0107 17.587 35.0107 20.7359C35.0107 23.8848 37.6515 26.5088 40.7181 26.5088C42.4219 26.5088 43.6144 25.984 44.6367 24.8469C45.6589 23.7973 45.9996 22.3103 45.9996 21.1732C45.9996 20.8233 45.9996 20.4735 45.9144 20.2111H40.633ZM79.307 21.4356C78.9663 20.5609 78.1144 19.0739 76.2404 19.0739C74.3663 19.0739 72.833 20.5609 72.833 22.8351C72.833 24.9344 74.3663 26.5963 76.4107 26.5963C78.0293 26.5963 79.0515 25.5467 79.3922 24.9344L78.1996 24.0597C77.7737 24.672 77.2626 25.1093 76.4107 25.1093C75.5589 25.1093 75.0478 24.7595 74.6218 23.9722L79.4774 21.873L79.307 21.4356ZM74.3663 22.6602C74.3663 21.2607 75.4737 20.4735 76.2404 20.4735C76.8367 20.4735 77.433 20.8233 77.6033 21.2607L74.3663 22.6602ZM70.3626 26.2464H71.9811V15.3128H70.3626V26.2464ZM67.807 19.8612C67.3811 19.4238 66.6996 18.9865 65.8478 18.9865C64.0589 18.9865 62.3552 20.6484 62.3552 22.7477C62.3552 24.8469 63.9737 26.4214 65.8478 26.4214C66.6996 26.4214 67.3811 25.984 67.7219 25.5467H67.807V26.0715C67.807 27.471 67.0404 28.2582 65.8478 28.2582C64.9107 28.2582 64.2293 27.5585 64.0589 26.9462L62.6959 27.5585C63.1219 28.5206 64.1441 29.7452 65.933 29.7452C67.807 29.7452 69.3404 28.6081 69.3404 25.8966V19.2489H67.807V19.8612ZM65.933 25.0219C64.8256 25.0219 63.8885 24.0597 63.8885 22.7477C63.8885 21.4356 64.8256 20.4735 65.933 20.4735C67.0404 20.4735 67.8922 21.4356 67.8922 22.7477C67.8922 24.0597 67.0404 25.0219 65.933 25.0219ZM86.7181 15.3128H82.8848V26.2464H84.5033V22.1354H86.7181C88.507 22.1354 90.2107 20.8233 90.2107 18.7241C90.2107 16.6248 88.507 15.3128 86.7181 15.3128ZM86.8033 20.5609H84.5033V16.7997H86.8033C87.9959 16.7997 88.6774 17.8494 88.6774 18.6366C88.5922 19.5988 87.9107 20.5609 86.8033 20.5609ZM96.5996 18.9865C95.407 18.9865 94.2144 19.5113 93.7885 20.6484L95.2367 21.2607C95.5774 20.6484 96.0885 20.4735 96.6848 20.4735C97.5367 20.4735 98.3033 20.9983 98.3885 21.873V21.9604C98.133 21.7855 97.4515 21.5231 96.77 21.5231C95.2367 21.5231 93.7033 22.3978 93.7033 23.9722C93.7033 25.4592 94.9811 26.4214 96.3441 26.4214C97.4515 26.4214 97.9626 25.8966 98.3885 25.3717H98.4737V26.2464H100.007V22.0479C99.8367 20.1236 98.3885 18.9865 96.5996 18.9865ZM96.4293 25.0219C95.9181 25.0219 95.1515 24.7595 95.1515 24.0597C95.1515 23.185 96.0885 22.9226 96.8552 22.9226C97.5367 22.9226 97.8774 23.0975 98.3033 23.2725C98.133 24.3221 97.2811 25.0219 96.4293 25.0219ZM105.374 19.2489L103.585 23.9722H103.5L101.626 19.2489H99.9219L102.733 25.8966L101.114 29.5703H102.733L107.077 19.2489H105.374ZM91.0626 26.2464H92.6811V15.3128H91.0626V26.2464Z" fill="white"/>
<path d="M8.8593 6.56641C8.60374 6.82881 8.51855 7.26616 8.51855 7.79098V27.1217C8.51855 27.6465 8.68893 28.0839 8.94448 28.3463L9.02967 28.4338L19.5926 17.5875V17.4126L8.8593 6.56641Z" fill="url(#paint0_linear)"/>
<path d="M23.0004 21.2611L19.5078 17.6748V17.4124L23.0004 13.8262L23.0856 13.9136L27.2597 16.3628C28.4522 17.0625 28.4522 18.1996 27.2597 18.8994L23.0004 21.2611Z" fill="url(#paint1_linear)"/>
<path d="M23.0853 21.1737L19.5075 17.5L8.85938 28.4337C9.2853 28.871 9.8816 28.871 10.6483 28.5211L23.0853 21.1737Z" fill="url(#paint2_linear)"/>
<path d="M23.0853 13.8258L10.6483 6.56585C9.8816 6.12851 9.2853 6.21598 8.85938 6.65332L19.5075 17.4995L23.0853 13.8258Z" fill="url(#paint3_linear)"/>
<path opacity="0.2" d="M23.0001 21.0859L10.6483 28.2584C9.96678 28.6958 9.37049 28.6083 8.94456 28.2584L8.85938 28.3459L8.94456 28.4334C9.37049 28.7832 9.96678 28.8707 10.6483 28.4334L23.0001 21.0859Z" fill="black"/>
<path opacity="0.12" d="M8.8593 28.2587C8.60374 27.9963 8.51855 27.559 8.51855 27.0342V27.1216C8.51855 27.6465 8.68893 28.0838 8.94448 28.3462V28.2587H8.8593ZM27.2593 18.6371L23 21.0862L23.0852 21.1737L27.2593 18.7246C27.8556 18.3747 28.1112 17.9373 28.1112 17.5C28.1112 17.9373 27.7704 18.2872 27.2593 18.6371Z" fill="black"/>
<path opacity="0.25" d="M10.6482 6.65388L27.2593 16.363C27.7704 16.7129 28.1112 17.0627 28.1112 17.5001C28.1112 17.0627 27.8556 16.6254 27.2593 16.2755L10.6482 6.56641C9.45559 5.86666 8.51855 6.39147 8.51855 7.79098V7.87845C8.51855 6.56641 9.45559 5.95413 10.6482 6.65388Z" fill="white"/>
</g>
<defs>
<linearGradient id="paint0_linear" x1="18.5704" y1="7.62479" x2="3.89558" y2="21.9155" gradientUnits="userSpaceOnUse">
<stop stop-color="#00A0FF"/>
<stop offset="0.007" stop-color="#00A1FF"/>
<stop offset="0.26" stop-color="#00BEFF"/>
<stop offset="0.512" stop-color="#00D2FF"/>
<stop offset="0.76" stop-color="#00DFFF"/>
<stop offset="1" stop-color="#00E3FF"/>
</linearGradient>
<linearGradient id="paint1_linear" x1="28.8219" y1="17.5008" x2="8.20972" y2="17.5008" gradientUnits="userSpaceOnUse">
<stop stop-color="#FFE000"/>
<stop offset="0.409" stop-color="#FFBD00"/>
<stop offset="0.775" stop-color="#FFA500"/>
<stop offset="1" stop-color="#FF9C00"/>
</linearGradient>
<linearGradient id="paint2_linear" x1="21.149" y1="19.5083" x2="1.24972" y2="38.888" gradientUnits="userSpaceOnUse">
<stop stop-color="#FF3A44"/>
<stop offset="1" stop-color="#C31162"/>
</linearGradient>
<linearGradient id="paint3_linear" x1="6.21608" y1="0.159596" x2="15.1025" y2="8.81394" gradientUnits="userSpaceOnUse">
<stop stop-color="#32A071"/>
<stop offset="0.069" stop-color="#2DA771"/>
<stop offset="0.476" stop-color="#15CF74"/>
<stop offset="0.801" stop-color="#06E775"/>
<stop offset="1" stop-color="#00F076"/>
</linearGradient>
<clipPath id="clip0">
<rect width="115" height="35" fill="white"/>
</clipPath>
</defs>
</svg>
