<svg width="14" height="14" viewBox="0 0 14 14" fill="none" xmlns="http://www.w3.org/2000/svg">
<path d="M9.1611 8.32831L10.3406 9.42395L9.74626 9.9441C9.00183 10.5954 8.05084 10.9543 7.06866 10.9543C4.86182 10.9543 3.06641 9.19588 3.06641 7.03464C3.06641 4.87835 4.86182 3.12402 7.06866 3.12402C8.05164 3.12402 8.99942 3.47951 9.73717 4.12504L10.3098 4.62613L9.17942 5.75711L8.67753 5.3137C8.24575 4.93239 7.67448 4.72235 7.06866 4.72235C5.74313 4.72235 4.66473 5.75966 4.66473 7.03457C4.66473 8.31457 5.74313 9.35588 7.06866 9.35588C7.66779 9.35588 8.23913 9.14257 8.67753 8.7553L9.1611 8.32831Z" fill="#587471"/>
<circle cx="7" cy="7" r="6.5" stroke="#587471"/>
</svg>
