<svg width="84" height="70" viewBox="0 0 84 70" fill="none" xmlns="http://www.w3.org/2000/svg">
<g filter="url(#filter0_d)">
<circle cx="46" cy="42" r="22" fill="#FF9900"/>
</g>
<path d="M54 38H38C37.4477 38 37 38.4477 37 39V41C37 41.5523 37.4477 42 38 42H54C54.5523 42 55 41.5523 55 41V39C55 38.4477 54.5523 38 54 38Z" stroke="white" stroke-width="2" stroke-linecap="round" stroke-linejoin="round"/>
<path d="M46 38V51" stroke="white" stroke-width="2" stroke-linecap="round" stroke-linejoin="round"/>
<path d="M53 42V49C53 49.5304 52.7893 50.0391 52.4142 50.4142C52.0391 50.7893 51.5304 51 51 51H41C40.4696 51 39.9609 50.7893 39.5858 50.4142C39.2107 50.0391 39 49.5304 39 49V42" stroke="white" stroke-width="2" stroke-linecap="round" stroke-linejoin="round"/>
<path d="M41.5 38.0004C40.837 38.0004 40.2011 37.737 39.7322 37.2682C39.2634 36.7994 39 36.1635 39 35.5004C39 34.8374 39.2634 34.2015 39.7322 33.7327C40.2011 33.2638 40.837 33.0004 41.5 33.0004C42.4647 32.9836 43.41 33.4517 44.2127 34.3436C45.0154 35.2355 45.6383 36.5098 46 38.0004C46.3617 36.5098 46.9846 35.2355 47.7873 34.3436C48.59 33.4517 49.5353 32.9836 50.5 33.0004C51.163 33.0004 51.7989 33.2638 52.2678 33.7327C52.7366 34.2015 53 34.8374 53 35.5004C53 36.1635 52.7366 36.7994 52.2678 37.2682C51.7989 37.737 51.163 38.0004 50.5 38.0004" stroke="white" stroke-width="2" stroke-linecap="round" stroke-linejoin="round"/>
<defs>
<filter id="filter0_d" x="0" y="0" width="92" height="92" filterUnits="userSpaceOnUse" color-interpolation-filters="sRGB">
<feFlood flood-opacity="0" result="BackgroundImageFix"/>
<feColorMatrix in="SourceAlpha" type="matrix" values="0 0 0 0 0 0 0 0 0 0 0 0 0 0 0 0 0 0 127 0"/>
<feOffset dy="4"/>
<feGaussianBlur stdDeviation="12"/>
<feColorMatrix type="matrix" values="0 0 0 0 0.525 0 0 0 0 0.583333 0 0 0 0 0.573611 0 0 0 0.15 0"/>
<feBlend mode="normal" in2="BackgroundImageFix" result="effect1_dropShadow"/>
<feBlend mode="normal" in="SourceGraphic" in2="effect1_dropShadow" result="shape"/>
</filter>
</defs>
</svg>
