<svg width="40" height="40" viewBox="0 0 40 40" fill="none" xmlns="http://www.w3.org/2000/svg">
<path d="M36.6667 11.666H3.33333C2.18274 11.666 1.25 12.5988 1.25 13.7493V17.916C1.25 19.0666 2.18274 19.9993 3.33333 19.9993H36.6667C37.8173 19.9993 38.75 19.0666 38.75 17.916V13.7493C38.75 12.5988 37.8173 11.666 36.6667 11.666Z" stroke="white" stroke-width="2" stroke-linecap="round" stroke-linejoin="round"/>
<path d="M20 11.666V38.7493" stroke="white" stroke-width="2" stroke-linecap="round" stroke-linejoin="round"/>
<path d="M34.5827 20V34.5833C34.5827 35.6884 34.1437 36.7482 33.3623 37.5296C32.5809 38.311 31.5211 38.75 30.416 38.75H9.58268C8.47761 38.75 7.41781 38.311 6.6364 37.5296C5.855 36.7482 5.41602 35.6884 5.41602 34.5833V20" stroke="white" stroke-width="2" stroke-linecap="round" stroke-linejoin="round"/>
<path d="M10.6243 11.6666C9.24301 11.6666 7.91825 11.1179 6.9415 10.1411C5.96475 9.16436 5.41602 7.8396 5.41602 6.45827C5.41602 5.07693 5.96475 3.75217 6.9415 2.77542C7.91825 1.79867 9.24301 1.24993 10.6243 1.24993C12.6341 1.21492 14.6036 2.19006 16.2759 4.04819C17.9482 5.90631 19.2458 8.56119 19.9994 11.6666C20.7529 8.56119 22.0505 5.90631 23.7228 4.04819C25.3951 2.19006 27.3646 1.21492 29.3744 1.24993C30.7557 1.24993 32.0804 1.79867 33.0572 2.77542C34.034 3.75217 34.5827 5.07693 34.5827 6.45827C34.5827 7.8396 34.034 9.16436 33.0572 10.1411C32.0804 11.1179 30.7557 11.6666 29.3744 11.6666" stroke="white" stroke-width="2" stroke-linecap="round" stroke-linejoin="round"/>
</svg>
