<svg version="1.2" baseProfile="tiny-ps" xmlns="http://www.w3.org/2000/svg" viewBox="0 0 117 123" width="38" height="48">
	<title>Picture4-svg</title>
	<style>
		tspan { white-space:pre }
		.shp0 { fill: #ffffff } 
	</style>
	<g id="Layer">
		<path id="Layer" class="shp0" d="M50.9 6.8C47.4 9.4 20.9 28.3 9.4 36.4C3.1 40.8 1.3 43.4 3.1 45.6C3.7 46.4 4.7 47 5.2 47C6.1 47 19.6 37.8 35.5 26.5C40.5 22.9 46.3 18.8 48.5 17.3C50.7 15.7 52.7 14.2 52.8 13.7C53.6 12.1 56.4 13.3 63.7 18.5C76.9 27.7 78.3 28.8 85 33.7C97.3 42.7 104.3 47.1 105.9 46.8C108.2 46.4 108.5 41.8 106.3 40.2C93.4 31.1 79.6 21.2 76 18.6C73.5 16.8 70.2 14.4 68.5 13.4C66.9 12.4 65.3 11.3 65 11C64.3 10.1 55.2 4 54.8 4.1C54.6 4.1 52.9 5.4 50.9 6.8Z" />
		<path id="Layer" class="shp0" d="M91.8 48.9C90.9 50.2 90.6 53 91 58.6L91.5 66.5L94.5 66.5L97.5 66.5L97.8 58.2C98.1 49.8 97.2 47 94.4 47C93.7 47 92.5 47.8 91.8 48.9Z" />
		<path id="Layer" class="shp0" d="M13.7 48.7C13.3 49 13 58.6 13 70L13 90.6L16.1 93.6C19 96.4 19.5 96.5 30.4 96.8C45.5 97.3 45.3 97.6 44.8 81.4C44.6 71.8 44.8 68.9 45.8 68.5C46.6 68.2 51.4 68 56.6 68C64 68 66 68.3 66 69.4C66 70.6 66.6 70.6 69.5 69.7C72.4 68.8 73 68.2 73 65.9C73 61.4 70.6 60.8 53.9 61.2C41.9 61.4 38.7 61.8 38 63C37.5 63.8 37 70.2 37 77.2L37 90L29.6 90C24.8 90 21.9 89.6 21.2 88.7C20.5 87.9 20 80.7 20 69.5C19.9 59.6 19.4 50.7 18.9 49.8C17.9 48 15 47.4 13.7 48.7Z" />
		<path id="Layer" class="shp0" d="M99.1 81.9C98.3 82.4 90.7 82.9 82.1 83C73.6 83 66.4 83.3 66.2 83.5C65.4 84.3 68.1 93.4 70.5 98C74.9 106.7 75.8 108.2 79.6 113C84.8 119.4 89.3 122.4 92.4 121.6C97.4 120.4 110.1 103 113.3 93C116.7 82.7 116.8 83.2 109.5 82.8C105.6 82.6 103 82.9 103 83.5C103 84 100.8 87 98.2 90C95.6 93.1 92.3 97.1 90.7 98.9L88 102.2L82.5 97.5C77.6 93.3 75.5 90 77.9 90C78.3 90 80.7 91.8 83.2 94L87.7 97.9L91.1 93.7C92.9 91.4 95.9 87.6 97.8 85.2C101.3 80.9 101.5 80.4 99.1 81.9Z" />
	</g>
</svg>