<svg width="120" height="39" viewBox="0 0 120 39" fill="none" xmlns="http://www.w3.org/2000/svg">
<g clip-path="url(#clip0)">
<path d="M52.0585 35.1249H46.7959V10.457H52.0585V35.1249Z" fill="#73C14F"/>
<path d="M67.8462 25.2887C67.8462 24.1096 67.4995 23.1477 66.7748 22.434C66.0815 21.7203 65.1046 21.379 63.9386 21.379C62.9617 21.379 61.9533 21.4721 61.008 21.6583C60.0311 21.8445 59.1487 22.1237 58.3609 22.4961V35.1248H53.2559V20.5102C53.9176 19.9207 54.6739 19.3932 55.5248 18.9277C56.3756 18.4313 57.258 18.0279 58.1718 17.6866C59.0857 17.3453 60.0311 17.066 61.0395 16.8798C62.0164 16.6937 62.9932 16.6006 63.9386 16.6006C65.2937 16.6006 66.5227 16.8178 67.6571 17.2212C68.7916 17.6245 69.7369 18.2141 70.5248 18.9898C71.3126 19.7655 71.9113 20.6654 72.3525 21.7514C72.7937 22.8374 73.0143 24.0165 73.0143 25.3197V35.1558H67.8777V25.2887H67.8462Z" fill="#73C14F"/>
<path d="M86.5964 9.86719C88.5816 9.86719 90.3148 10.2085 91.859 10.8911C93.4031 11.5738 94.6951 12.5046 95.7665 13.6837C96.8379 14.8628 97.6573 16.2281 98.193 17.7795C98.7602 19.331 99.0438 21.0065 99.0438 22.7752C99.0438 24.5748 98.7602 26.2504 98.193 27.8018C97.6258 29.3843 96.8064 30.7496 95.7665 31.9287C94.6951 33.1078 93.4031 34.0386 91.859 34.7213C90.3148 35.4039 88.5501 35.7452 86.5964 35.7452C84.6426 35.7452 82.9094 35.4039 81.3653 34.7213C79.8527 34.0386 78.5606 33.1078 77.4892 31.9287C76.4493 30.7496 75.63 29.3533 75.0628 27.7708C74.4955 26.1883 74.2119 24.5128 74.2119 22.7441C74.2119 20.9755 74.4955 19.2999 75.0628 17.7485C75.63 16.1971 76.4178 14.8318 77.4892 13.6527C78.5291 12.4736 79.8212 11.5427 81.3653 10.8601C82.9094 10.2085 84.6426 9.86719 86.5964 9.86719ZM86.5964 31.3391C87.6678 31.3391 88.6447 31.1219 89.527 30.7186C90.4094 30.2841 91.1657 29.7256 91.8274 28.9499C92.4577 28.2052 92.9619 27.3054 93.3085 26.2504C93.6552 25.1954 93.8442 24.0474 93.8442 22.7752C93.8442 21.534 93.6552 20.386 93.3085 19.362C92.9619 18.307 92.4577 17.4382 91.8274 16.6625C91.1972 15.9178 90.4094 15.3283 89.527 14.8939C88.6447 14.4595 87.6678 14.2733 86.5964 14.2733C85.5564 14.2733 84.5796 14.4905 83.6972 14.8939C82.8148 15.3283 82.0901 15.8868 81.4598 16.6625C80.8296 17.4072 80.3569 18.307 80.0102 19.362C79.6636 20.417 79.4745 21.534 79.4745 22.7752C79.4745 24.0474 79.6636 25.1954 80.0102 26.2504C80.3569 27.3054 80.8611 28.2052 81.4598 28.9499C82.0901 29.6946 82.8464 30.2841 83.6972 30.7186C84.5796 31.1219 85.5564 31.3391 86.5964 31.3391Z" fill="#73C14F"/>
<path d="M114.864 25.2887C114.864 24.1096 114.517 23.1477 113.792 22.434C113.099 21.7203 112.122 21.379 110.956 21.379C109.979 21.379 108.971 21.4721 108.025 21.6583C107.048 21.8445 106.166 22.1237 105.378 22.4961V35.1248H100.305V20.5102C100.966 19.9207 101.723 19.3932 102.574 18.9277C103.424 18.4313 104.307 18.0279 105.221 17.6866C106.135 17.3453 107.08 17.066 108.088 16.8798C109.065 16.6937 110.042 16.6006 110.987 16.6006C112.343 16.6006 113.572 16.8178 114.706 17.2212C115.84 17.6245 116.786 18.2141 117.574 18.9898C118.361 19.7655 118.96 20.6654 119.401 21.7514C119.843 22.8374 120.063 24.0165 120.063 25.3197V35.1558H114.927V25.2887H114.864Z" fill="#73C14F"/>
<path fill-rule="evenodd" clip-rule="evenodd" d="M24.4223 32.4872C24.6744 32.2389 24.958 32.0217 25.2101 31.7425C28.1408 28.8568 30.1891 25.1333 30.9139 20.9444C31.1029 19.7964 31.229 18.6173 31.229 17.4382C31.229 17.0038 31.229 16.6004 31.1975 16.197C30.8824 11.1083 28.645 6.51605 25.2101 3.13391C24.958 2.88568 24.7059 2.63745 24.4223 2.38922C23.5399 1.6135 22.5945 0.899835 21.5861 0.279259C20.9874 -0.0930864 20.1996 -0.0930864 19.5693 0.279259C18.5609 0.899835 17.6155 1.6135 16.7332 2.38922C16.4811 2.63745 16.1975 2.85465 15.9454 3.13391C13.0777 5.95753 11.0294 9.61893 10.2731 13.7147C10.5882 13.5596 10.9349 13.4044 11.25 13.2493C15.6618 11.2945 23.1303 10.7049 26.7542 14.2422C24.8004 13.6216 22.7206 13.3114 20.5462 13.3114C18.3718 13.3114 16.292 13.6527 14.3382 14.2422C12.7941 14.7387 11.313 15.3903 9.92647 16.197C8.5084 17.0348 7.18487 18.0588 5.98739 19.2379C3.08824 22.0925 1.03992 25.847 0.315126 30.0359C0.12605 31.1839 0 32.363 0 33.5421C0 33.6042 0 33.6663 0 33.7593C0 34.4109 0.378151 35.0005 0.976891 35.3108C2.07983 35.9003 3.2458 36.3658 4.44328 36.7381C6.39706 37.3587 8.47689 37.669 10.6513 37.669C13.3613 37.669 15.9454 37.1415 18.3403 36.2106C18.0252 35.9934 17.7101 35.8072 17.395 35.59C12.6681 32.301 8.82353 27.1502 10.2101 20.9755C10.9664 25.1644 13.0147 28.8878 15.9139 31.7735C16.166 32.0217 16.4181 32.27 16.7017 32.5182C17.8676 33.5421 19.1597 34.473 20.5462 35.2177C23.4769 36.8002 26.8802 37.731 30.4727 37.731C32.6471 37.731 34.7269 37.3897 36.6807 36.8002C37.8781 36.4278 39.0441 35.9314 40.1471 35.3728C40.7458 35.0625 41.1239 34.473 41.1239 33.7904C41.1239 33.7283 41.1239 33.6663 41.1239 33.6042C41.1239 32.3941 41.0294 31.246 40.8088 30.0979C40.0525 25.909 38.0042 22.1856 35.105 19.2999C34.5378 18.7414 33.9076 18.1829 33.2773 17.6864C33.2143 23.7681 30.5357 30.0359 24.4223 32.4872ZM27.0378 18.6793C26.7227 22.651 24.958 26.2504 22.2794 28.9188C21.7437 29.4463 21.1765 29.9428 20.5777 30.3772C19.979 29.9118 19.4118 29.4463 18.8761 28.9188C16.166 26.2504 14.4013 22.6821 14.1176 18.6793C16.1029 17.8416 18.3088 17.3761 20.6092 17.3761C22.8781 17.3451 25.0525 17.8105 27.0378 18.6793Z" fill="#73C14F"/>
<path fill-rule="evenodd" clip-rule="evenodd" d="M24.4222 32.4873C24.6743 32.2391 24.9579 32.0219 25.21 31.7737C28.1407 28.888 30.189 25.1645 30.9138 20.9756C30.9453 20.7895 30.9768 20.5723 31.0083 20.3861C30.4096 17.8728 28.8655 15.7007 26.7541 14.2424C24.8003 13.6218 22.7205 13.3115 20.5777 13.3115C18.5609 13.3115 16.6071 13.5908 14.7478 14.1493C12.3529 15.7318 10.6827 18.0589 10.2415 20.9756C10.273 20.8826 10.21 21.0687 10.2415 20.9756C10.9978 25.1645 13.0461 28.888 15.9453 31.7737C16.1344 31.9598 16.355 32.177 16.5756 32.3632C17.8361 32.8907 19.2226 33.17 20.6722 33.17C21.9957 33.17 23.2562 32.9217 24.4222 32.4873ZM18.8445 28.888C16.1344 26.2195 14.3697 22.6512 14.0861 18.6485C16.0714 17.8107 18.2772 17.3453 20.5777 17.3453C22.8781 17.3453 25.084 17.8107 27.0693 18.6485C26.7541 22.6202 24.9894 26.2195 22.3109 28.888C21.7751 29.4155 21.2079 29.9119 20.6092 30.3463C19.9474 29.9119 19.3802 29.4155 18.8445 28.888Z" fill="#73C14F"/>
<g opacity="0.6">
<path opacity="0.6" fill-rule="evenodd" clip-rule="evenodd" d="M24.4222 32.4873C24.6743 32.2391 24.9579 32.0219 25.21 31.7737C28.1407 28.888 30.189 25.1645 30.9138 20.9756C30.9453 20.7895 30.9768 20.5723 31.0083 20.3861C30.4096 17.8728 28.8655 15.7007 26.7541 14.2424C24.8003 13.6218 22.7205 13.3115 20.5777 13.3115C18.5609 13.3115 16.6071 13.5908 14.7478 14.1493C12.3529 15.7318 10.6827 18.0589 10.2415 20.9756C10.273 20.8826 10.21 21.0687 10.2415 20.9756C10.9978 25.1645 13.0461 28.888 15.9453 31.7737C16.1344 31.9598 16.355 32.177 16.5756 32.3632C17.8361 32.8907 19.2226 33.17 20.6722 33.17C21.9957 33.17 23.2562 32.9217 24.4222 32.4873ZM18.8445 28.888C16.1344 26.2195 14.3697 22.6512 14.0861 18.6485C16.0714 17.8107 18.2772 17.3453 20.5777 17.3453C22.8781 17.3453 25.084 17.8107 27.0693 18.6485C26.7541 22.6202 24.9894 26.2195 22.3109 28.888C21.7751 29.4155 21.2079 29.9119 20.6092 30.3463C19.9474 29.9119 19.3802 29.4155 18.8445 28.888Z" fill="#73C14F"/>
</g>
</g>
<defs>
<clipPath id="clip0">
<rect width="120" height="39" fill="white"/>
</clipPath>
</defs>
</svg>
