<svg width="38" height="49" viewBox="0 0 38 49" fill="none" xmlns="http://www.w3.org/2000/svg">
<g clip-path="url(#clip0)">
<path d="M21.1301 21.2891C21.1301 21.8053 21.1301 22.3009 21.1301 22.8171C20.1014 22.8171 19.0933 22.8171 18.0234 22.8171C18.0234 22.3215 18.0234 21.8259 18.0234 21.2891C19.0521 21.2891 20.0808 21.2891 21.1301 21.2891Z" fill="white"/>
<path d="M21.1506 24.4688C21.1506 24.985 21.1506 25.4805 21.1506 25.9968C20.1013 25.9968 19.0932 25.9968 18.0439 25.9968C18.0439 25.5012 18.0439 25.0056 18.0439 24.4688C19.0521 24.4688 20.0602 24.4688 21.1506 24.4688Z" fill="white"/>
<path d="M27.4871 8.56939C27.3637 8.56939 27.2403 8.56939 27.1168 8.56939H27.0962C26.047 8.56939 25.0183 8.56939 24.0101 8.56939C23.6604 8.56939 23.3929 8.4868 23.1255 8.25966C21.1915 6.62839 18.4552 6.48385 16.4595 7.99122C15.8629 8.4455 15.2868 8.63134 14.5667 8.56939C13.9701 8.52809 13.3529 8.56939 12.7357 8.56939C12.5916 8.56939 12.4682 8.56939 12.3242 8.56939C12.1184 8.56939 11.9127 8.56939 11.707 8.56939C11.707 8.56939 11.707 8.56939 11.707 8.54874C9.8553 8.52809 9.09407 8.71393 8.82661 8.79653H8.80603C8.518 9.06497 8.53857 9.64314 8.41513 10.1387H4.62953C4.19748 10.1387 3.82715 10.4897 3.82715 10.944C3.82715 11.3777 4.1769 11.7493 4.62953 11.7493H8.53857C8.53857 11.9352 8.53857 12.0797 8.53857 12.2243C8.53857 13.0502 8.68259 13.2154 9.48497 13.3806C10.7811 13.649 12.0979 13.9381 13.4146 14.1446C14.0935 14.2479 14.5462 14.475 14.793 15.1564C14.9576 15.6313 15.328 16.0237 15.6366 16.4779C15.0811 16.4779 14.5667 16.4779 14.0524 16.4779C10.5342 16.4779 7.75676 19.2656 7.75676 22.7965C7.75676 28.2892 7.75676 33.7611 7.75676 39.2538C7.75676 41.2567 9.15579 42.6608 11.1309 42.6608C12.3447 42.6608 13.5586 42.6608 14.8548 42.6608C14.8548 43.2803 14.8548 43.8378 14.8548 44.3953C14.8959 46.8113 16.9327 48.8968 19.3399 49.0001C22.0968 49.1033 24.3188 46.9765 24.3188 44.1889C24.3188 43.6933 24.3188 43.1771 24.3188 42.6608C25.5943 42.6608 26.8082 42.6608 28.0015 42.6608C30.3263 42.6608 31.3962 40.9057 31.355 38.3246C31.2727 33.3275 31.2727 28.9499 31.355 24.0148C31.4373 19.7198 29.0302 16.4779 24.9771 16.4779C24.5039 16.4779 24.0513 16.4779 23.6192 16.4779C24.0102 15.7965 24.3599 15.1358 24.7508 14.4956C24.8125 14.3924 24.9977 14.3098 25.1417 14.2892C26.7259 13.9588 28.3307 13.649 29.9354 13.3187C30.4086 13.2154 30.6555 12.947 30.6555 12.4514C30.6555 12.2036 30.6555 11.9765 30.6555 11.6874H34.5851C35.0172 11.6874 35.3669 11.3364 35.3669 10.9027C35.3669 10.4691 35.0172 10.1181 34.5851 10.1181H33.0215C32.2397 10.1181 31.4579 10.1181 30.779 10.1181C30.6349 9.60184 30.6349 9.02367 30.3675 8.77588C30.3263 8.73458 30.2852 8.71393 30.244 8.69328C29.7914 8.63134 28.9685 8.52809 27.4871 8.56939ZM13.9495 12.6579C12.7151 12.4101 11.4395 12.1623 10.1228 11.8939C10.1228 11.2951 10.1228 10.7582 10.1228 10.18C11.5835 10.18 13.0648 10.18 14.505 10.18C14.3198 10.9853 14.1347 11.8113 13.9495 12.6579ZM19.6073 8.56939C21.8087 8.56939 23.537 10.3246 23.537 12.534C23.537 14.7228 21.7882 16.4986 19.5868 16.4779C17.3648 16.4986 15.6366 14.7641 15.6366 12.5546C15.6366 10.3039 17.3648 8.56939 19.6073 8.56939ZM22.7346 44.1476C22.7346 46.006 21.3561 47.4307 19.5662 47.4307C17.7968 47.4307 16.4184 46.006 16.4184 44.1269C16.4184 42.3511 16.4184 40.5753 16.4184 38.7169C18.5375 38.7169 20.5949 38.7169 22.7346 38.7169C22.7346 38.8821 22.7346 39.0266 22.7346 39.1918C22.7346 40.8437 22.7551 42.4956 22.7346 44.1476ZM14.0524 37.0856C14.1141 35.6815 13.8878 34.2774 14.361 32.8939C15.1839 30.4573 17.7351 28.8467 20.2451 29.1977C23.0226 29.59 25.0388 31.7582 25.1211 34.4632C25.1417 35.3098 25.1211 36.1771 25.1211 37.065C21.3973 37.0856 17.7557 37.0856 14.0524 37.0856ZM25.2446 18.0886C27.7957 18.1092 29.8531 20.1741 29.8531 22.7346C29.8737 28.2272 29.8531 33.7405 29.8531 39.2331C29.8531 40.4101 29.1948 41.0709 28.0221 41.0709C26.8082 41.0709 25.5943 41.0709 24.3599 41.0709C24.3599 40.2656 24.3599 39.5222 24.3599 38.6962C24.9154 38.6962 25.4092 38.6962 25.9235 38.6962C26.3556 38.6962 26.7053 38.4484 26.6848 38.0148C26.6642 36.3835 26.7671 34.711 26.479 33.1417C25.8412 29.7759 22.8374 27.5458 19.4016 27.6077C16.1303 27.6697 13.1883 30.065 12.6739 33.3481C12.427 34.8762 12.5299 36.4661 12.5299 38.0355C12.5299 38.4691 12.8591 38.6962 13.3117 38.6962C13.8261 38.6962 14.3198 38.6962 14.8548 38.6962C14.8548 39.5015 14.8548 40.2449 14.8548 41.0296C14.7519 41.0502 14.6284 41.0709 14.505 41.0709C13.3734 41.0709 12.2419 41.0709 11.0897 41.0709C10.061 41.0709 9.36153 40.3688 9.36153 39.3157C9.36153 33.7818 9.34095 28.2479 9.36153 22.7139C9.36153 20.1328 11.4189 18.0886 13.9701 18.0679C17.694 18.0679 21.459 18.0679 25.2446 18.0886ZM29.0302 11.9145C27.734 12.183 26.4584 12.4307 25.224 12.6785C25.0388 11.7906 24.8537 11.006 24.6891 10.2007C26.0881 10.2007 27.5489 10.2007 29.0302 10.2007C29.0302 10.7582 29.0302 11.3157 29.0302 11.9145Z" fill="white"/>
<path d="M37.2334 33.5874L37.2334 33.5874C37.369 32.7567 36.8697 31.9301 36.0608 31.6547C33.8983 30.9192 31.6369 30.5414 29.3149 30.5414C27.0129 30.5414 24.7312 30.9192 22.569 31.6547L37.2334 33.5874ZM37.2334 33.5874L37.2324 33.5938M37.2334 33.5874L37.2324 33.5938M37.2324 33.5938C36.5578 38.0277 34.5149 42.0628 31.3393 45.245C31.0707 45.5142 30.8014 45.7836 30.5363 46.0113L30.5362 46.0113M37.2324 33.5938L30.5362 46.0113M30.5362 46.0113L30.533 46.0141M30.5362 46.0113L30.533 46.0141M30.533 46.0141C30.1728 46.328 29.7414 46.48 29.3149 46.48C28.8911 46.48 28.4624 46.3299 28.1036 46.0201M30.533 46.0141L28.1036 46.0201M28.1036 46.0201C27.819 45.7553 27.5443 45.4994 27.2905 45.245C24.1155 42.0635 22.0729 38.0295 21.3978 33.5968C21.2756 32.7309 21.7681 31.9274 22.5689 31.6547L28.1036 46.0201Z" fill="#106D5A" stroke="white" stroke-width="1.2"/>
<path d="M28.5152 40.5133L25.3879 37.705C25.2233 37.5605 25.2233 37.3127 25.3468 37.1682C25.4702 37.0236 25.7377 37.003 25.8817 37.1475L28.4123 39.4189L32.2596 34.7109C32.3831 34.5457 32.6299 34.5251 32.7945 34.649C32.9591 34.7729 32.9797 35.0207 32.8563 35.1859L28.5152 40.5133Z" fill="white"/>
<path d="M4.48364 9C6.95989 9 8.96728 6.98528 8.96728 4.5C8.96728 2.01472 6.95989 0 4.48364 0C2.00739 0 0 2.01472 0 4.5C0 6.98528 2.00739 9 4.48364 9Z" fill="white"/>
<path d="M1.76953 3.8195H1.79011C1.91355 3.8195 2.03699 3.79885 2.13986 3.79885C2.3456 3.79885 2.53077 3.7782 2.7365 3.75755C2.85995 3.75755 2.98339 3.7369 3.10684 3.7369C3.292 3.7369 3.47717 3.71625 3.66233 3.71625C3.70348 3.71625 3.72405 3.6956 3.72405 3.67495C3.95037 3.07613 4.1561 2.45667 4.38242 1.85785C4.38242 1.8372 4.40299 1.81655 4.40299 1.7959C4.42357 1.81655 4.42357 1.8372 4.42357 1.85785C4.64988 2.47731 4.85562 3.09678 5.08193 3.6956C5.14365 3.6956 5.14365 3.71625 5.1848 3.71625C5.36997 3.71625 5.55513 3.7369 5.7403 3.7369C5.84317 3.7369 5.96661 3.75755 6.06948 3.75755C6.25464 3.7782 6.46038 3.7782 6.64555 3.79885C6.76899 3.79885 6.89243 3.8195 7.01588 3.8195C7.03645 3.8195 7.05703 3.8195 7.0776 3.8195C7.0776 3.8195 7.0776 3.8195 7.0776 3.84015C7.05703 3.8608 7.05703 3.86079 7.03645 3.88144C6.66612 4.19118 6.29579 4.50091 5.92546 4.8313C5.82259 4.91389 5.71972 5.01714 5.59628 5.09973C5.55513 5.12038 5.55513 5.16168 5.5757 5.20298C5.7403 5.82245 5.90489 6.46256 6.0489 7.08203C6.0489 7.10268 6.0489 7.10268 6.06948 7.14398C6.0489 7.12333 6.02833 7.12333 6.02833 7.12333C5.51398 6.75165 4.97906 6.40062 4.46471 6.02894C4.44414 6.00829 4.42357 6.00829 4.40299 6.02894C3.88864 6.37997 3.35372 6.75165 2.83937 7.10268C2.8188 7.10268 2.8188 7.12333 2.79823 7.12333C2.79823 7.10268 2.79823 7.08203 2.79823 7.08203C2.92167 6.60711 3.04511 6.13218 3.16856 5.65726C3.2097 5.49206 3.25085 5.32687 3.292 5.18233C3.292 5.16168 3.292 5.14103 3.27143 5.12038C3.02454 4.91389 2.77765 4.7074 2.53077 4.50091C2.28388 4.29442 2.03699 4.08793 1.81068 3.88144C1.79011 3.84015 1.79011 3.84015 1.76953 3.8195Z" fill="#106D5A"/>
</g>
<defs>
<clipPath id="clip0">
<rect width="38" height="49" fill="white"/>
</clipPath>
</defs>
</svg>
