<svg width="37" height="32" viewBox="0 0 37 32" fill="none" xmlns="http://www.w3.org/2000/svg">
<g clip-path="url(#clip0)">
<path d="M3.58278 22.2266C3.58278 22.2266 3.32062 24.5513 4.45666 24.7626C5.06838 24.8683 7.69001 24.8331 8.30173 24.7626C9.69993 24.5865 9.35038 22.2266 9.35038 22.2266H3.58278Z"/>
<path d="M31.4598 11.994C30.9354 10.0567 29.0129 2.83601 29.0129 2.83601C29.0129 2.83601 29.1877 1.25098 26.566 1.25098C23.9444 1.25098 18.7011 1.25098 18.7011 1.25098H18.1768H17.6525C17.6525 1.25098 11.8849 1.25098 9.26326 1.25098C6.64162 1.25098 6.8164 2.83601 6.8164 2.83601C6.8164 2.83601 4.89387 10.0567 4.36954 11.994C0.874026 11.6417 1.22358 14.1073 1.22358 14.1073C1.22358 14.1073 1.22358 17.9819 1.22358 19.3908C1.22358 20.7997 2.97133 20.7997 2.97133 20.7997H17.1806H17.6525H32.858C32.858 20.7997 34.6057 20.7997 34.6057 19.3908C34.6057 17.9819 34.6057 14.1073 34.6057 14.1073C34.6057 14.1073 34.9553 11.6417 31.4598 11.994ZM13.5453 13.7551H22.284C22.6161 13.7551 22.8958 14.0369 22.8958 14.3715C22.8958 14.7061 22.6161 14.9879 22.284 14.9879H13.5453C13.2132 14.9879 12.9335 14.7061 12.9335 14.3715C12.9335 14.0369 13.2132 13.7551 13.5453 13.7551ZM23.857 18.3341H11.9723C11.6402 18.3341 11.3606 18.0523 11.3606 17.7177C11.3606 17.3831 11.6402 17.1013 11.9723 17.1013H23.857C24.1891 17.1013 24.4687 17.3831 24.4687 17.7177C24.4687 18.0523 24.1891 18.3341 23.857 18.3341Z"/>
<path d="M33.5569 10.9355C35.4795 10.7594 35.3047 9.35052 35.3047 9.35052C35.3047 9.35052 35.3047 7.76549 35.3047 6.7088C35.3047 5.65211 33.4695 5.74017 33.4695 5.74017H31.0227L30.1488 2.04177C29.7119 -0.33578 26.9154 0.016449 26.9154 0.016449H18.1767H8.91356C8.91356 0.016449 6.11715 -0.33578 5.68021 2.04177L4.80633 5.74017H2.35947C2.35947 5.74017 0.524327 5.65211 0.524327 6.7088C0.524327 7.76549 0.524327 9.35052 0.524327 9.35052C0.524327 9.35052 0.349551 10.7594 2.27208 10.9355C1.39821 11.1117 0 11.9922 0 13.7534C0 15.5145 0 19.9174 0 19.9174C0 19.9174 0 22.0308 2.44686 22.2069C2.35947 24.7605 2.79641 26.0814 4.89372 26.0814C6.99103 26.0814 7.8649 26.0814 7.8649 26.0814C7.8649 26.0814 7.88238 26.0814 7.91734 26.0814C9.3505 26.0286 10.504 25.2008 10.4865 23.3692V22.2069H17.1804H17.6523H25.3425V23.3692C25.3075 25.2008 26.4785 26.0286 27.9117 26.0814C27.9466 26.0814 27.9641 26.0814 27.9641 26.0814C27.9641 26.0814 28.838 26.0814 30.9353 26.0814C33.0326 26.0814 33.4695 24.7605 33.3821 22.2069C35.829 22.0308 35.829 19.9174 35.829 19.9174C35.829 19.9174 35.829 15.5145 35.829 13.7534C35.829 11.9922 34.4308 11.1117 33.5569 10.9355ZM33.9065 6.88491C33.9065 6.88491 34.4308 6.7088 34.4308 7.76549C34.4308 8.82217 34.6056 9.87886 33.9065 9.87886C33.2074 9.87886 32.1587 9.87886 32.1587 9.87886L31.2848 6.88491H33.9065ZM1.92253 9.87886C1.22343 9.87886 1.39821 8.82217 1.39821 7.76549C1.39821 6.7088 1.92253 6.88491 1.92253 6.88491H4.54417L3.67029 9.87886C3.67029 9.87886 2.62163 9.87886 1.92253 9.87886ZM8.30184 24.7605C7.69013 24.831 5.06849 24.8662 4.45678 24.7605C3.32074 24.5492 3.5829 22.2245 3.5829 22.2245H9.3505C9.3505 22.2245 9.70005 24.5844 8.30184 24.7605ZM31.3722 24.7605C30.7605 24.8662 28.1389 24.831 27.5272 24.7605C26.129 24.5844 26.4785 22.2245 26.4785 22.2245H32.2461C32.2461 22.2245 32.5083 24.5492 31.3722 24.7605ZM34.6056 14.1056C34.6056 14.1056 34.6056 17.9801 34.6056 19.389C34.6056 20.798 32.8578 20.798 32.8578 20.798H17.6523H17.1804H2.97119C2.97119 20.798 1.22343 20.798 1.22343 19.389C1.22343 17.9801 1.22343 14.1056 1.22343 14.1056C1.22343 14.1056 0.873878 11.64 4.36939 11.9922C4.89372 10.055 6.81625 2.83428 6.81625 2.83428C6.81625 2.83428 6.64147 1.24925 9.26311 1.24925C11.8847 1.24925 17.6523 1.24925 17.6523 1.24925H18.1767H18.701C18.701 1.24925 23.9443 1.24925 26.5659 1.24925C29.1875 1.24925 29.0128 2.83428 29.0128 2.83428C29.0128 2.83428 30.9353 10.055 31.4596 11.9922C34.9551 11.64 34.6056 14.1056 34.6056 14.1056Z" fill="white"/>
<path d="M13.5453 14.9877H22.2841C22.6162 14.9877 22.8958 14.7059 22.8958 14.3713C22.8958 14.0367 22.6162 13.7549 22.2841 13.7549H13.5453C13.2132 13.7549 12.9336 14.0367 12.9336 14.3713C12.9336 14.7059 13.2132 14.9877 13.5453 14.9877Z" fill="white"/>
<path d="M23.8568 17.1006H11.9721C11.64 17.1006 11.3604 17.3824 11.3604 17.717C11.3604 18.0516 11.64 18.3334 11.9721 18.3334H23.8568C24.1889 18.3334 24.4685 18.0516 24.4685 17.717C24.4685 17.3824 24.1889 17.1006 23.8568 17.1006Z" fill="white"/>
<path d="M6.37897 13.2266C4.98077 13.2266 3.84473 14.3713 3.84473 15.7802C3.84473 17.1891 4.98077 18.3339 6.37897 18.3339C7.77718 18.3339 8.91322 17.1891 8.91322 15.7802C8.91322 14.3713 7.77718 13.2266 6.37897 13.2266ZM6.37897 17.1011C5.66239 17.1011 5.06816 16.5023 5.06816 15.7802C5.06816 15.0582 5.66239 14.4594 6.37897 14.4594C7.09555 14.4594 7.68979 15.0582 7.68979 15.7802C7.68979 16.5023 7.09555 17.1011 6.37897 17.1011Z" fill="white"/>
<path d="M26.915 15.7802C26.915 17.1891 28.0511 18.3339 29.4493 18.3339C30.8475 18.3339 31.9835 17.1891 31.9835 15.7802C31.9835 14.3713 30.8475 13.2266 29.4493 13.2266C28.0511 13.2266 26.915 14.3713 26.915 15.7802ZM28.1385 15.7802C28.1385 15.0582 28.7327 14.4594 29.4493 14.4594C30.1659 14.4594 30.7601 15.0582 30.7601 15.7802C30.7601 16.5023 30.1659 17.1011 29.4493 17.1011C28.7327 17.1011 28.1385 16.5023 28.1385 15.7802Z" fill="white"/>
<path d="M29.6592 9.77506C29.1698 9.5285 28.7853 9.45806 28.5756 10.4619H21.4447H14.4013H7.27042C7.06069 9.47567 6.65871 9.54611 6.18681 9.77506C5.71492 10.004 6.01204 10.867 6.18681 11.272C6.36159 11.6771 7.27042 11.6947 7.27042 11.6947H14.4013H21.4272H28.5581C28.5581 11.6947 29.4669 11.6771 29.6417 11.272C29.834 10.867 30.1311 10.0216 29.6592 9.77506Z" fill="white"/>
<g filter="url(#filter0_d)">
<path d="M36.3725 20.3689L36.3725 20.3689C36.4825 19.6918 36.077 19.0194 35.4248 18.7961L36.3725 20.3689ZM36.3725 20.3689L36.3715 20.3753M36.3725 20.3689L36.3715 20.3753M36.3715 20.3753C35.7964 24.1765 34.0549 27.6351 31.3481 30.3627C31.1176 30.595 30.8893 30.8246 30.6652 31.0182L30.6652 31.0181M36.3715 20.3753L30.6652 31.0181M30.6652 31.0181L30.662 31.021M30.6652 31.0181L30.662 31.021M30.662 31.021C30.3691 31.2776 30.0201 31.4006 29.6766 31.4006C29.3358 31.4006 28.9896 31.2795 28.6982 31.0269M30.662 31.021L28.6982 31.0269M28.6982 31.0269C28.4547 30.7991 28.2209 30.5801 28.0052 30.3627C25.2991 27.6359 23.5578 24.1783 22.9822 20.3783C22.8828 19.6689 23.2842 19.0167 23.9285 18.7961L28.6982 31.0269ZM29.6766 17.8422C27.7152 17.8422 25.7709 18.1659 23.9285 18.7961L29.6766 17.8422ZM29.6766 17.8422C31.6553 17.8422 33.5821 18.1658 35.4247 18.7961L29.6766 17.8422Z" fill="#73C14F" stroke="white" stroke-width="1.2"/>
<path d="M29.7663 26.0696L27.1097 23.6744C26.9699 23.5511 26.9699 23.3398 27.0747 23.2165C27.1796 23.0932 27.4068 23.0756 27.5292 23.1989L29.6789 25.1362L32.9472 21.1208C33.0521 20.9799 33.2618 20.9623 33.4016 21.0679C33.5414 21.1736 33.5589 21.3849 33.4541 21.5258L29.7663 26.0696Z" fill="white" stroke="white" stroke-width="0.75"/>
</g>
</g>
<defs>
<filter id="filter0_d" x="18.3672" y="17.2422" width="22.6234" height="22.7584" filterUnits="userSpaceOnUse" color-interpolation-filters="sRGB">
<feFlood flood-opacity="0" result="BackgroundImageFix"/>
<feColorMatrix in="SourceAlpha" type="matrix" values="0 0 0 0 0 0 0 0 0 0 0 0 0 0 0 0 0 0 127 0" result="hardAlpha"/>
<feOffset dy="4"/>
<feGaussianBlur stdDeviation="2"/>
<feComposite in2="hardAlpha" operator="out"/>
<feColorMatrix type="matrix" values="0 0 0 0 0 0 0 0 0 0 0 0 0 0 0 0 0 0 0.25 0"/>
<feBlend mode="normal" in2="BackgroundImageFix" result="effect1_dropShadow"/>
<feBlend mode="normal" in="SourceGraphic" in2="effect1_dropShadow" result="shape"/>
</filter>
<clipPath id="clip0">
<rect width="37" height="32" fill="white"/>
</clipPath>
</defs>
</svg>
