<svg width="42" height="40" viewBox="0 0 42 40" fill="none" xmlns="http://www.w3.org/2000/svg">
<g clip-path="url(#clip0)">
<path fill-rule="evenodd" clip-rule="evenodd" d="M24.1582 0H25.5835L25.6846 0.0401817C25.8459 0.104316 26.0105 0.153742 26.2024 0.210959L26.2056 0.211928L26.2089 0.212935C28.3481 0.878684 29.5933 2.90499 29.2948 5.13043L29.2946 5.13179L29.2944 5.13314C29.0124 7.1598 27.2066 8.80742 25.1419 8.89457C22.8772 9.00012 20.9512 7.54803 20.4759 5.40221C20.0013 3.27856 21.146 1.13556 23.1713 0.321848L23.1732 0.321077C23.3736 0.24143 23.6134 0.16907 23.8155 0.10807C23.9121 0.0789118 24.0002 0.0523499 24.0712 0.0288296L24.1582 0ZM24.34 1.1236C24.2397 1.15562 24.1499 1.18236 24.0654 1.20751C23.9005 1.25658 23.7561 1.29959 23.5941 1.36393C22.0778 1.97365 21.2255 3.57532 21.5797 5.15903L21.5799 5.16019C21.9338 6.75892 23.361 7.85322 25.09 7.77216L25.0915 7.77209L25.0929 7.77203C26.6073 7.70866 27.9659 6.47342 28.1743 4.98057C28.4025 3.27511 27.4634 1.78232 25.8742 1.28617L25.8683 1.28441C25.7158 1.23897 25.5453 1.18811 25.3699 1.1236H24.34Z" fill="white"/>
<path d="M35.6497 22.7523C35.6497 22.3591 35.6497 21.9845 35.6497 21.5913V18.9883C35.6497 17.6025 35.6497 16.5913 35.6497 14.4564C35.6497 11.4976 32.9552 8.98828 29.7708 8.98828C26.2472 8.98828 22.7614 8.98828 19.69 8.98828C16.5433 8.98828 14.075 11.2729 14.0561 14.1755C13.8677 14.0257 13.6981 13.8572 13.5097 13.7074C12.9633 13.2205 12.4168 12.7523 11.8704 12.2842C10.7587 11.3104 9.27012 11.3666 8.32799 12.4152C7.42355 13.4452 7.5366 14.9621 8.62947 15.9171C9.98613 17.1156 11.3616 18.3328 12.6995 19.4939C13.3966 20.1119 14.0938 20.7111 14.791 21.3291C15.6389 22.0782 16.5999 22.228 17.542 21.7973C18.2015 21.4976 18.9929 20.8422 18.9929 19.419V19.007C18.9929 17.3778 18.9929 15.7673 18.9929 14.1568C19.0117 14.1194 19.1059 14.0632 19.2943 13.9883C19.2943 18.3328 19.2943 21.1231 19.2755 23.6512C19.2755 27.1343 19.2567 30.1681 19.2567 36.1606C19.2567 36.5351 19.2755 36.9845 19.3886 37.4152C19.7277 38.595 20.8583 39.419 22.083 39.419C22.1961 39.419 22.328 39.419 22.4599 39.4003C23.8354 39.213 24.7398 38.1081 24.7398 36.5725C24.7398 31.7598 24.7398 25.7486 24.7398 23.8759H24.9848C24.9848 25.6924 24.9848 31.5913 24.9848 36.4602C24.9848 37.3965 25.3051 38.2018 25.8515 38.7448C26.3414 39.213 27.0009 39.4564 27.7358 39.419C29.149 39.3628 30.3172 38.2205 30.4114 36.8347C30.4303 36.6287 30.4303 36.4415 30.4303 36.2542V14.0819C30.6187 14.1943 30.7318 14.3254 30.7318 14.419C30.7318 16.0295 30.7318 17.64 30.7318 19.2317V21.2916C30.7318 22.0594 30.7318 22.5276 30.7318 22.8834C30.7318 23.5576 30.7318 23.9134 30.7318 25.3366C30.7318 26.0857 30.9956 26.7785 31.4855 27.2467C31.9377 27.6774 32.5406 27.9209 33.1813 27.9209C33.2001 27.9209 33.219 27.9209 33.2378 27.9209C34.5945 27.9021 35.612 26.8534 35.6308 25.4864C35.6685 24.5688 35.6497 23.6512 35.6497 22.7523ZM34.5191 25.4677C34.5003 26.2167 33.9727 26.7785 33.2378 26.7973C32.861 26.7973 32.5406 26.6849 32.2957 26.4415C32.0319 26.1793 31.8811 25.786 31.8811 25.3366C31.8811 23.9134 31.8811 23.5576 31.8811 22.9021C31.8811 22.5463 31.8811 22.0782 31.8811 21.3104V19.2505C31.8811 17.64 31.8811 16.0295 31.8811 14.4377C31.8811 13.4452 30.7318 12.846 29.9027 12.8085L29.2997 12.7711V36.1793V36.2916C29.2997 36.4602 29.2997 36.6287 29.2809 36.7973C29.2244 37.6212 28.5272 38.2954 27.6981 38.3328C27.2647 38.3516 26.9067 38.2205 26.6429 37.977C26.3038 37.6587 26.1153 37.1343 26.1153 36.4976C26.1153 31.2542 26.1153 24.831 26.1153 23.5763V22.7898H23.6093V23.7261C23.6093 25.3366 23.6093 31.6287 23.6093 36.61C23.6093 37.5651 23.1194 38.2018 22.3091 38.3141C21.4989 38.4265 20.7075 37.9209 20.4814 37.1531C20.3872 36.8534 20.3872 36.5164 20.3872 36.2167C20.3872 30.2055 20.3872 27.1905 20.4061 23.7074C20.4061 21.1606 20.4061 18.3516 20.4249 13.9508V12.7336L19.8031 12.8085C18.2015 12.977 17.8623 13.6512 17.8623 14.1943C17.8623 15.8235 17.8623 17.434 17.8623 19.0632V19.4752C17.8623 20.1681 17.6174 20.58 17.0709 20.8235C16.5245 21.0669 16.0534 20.992 15.5447 20.5239C14.8475 19.9059 14.1503 19.3066 13.4532 18.6887C12.1153 17.5089 10.7398 16.3104 9.38317 15.1119C8.76137 14.5688 8.686 13.7636 9.21359 13.183C9.72234 12.6212 10.5326 12.6025 11.1544 13.1456C11.7008 13.6137 12.2472 14.1006 12.7937 14.5688C13.1705 14.9059 13.5662 15.243 13.9619 15.58C14.0373 15.6549 14.1315 15.7111 14.2069 15.7673C14.2445 15.786 14.2822 15.8235 14.3199 15.8422L15.2055 16.4789V14.9995C15.2055 14.7373 15.2055 14.4752 15.2055 14.2317C15.2055 11.8909 17.1275 10.1306 19.69 10.1119C22.7614 10.1119 26.2472 10.1119 29.7708 10.1119C32.3334 10.1119 34.5191 12.1156 34.5191 14.4564C34.5191 16.5913 34.5191 17.6025 34.5191 18.9883V21.5913C34.5191 21.9845 34.5191 22.3591 34.5191 22.7523C34.5191 23.6512 34.5379 24.5688 34.5191 25.4677Z" fill="white"/>
<path fill-rule="evenodd" clip-rule="evenodd" d="M1.18321 6.7218C1.17302 6.74703 1.14911 6.82685 1.14911 7.0222V21.0671C1.14911 21.2179 1.16099 21.3077 1.17444 21.3595C1.17599 21.3654 1.17745 21.3705 1.17878 21.3747C1.18306 21.3761 1.18814 21.3775 1.19412 21.379C1.24626 21.3924 1.33662 21.4042 1.48827 21.4042H11.2299C11.4124 21.4042 11.4896 21.3824 11.5154 21.3725C11.5178 21.3664 11.5208 21.3576 11.5241 21.3455C11.5378 21.2952 11.5502 21.2089 11.5502 21.0671C11.5502 20.8546 11.5482 20.6348 11.5461 20.4107C11.5419 19.947 11.5375 19.4652 11.5504 18.992L11.5507 18.9821L11.5513 18.9722C11.554 18.9296 11.5518 18.9031 11.5495 18.8881C11.5473 18.8742 11.5448 18.869 11.5443 18.8679C11.5438 18.8669 11.5416 18.8621 11.5332 18.8525C11.5246 18.8427 11.5087 18.827 11.4806 18.8056C11.3029 18.6806 11.1329 18.5239 10.9823 18.3849C10.943 18.3486 10.905 18.3136 10.8685 18.2806L10.8617 18.2745L10.8552 18.2682C10.5576 17.9814 10.2859 17.7472 10.023 17.5253C9.97792 17.4872 9.93273 17.4492 9.88749 17.4111C9.67355 17.2312 9.45863 17.0504 9.24813 16.8575C9.15546 16.7751 9.06562 16.6956 8.97827 16.6184C8.73545 16.4036 8.5119 16.2058 8.30042 16.0097L8.29585 16.0054L8.29137 16.0011C7.32727 15.0663 7.17005 13.6123 7.96627 12.533C8.81507 11.3791 10.3889 11.0951 11.569 11.8555V7.0222C11.569 6.82686 11.5451 6.74703 11.5349 6.7218C11.5283 6.71913 11.5182 6.71563 11.5038 6.7118C11.4502 6.69761 11.3594 6.68512 11.211 6.68512H1.50711C1.35873 6.68512 1.26792 6.69761 1.21438 6.7118C1.19991 6.71563 1.18985 6.71913 1.18321 6.7218ZM0.387639 5.91943C0.699542 5.61453 1.13042 5.56152 1.50711 5.56152H11.211C11.5877 5.56152 12.0186 5.61453 12.3305 5.91943C12.6453 6.22716 12.6996 6.65428 12.6996 7.0222V14.2825L11.7641 13.4767C11.6602 13.3872 11.5695 13.308 11.4869 13.2359C11.3348 13.1032 11.2104 12.9945 11.0817 12.8898C10.3949 12.3458 9.40719 12.4777 8.87872 13.1964L8.87817 13.1971C8.4321 13.8017 8.49964 14.6296 9.07667 15.1928C9.27614 15.3777 9.48368 15.5612 9.72061 15.7708C9.81081 15.8506 9.90527 15.9342 10.0052 16.023L10.0084 16.0259L10.0117 16.0289C10.2036 16.205 10.3975 16.3681 10.6118 16.5483C10.6585 16.5876 10.7062 16.6277 10.755 16.669C11.0226 16.8949 11.3141 17.1457 11.6357 17.4553C11.6925 17.5067 11.7428 17.5529 11.7885 17.595C11.929 17.7242 12.0265 17.8139 12.1381 17.8915L12.1457 17.8968L12.1531 17.9023C12.3169 18.0244 12.4692 18.1807 12.5688 18.3928C12.6668 18.6015 12.6924 18.8187 12.6803 19.0314C12.6682 19.4819 12.6723 19.9242 12.6765 20.3726C12.6786 20.6019 12.6807 20.8328 12.6807 21.0671C12.6807 21.4357 12.6261 21.857 12.323 22.1633C12.0171 22.4725 11.5943 22.5278 11.2299 22.5278H1.48827C1.12295 22.5278 0.686771 22.4836 0.374901 22.1737C0.0630306 21.8637 0.0185547 21.4302 0.0185547 21.0671V7.0222C0.0185547 6.65428 0.0728389 6.22716 0.387639 5.91943Z" fill="white"/>
<path d="M5.95418 18.6516C5.76575 17.4718 5.57733 16.2921 5.37006 14.9812C5.78459 14.9812 6.16145 14.9812 6.51945 14.9812C6.82093 14.9812 6.95283 14.8501 6.91515 14.5505C6.74556 12.9775 6.61367 11.4044 6.44408 9.83139C6.42524 9.70031 6.21797 9.49431 6.08608 9.49431C4.93668 9.47559 3.78729 9.47559 2.61905 9.47559C2.14799 9.47559 2.2422 9.77521 2.31757 10.0374C2.60021 11.0486 2.88284 12.0599 3.14664 13.0711C3.20317 13.2584 3.22201 13.4456 3.27854 13.6703C2.84516 13.7078 2.48715 13.7265 1.92188 13.764C3.2597 15.5055 4.48446 17.116 5.70922 18.7265C5.78459 18.7078 5.85997 18.6891 5.95418 18.6516Z" fill="white"/>
<path d="M41.3986 27.8288L41.3986 27.8289C41.5176 27.1076 41.0801 26.3823 40.3598 26.1395L41.3986 27.8288ZM41.3986 27.8288L41.3976 27.8354M41.3986 27.8288L41.3976 27.8354M41.3976 27.8354C40.7818 31.8433 38.9169 35.4915 36.0166 38.3696C35.7703 38.614 35.5251 38.8568 35.2841 39.0618L35.2841 39.0618M41.3976 27.8354L35.2841 39.0618M35.2841 39.0618L35.2808 39.0646M35.2841 39.0618L35.2808 39.0646M35.2808 39.0646C34.9604 39.3411 34.5763 39.4753 34.1962 39.4753C33.8188 39.4753 33.4375 39.343 33.1184 39.0705M35.2808 39.0646L33.1184 39.0705M33.1184 39.0705C32.8579 38.8305 32.6072 38.5993 32.3758 38.3696C29.4761 35.4923 27.6115 31.8452 26.9952 27.8384C26.8878 27.0837 27.3204 26.3795 28.0325 26.1395L33.1184 39.0705ZM34.1962 25.1322C32.0928 25.1322 30.008 25.4741 28.0326 26.1395L34.1962 25.1322ZM34.1962 25.1322C36.3179 25.1322 38.3841 25.474 40.3597 26.1395L34.1962 25.1322Z" fill="#106D5A" stroke="white" stroke-width="1.2"/>
<path d="M33.4638 34.1201L30.5997 31.5733C30.449 31.4422 30.449 31.2175 30.562 31.0864C30.6751 30.9553 30.92 30.9366 31.0519 31.0676L33.3696 33.1276L36.8931 28.8579C37.0062 28.7081 37.2323 28.6894 37.383 28.8017C37.5338 28.9141 37.5526 29.1388 37.4396 29.2886L33.4638 34.1201Z" fill="white" stroke="white" stroke-width="0.75"/>
</g>
<defs>
<clipPath id="clip0">
<rect width="42" height="40" fill="white"/>
</clipPath>
</defs>
</svg>
