<svg width="40" height="39" viewBox="0 0 40 39" fill="none" xmlns="http://www.w3.org/2000/svg">
<path d="M4.5 9C6.98528 9 9 6.98528 9 4.5C9 2.01472 6.98528 0 4.5 0C2.01472 0 0 2.01472 0 4.5C0 6.98528 2.01472 9 4.5 9Z" fill="white"/>
<path d="M1.7998 3.87148H1.82073C1.94632 3.87148 2.0719 3.85054 2.17655 3.85054C2.38585 3.85054 2.57422 3.82961 2.78353 3.80868C2.90911 3.80868 3.03469 3.78775 3.16027 3.78775C3.34864 3.78775 3.53701 3.76682 3.72539 3.76682C3.76725 3.76682 3.78818 3.74589 3.78818 3.72496C4.01841 3.11799 4.22771 2.49008 4.45794 1.8831C4.45794 1.86217 4.47887 1.84124 4.47887 1.82031C4.4998 1.84124 4.4998 1.86217 4.4998 1.8831C4.73004 2.51101 4.93934 3.13892 5.16957 3.74589C5.23236 3.74589 5.23236 3.76682 5.27422 3.76682C5.4626 3.76682 5.65097 3.78775 5.83934 3.78775C5.94399 3.78775 6.06957 3.80868 6.17422 3.80868C6.3626 3.82961 6.5719 3.82961 6.76027 3.85054C6.88585 3.85054 7.01143 3.87148 7.13701 3.87148C7.15794 3.87148 7.17887 3.87148 7.19981 3.87148C7.19981 3.87148 7.19981 3.87148 7.19981 3.89241C7.17887 3.91334 7.17887 3.91334 7.15794 3.93427C6.7812 4.24822 6.40446 4.56217 6.02771 4.89706C5.92306 4.98078 5.81841 5.08543 5.69283 5.16915C5.65097 5.19008 5.65097 5.23194 5.6719 5.2738C5.83934 5.90171 6.00678 6.55054 6.15329 7.17845C6.15329 7.19938 6.15329 7.19938 6.17422 7.24124C6.15329 7.22031 6.13236 7.22031 6.13236 7.22031C5.60911 6.84357 5.06492 6.48775 4.54167 6.11101C4.52074 6.09008 4.4998 6.09008 4.47887 6.11101C3.95562 6.46682 3.41143 6.84357 2.88818 7.19938C2.86725 7.19938 2.86725 7.22031 2.84632 7.22031C2.84632 7.19938 2.84632 7.17845 2.84632 7.17845C2.9719 6.69706 3.09748 6.21566 3.22306 5.73427C3.26492 5.56682 3.30678 5.39938 3.34864 5.25287C3.34864 5.23194 3.34864 5.21101 3.32771 5.19008C3.07655 4.98078 2.82539 4.77147 2.57422 4.56217C2.32306 4.35287 2.0719 4.14357 1.84167 3.93427C1.82073 3.89241 1.82073 3.89241 1.7998 3.87148Z" fill="#146F5B"/>
<g clip-path="url(#clip0)">
<path d="M6.58278 29.2266C6.58278 29.2266 6.32062 31.5513 7.45666 31.7626C8.06838 31.8683 10.69 31.8331 11.3017 31.7626C12.6999 31.5865 12.3504 29.2266 12.3504 29.2266H6.58278Z" fill="#16705B"/>
<path d="M29.4783 29.2266C29.4783 29.2266 29.1287 31.5865 30.5269 31.7626C31.1387 31.8331 33.7603 31.8683 34.372 31.7626C35.508 31.5513 35.2459 29.2266 35.2459 29.2266H29.4783Z" fill="white"/>
<path d="M34.4598 18.994C33.9354 17.0567 32.0129 9.83601 32.0129 9.83601C32.0129 9.83601 32.1877 8.25098 29.566 8.25098C26.9444 8.25098 21.7011 8.25098 21.7011 8.25098H21.1768H20.6525C20.6525 8.25098 14.8849 8.25098 12.2633 8.25098C9.64162 8.25098 9.8164 9.83601 9.8164 9.83601C9.8164 9.83601 7.89387 17.0567 7.36954 18.994C3.87403 18.6417 4.22358 21.1073 4.22358 21.1073C4.22358 21.1073 4.22358 24.9819 4.22358 26.3908C4.22358 27.7997 5.97133 27.7997 5.97133 27.7997H20.1806H20.6525H35.858C35.858 27.7997 37.6057 27.7997 37.6057 26.3908C37.6057 24.9819 37.6057 21.1073 37.6057 21.1073C37.6057 21.1073 37.9553 18.6417 34.4598 18.994ZM16.5453 20.7551H25.284C25.6161 20.7551 25.8958 21.0369 25.8958 21.3715C25.8958 21.7061 25.6161 21.9879 25.284 21.9879H16.5453C16.2132 21.9879 15.9335 21.7061 15.9335 21.3715C15.9335 21.0369 16.2132 20.7551 16.5453 20.7551ZM26.857 25.3341H14.9723C14.6402 25.3341 14.3606 25.0523 14.3606 24.7177C14.3606 24.3831 14.6402 24.1013 14.9723 24.1013H26.857C27.1891 24.1013 27.4687 24.3831 27.4687 24.7177C27.4687 25.0523 27.1891 25.3341 26.857 25.3341Z" fill="#16705B"/>
<path d="M36.5569 17.9355C38.4795 17.7594 38.3047 16.3505 38.3047 16.3505C38.3047 16.3505 38.3047 14.7655 38.3047 13.7088C38.3047 12.6521 36.4695 12.7402 36.4695 12.7402H34.0227L33.1488 9.04177C32.7119 6.66422 29.9154 7.01645 29.9154 7.01645H21.1767H11.9136C11.9136 7.01645 9.11715 6.66422 8.68021 9.04177L7.80633 12.7402H5.35947C5.35947 12.7402 3.52433 12.6521 3.52433 13.7088C3.52433 14.7655 3.52433 16.3505 3.52433 16.3505C3.52433 16.3505 3.34955 17.7594 5.27208 17.9355C4.39821 18.1117 3 18.9922 3 20.7534C3 22.5145 3 26.9174 3 26.9174C3 26.9174 3 29.0308 5.44686 29.2069C5.35947 31.7605 5.79641 33.0814 7.89372 33.0814C9.99103 33.0814 10.8649 33.0814 10.8649 33.0814C10.8649 33.0814 10.8824 33.0814 10.9173 33.0814C12.3505 33.0286 13.504 32.2008 13.4865 30.3692V29.2069H20.1804H20.6523H28.3425V30.3692C28.3075 32.2008 29.4785 33.0286 30.9117 33.0814C30.9466 33.0814 30.9641 33.0814 30.9641 33.0814C30.9641 33.0814 31.838 33.0814 33.9353 33.0814C36.0326 33.0814 36.4695 31.7605 36.3821 29.2069C38.829 29.0308 38.829 26.9174 38.829 26.9174C38.829 26.9174 38.829 22.5145 38.829 20.7534C38.829 18.9922 37.4308 18.1117 36.5569 17.9355ZM36.9065 13.8849C36.9065 13.8849 37.4308 13.7088 37.4308 14.7655C37.4308 15.8222 37.6056 16.8789 36.9065 16.8789C36.2074 16.8789 35.1587 16.8789 35.1587 16.8789L34.2848 13.8849H36.9065ZM4.92253 16.8789C4.22343 16.8789 4.39821 15.8222 4.39821 14.7655C4.39821 13.7088 4.92253 13.8849 4.92253 13.8849H7.54417L6.67029 16.8789C6.67029 16.8789 5.62163 16.8789 4.92253 16.8789ZM11.3018 31.7605C10.6901 31.831 8.06849 31.8662 7.45678 31.7605C6.32074 31.5492 6.5829 29.2245 6.5829 29.2245H12.3505C12.3505 29.2245 12.7 31.5844 11.3018 31.7605ZM34.3722 31.7605C33.7605 31.8662 31.1389 31.831 30.5272 31.7605C29.129 31.5844 29.4785 29.2245 29.4785 29.2245H35.2461C35.2461 29.2245 35.5083 31.5492 34.3722 31.7605ZM37.6056 21.1056C37.6056 21.1056 37.6056 24.9801 37.6056 26.389C37.6056 27.798 35.8578 27.798 35.8578 27.798H20.6523H20.1804H5.97119C5.97119 27.798 4.22343 27.798 4.22343 26.389C4.22343 24.9801 4.22343 21.1056 4.22343 21.1056C4.22343 21.1056 3.87388 18.64 7.36939 18.9922C7.89372 17.055 9.81625 9.83428 9.81625 9.83428C9.81625 9.83428 9.64147 8.24925 12.2631 8.24925C14.8847 8.24925 20.6523 8.24925 20.6523 8.24925H21.1767H21.701C21.701 8.24925 26.9443 8.24925 29.5659 8.24925C32.1875 8.24925 32.0128 9.83428 32.0128 9.83428C32.0128 9.83428 33.9353 17.055 34.4596 18.9922C37.9551 18.64 37.6056 21.1056 37.6056 21.1056Z" fill="white"/>
<path d="M16.5453 21.9877H25.2841C25.6162 21.9877 25.8958 21.7059 25.8958 21.3713C25.8958 21.0367 25.6162 20.7549 25.2841 20.7549H16.5453C16.2132 20.7549 15.9336 21.0367 15.9336 21.3713C15.9336 21.7059 16.2132 21.9877 16.5453 21.9877Z" fill="white"/>
<path d="M26.8568 24.1006H14.9721C14.64 24.1006 14.3604 24.3824 14.3604 24.717C14.3604 25.0516 14.64 25.3334 14.9721 25.3334H26.8568C27.1889 25.3334 27.4685 25.0516 27.4685 24.717C27.4685 24.3824 27.1889 24.1006 26.8568 24.1006Z" fill="white"/>
<path d="M9.37897 20.2266C7.98077 20.2266 6.84473 21.3713 6.84473 22.7802C6.84473 24.1891 7.98077 25.3339 9.37897 25.3339C10.7772 25.3339 11.9132 24.1891 11.9132 22.7802C11.9132 21.3713 10.7772 20.2266 9.37897 20.2266ZM9.37897 24.1011C8.66239 24.1011 8.06816 23.5023 8.06816 22.7802C8.06816 22.0582 8.66239 21.4594 9.37897 21.4594C10.0956 21.4594 10.6898 22.0582 10.6898 22.7802C10.6898 23.5023 10.0956 24.1011 9.37897 24.1011Z" fill="white"/>
<path d="M29.915 22.7802C29.915 24.1891 31.0511 25.3339 32.4493 25.3339C33.8475 25.3339 34.9835 24.1891 34.9835 22.7802C34.9835 21.3713 33.8475 20.2266 32.4493 20.2266C31.0511 20.2266 29.915 21.3713 29.915 22.7802ZM31.1385 22.7802C31.1385 22.0582 31.7327 21.4594 32.4493 21.4594C33.1659 21.4594 33.7601 22.0582 33.7601 22.7802C33.7601 23.5023 33.1659 24.1011 32.4493 24.1011C31.7327 24.1011 31.1385 23.5023 31.1385 22.7802Z" fill="white"/>
<path d="M32.6592 16.7751C32.1698 16.5285 31.7853 16.4581 31.5756 17.4619H24.4447H17.4013H10.2704C10.0607 16.4757 9.65871 16.5461 9.18681 16.7751C8.71492 17.004 9.01204 17.867 9.18681 18.272C9.36159 18.6771 10.2704 18.6947 10.2704 18.6947H17.4013H24.4272H31.5581C31.5581 18.6947 32.4669 18.6771 32.6417 18.272C32.834 17.867 33.1311 17.0216 32.6592 16.7751Z" fill="white"/>
<path d="M39.3725 27.3689L39.3725 27.3689C39.4825 26.6918 39.077 26.0194 38.4248 25.7961L39.3725 27.3689ZM39.3725 27.3689L39.3715 27.3753M39.3725 27.3689L39.3715 27.3753M39.3715 27.3753C38.7964 31.1765 37.0549 34.6351 34.3481 37.3627C34.1176 37.595 33.8893 37.8246 33.6652 38.0182L33.6652 38.0181M39.3715 27.3753L33.6652 38.0181M33.6652 38.0181L33.662 38.021M33.6652 38.0181L33.662 38.021M33.662 38.021C33.3691 38.2776 33.0201 38.4006 32.6766 38.4006C32.3358 38.4006 31.9896 38.2795 31.6982 38.0269M33.662 38.021L31.6982 38.0269M31.6982 38.0269C31.4547 37.7991 31.2209 37.5801 31.0052 37.3627C28.2991 34.6359 26.5578 31.1783 25.9822 27.3783C25.8828 26.6689 26.2842 26.0167 26.9285 25.7961L31.6982 38.0269ZM32.6766 24.8422C30.7152 24.8422 28.7709 25.1659 26.9285 25.7961L32.6766 24.8422ZM32.6766 24.8422C34.6553 24.8422 36.5821 25.1658 38.4247 25.7961L32.6766 24.8422Z" fill="#16705B" stroke="white" stroke-width="1.2"/>
<path d="M32.7663 33.0696L30.1097 30.6744C29.9699 30.5511 29.9699 30.3398 30.0747 30.2165C30.1796 30.0932 30.4068 30.0756 30.5292 30.1989L32.6789 32.1362L35.9472 28.1208C36.0521 27.9799 36.2618 27.9623 36.4016 28.0679C36.5414 28.1736 36.5589 28.3849 36.4541 28.5258L32.7663 33.0696Z" fill="white" stroke="white" stroke-width="0.75"/>
</g>
<defs>
<clipPath id="clip0">
<rect width="37" height="32" fill="white" transform="translate(3 7)"/>
</clipPath>
</defs>
</svg>
