<svg width="31" height="45" viewBox="0 0 31 45" fill="none" xmlns="http://www.w3.org/2000/svg">
<g clip-path="url(#clip0)">
<path d="M17.9807 11.7598H8.62598C5.81148 11.7598 3.52344 14.022 3.52344 16.8141V30.0003C3.52344 32.7924 5.81148 35.0546 8.62598 35.0546H17.9807C20.7952 35.0546 23.0832 32.7924 23.0832 30.0003V16.8141C23.0832 14.022 20.7952 11.7598 17.9807 11.7598ZM21.8076 30.0003C21.8076 32.0791 20.0865 33.791 17.9807 33.791H8.62598C6.52017 33.791 4.79907 32.0994 4.79907 30.0003V16.8141C4.79907 14.7353 6.52017 13.0234 8.62598 13.0234H17.9807C20.0865 13.0234 21.8076 14.7149 21.8076 16.8141V30.0003Z" fill="white"/>
<path d="M9.01051 28.5116H18.1019C18.4462 28.5116 18.7296 28.2263 18.7296 27.8798C18.7296 27.5334 18.4462 27.248 18.1019 27.248H9.01051C8.66629 27.248 8.38281 27.5334 8.38281 27.8798C8.38281 28.2263 8.64604 28.5116 9.01051 28.5116Z" fill="white"/>
<path d="M9.57751 30.0207C9.13205 30.0207 8.76758 29.6538 8.76758 29.2055V27.8604H10.3874V29.2055C10.3874 29.6538 10.023 30.0207 9.57751 30.0207Z" fill="white"/>
<path d="M11.481 2.09961H10.2256V7.39852H11.481V2.09961Z" fill="white"/>
<path d="M17.0698 2.09961H15.8145V7.39852H17.0698V2.09961Z" fill="white"/>
<path d="M6.70215 41.7596H5.97321C4.61658 41.7596 3.50293 40.6387 3.50293 39.2732V38.458H9.17243V39.2732C9.17243 40.6387 8.07902 41.7596 6.70215 41.7596Z" fill="white"/>
<path d="M23.9941 9.5791V10.8427C24.7838 10.8427 25.4115 11.4745 25.4115 12.2693V35.2381C25.4115 36.3794 24.4801 37.3169 23.3462 37.3169H13.627H13.0398H3.32071C2.18681 37.3169 1.25539 36.3794 1.25539 35.2381V12.2693C1.25539 11.4745 1.88308 10.8427 2.67276 10.8427H3.25996V9.5791H2.67276C1.19464 9.5791 0 10.7815 0 12.2693V35.2381C0 37.0927 1.49837 38.5805 3.32071 38.5805H13.0398H13.627H23.3462C25.1888 38.5805 26.6669 37.0723 26.6669 35.2381V12.2693C26.6871 10.7815 25.4722 9.5791 23.9941 9.5791Z" fill="white"/>
<path d="M19.9644 41.7596H20.6934C22.05 41.7596 23.1636 40.6387 23.1636 39.2732V38.458H17.4941V39.2732C17.4941 40.6387 18.6078 41.7596 19.9644 41.7596Z" fill="#1C3834"/>
<path d="M20.0055 40.5163H20.8559C21.4634 40.5163 21.9493 40.0272 21.9493 39.4158V38.6006H18.9121V39.4158C18.9121 40.0068 19.4183 40.5163 20.0055 40.5163Z" fill="#BFDCA9"/>
<path d="M22.8599 7.03125H13.7482H13.5659H4.45425C3.32035 7.03125 2.40918 7.94837 2.40918 9.08967V10.1495C2.40918 13.8179 5.36542 16.7731 8.98985 16.7731H13.5659H13.7482H18.3243C21.9689 16.7731 24.9049 13.7976 24.9049 10.1495V9.08967C24.8847 7.94837 23.9735 7.03125 22.8599 7.03125ZM23.6293 10.1291C23.6293 13.0842 21.24 15.4891 18.304 15.4891H13.7279H13.5457H8.98985C6.05386 15.4891 3.66457 13.0842 3.66457 10.1291V9.06929C3.66457 8.6413 4.00879 8.29484 4.434 8.29484H13.5457H13.7279H22.8396C23.2648 8.29484 23.6091 8.6413 23.6091 9.06929V10.1291H23.6293Z" fill="white"/>
<path d="M17.3732 2.6087H9.92186C9.21317 2.6087 8.62598 2.01766 8.62598 1.30435C8.62598 0.591033 9.21317 0 9.92186 0H17.3732C18.0819 0 18.6691 0.591033 18.6691 1.30435C18.6488 2.01766 18.0819 2.6087 17.3732 2.6087Z" fill="white"/>
<path d="M30.358 31.7226L30.358 31.7226C30.4911 30.9051 30.0009 30.0933 29.2099 29.8233L30.358 31.7226ZM30.358 31.7226L30.357 31.729M30.358 31.7226L30.357 31.729M30.357 31.729C29.6933 36.104 27.6834 40.0851 24.5593 43.2247C24.2949 43.4904 24.0301 43.7561 23.7695 43.9806L23.7695 43.9806M30.357 31.729L23.7695 43.9806M23.7695 43.9806L23.7663 43.9834M23.7695 43.9806L23.7663 43.9834M23.7663 43.9834C23.4134 44.2917 22.9912 44.4408 22.5743 44.4408C22.16 44.4408 21.7406 44.2936 21.3892 43.9894M23.7663 43.9834L21.3892 43.9894M21.3892 43.9894C21.1091 43.728 20.8389 43.4756 20.5892 43.2247C17.4658 40.0858 15.4562 36.1058 14.792 31.732C14.672 30.8796 15.1556 30.0906 15.9387 29.8233L21.3892 43.9894ZM22.5743 28.725C20.31 28.725 18.0656 29.0977 15.9388 29.8232L22.5743 28.725ZM22.5743 28.725C24.8583 28.725 27.0827 29.0976 29.2098 29.8232L22.5743 28.725Z" fill="#106D5A" stroke="white" stroke-width="1.2"/>
<path d="M21.7869 38.56L18.7091 35.7883C18.5471 35.6456 18.5471 35.401 18.6686 35.2584C18.7901 35.1157 19.0533 35.0953 19.1951 35.238L21.6856 37.4798L25.472 32.8331C25.5935 32.6701 25.8365 32.6497 25.9985 32.772C26.1605 32.8943 26.1807 33.1388 26.0592 33.3019L21.7869 38.56Z" fill="white" stroke="white" stroke-width="0.75"/>
</g>
<defs>
<clipPath id="clip0">
<rect width="31" height="45" fill="white"/>
</clipPath>
</defs>
</svg>
