<svg width="90" height="30" viewBox="0 0 90 30" fill="none" xmlns="http://www.w3.org/2000/svg">
<g clip-path="url(#clip0)">
<path d="M39.0441 27.0189H35.0972V8.04358H39.0441V27.0189Z" fill="#106D5A"/>
<path d="M50.8851 19.4527C50.8851 18.5457 50.6252 17.8057 50.0816 17.2568C49.5616 16.7078 48.8289 16.4453 47.9545 16.4453C47.2218 16.4453 46.4655 16.5169 45.7565 16.6601C45.0238 16.8033 44.362 17.0181 43.7712 17.3045V27.0189H39.9424V15.7769C40.4387 15.3234 41.0059 14.9177 41.6441 14.5597C42.2822 14.1778 42.944 13.8675 43.6294 13.6049C44.3148 13.3424 45.0238 13.1276 45.7801 12.9843C46.5128 12.8411 47.2454 12.7695 47.9545 12.7695C48.9707 12.7695 49.8925 12.9366 50.7433 13.2469C51.5942 13.5572 52.3032 14.0107 52.8941 14.6074C53.4849 15.2041 53.934 15.8963 54.2649 16.7317C54.5957 17.5671 54.7612 18.4741 54.7612 19.4765V27.0428H50.9088V19.4527H50.8851Z" fill="#106D5A"/>
<path d="M64.9475 7.59009C66.4365 7.59009 67.7364 7.85264 68.8945 8.37774C70.0526 8.90285 71.0216 9.61889 71.8251 10.5259C72.6287 11.4329 73.2432 12.4831 73.645 13.6765C74.0704 14.8699 74.2831 16.1588 74.2831 17.5193C74.2831 18.9037 74.0704 20.1926 73.645 21.386C73.2196 22.6033 72.6051 23.6535 71.8251 24.5605C71.0216 25.4675 70.0526 26.1835 68.8945 26.7086C67.7364 27.2337 66.4128 27.4963 64.9475 27.4963C63.4822 27.4963 62.1823 27.2337 61.0242 26.7086C59.8897 26.1835 58.9207 25.4675 58.1172 24.5605C57.3372 23.6535 56.7227 22.5794 56.2973 21.3621C55.8719 20.1448 55.6592 18.8559 55.6592 17.4954C55.6592 16.1349 55.8719 14.8461 56.2973 13.6526C56.7227 12.4592 57.3136 11.409 58.1172 10.502C58.8971 9.59503 59.8661 8.87898 61.0242 8.35387C62.1823 7.85264 63.4822 7.59009 64.9475 7.59009ZM64.9475 24.107C65.7511 24.107 66.4838 23.9399 67.1455 23.6296C67.8073 23.2954 68.3745 22.8658 68.8708 22.2691C69.3435 21.6963 69.7217 21.0041 69.9817 20.1926C70.2416 19.381 70.3834 18.4979 70.3834 17.5193C70.3834 16.5646 70.2416 15.6814 69.9817 14.8938C69.7217 14.0823 69.3435 13.414 68.8708 12.8172C68.3981 12.2444 67.8073 11.7909 67.1455 11.4568C66.4838 11.1226 65.7511 10.9794 64.9475 10.9794C64.1676 10.9794 63.4349 11.1465 62.7731 11.4568C62.1114 11.7909 61.5678 12.2205 61.0951 12.8172C60.6224 13.3901 60.2679 14.0823 60.0079 14.8938C59.7479 15.7053 59.6061 16.5646 59.6061 17.5193C59.6061 18.4979 59.7479 19.381 60.0079 20.1926C60.2679 21.0041 60.646 21.6963 61.0951 22.2691C61.5678 22.8419 62.135 23.2954 62.7731 23.6296C63.4349 23.9399 64.1676 24.107 64.9475 24.107Z" fill="#106D5A"/>
<path d="M86.1476 19.4527C86.1476 18.5457 85.8877 17.8057 85.3441 17.2568C84.8241 16.7078 84.0914 16.4453 83.217 16.4453C82.4843 16.4453 81.728 16.5169 81.019 16.6601C80.2863 16.8033 79.6245 17.0181 79.0337 17.3045V27.0189H75.2285V15.7769C75.7248 15.3234 76.2921 14.9177 76.9302 14.5597C77.5683 14.1778 78.2301 13.8675 78.9155 13.6049C79.6009 13.3424 80.3099 13.1276 81.0662 12.9843C81.7989 12.8411 82.5316 12.7695 83.2406 12.7695C84.2569 12.7695 85.1786 12.9366 86.0295 13.2469C86.8803 13.5572 87.5893 14.0107 88.1802 14.6074C88.7711 15.2041 89.2201 15.8963 89.551 16.7317C89.8819 17.5671 90.0473 18.4741 90.0473 19.4765V27.0428H86.1949V19.4527H86.1476Z" fill="#106D5A"/>
<path fill-rule="evenodd" clip-rule="evenodd" d="M18.3167 24.9901C18.5058 24.7992 18.7185 24.6321 18.9076 24.4173C21.1056 22.1975 22.6418 19.3333 23.1854 16.1111C23.3272 15.228 23.4217 14.321 23.4217 13.414C23.4217 13.0798 23.4217 12.7695 23.3981 12.4593C23.1618 8.54486 21.4837 5.01235 18.9076 2.4107C18.7185 2.21975 18.5294 2.02881 18.3167 1.83786C17.6549 1.24115 16.9459 0.692181 16.1896 0.214815C15.7405 -0.0716049 15.1497 -0.0716049 14.677 0.214815C13.9207 0.692181 13.2117 1.24115 12.5499 1.83786C12.3608 2.02881 12.1481 2.19588 11.959 2.4107C9.8083 4.58272 8.27206 7.39918 7.70483 10.5498C7.94118 10.4305 8.20116 10.3111 8.4375 10.1918C11.7463 8.68807 17.3477 8.23457 20.0657 10.9556C18.6003 10.4782 17.0404 10.2395 15.4097 10.2395C13.7789 10.2395 12.219 10.5021 10.7537 10.9556C9.59559 11.3374 8.48477 11.8387 7.44485 12.4593C6.3813 13.1037 5.38866 13.8914 4.49055 14.7984C2.31618 16.9942 0.779937 19.8823 0.236345 23.1045C0.0945378 23.9877 0 24.8946 0 25.8016C0 25.8494 0 25.8971 0 25.9687C0 26.47 0.283613 26.9235 0.732668 27.1621C1.55987 27.6156 2.43435 27.9737 3.33246 28.2601C4.79779 28.7374 6.35767 28.9761 7.98845 28.9761C10.021 28.9761 11.959 28.5704 13.7553 27.8543C13.5189 27.6872 13.2826 27.544 13.0462 27.377C9.50105 24.8469 6.61765 20.8848 7.65756 16.135C8.22479 19.3572 9.76103 22.2214 11.9354 24.4412C12.1245 24.6321 12.3136 24.823 12.5263 25.014C13.4007 25.8016 14.3697 26.5177 15.4097 27.0905C17.6077 28.3078 20.1602 29.0239 22.8545 29.0239C24.4853 29.0239 26.0452 28.7613 27.5105 28.3078C28.4086 28.0214 29.2831 27.6395 30.1103 27.2099C30.5593 26.9712 30.843 26.5177 30.843 25.9926C30.843 25.9449 30.843 25.8971 30.843 25.8494C30.843 24.9185 30.7721 24.0354 30.6066 23.1523C30.0394 19.93 28.5032 17.0658 26.3288 14.8461C25.9034 14.4165 25.4307 13.9868 24.958 13.6049C24.9107 18.2831 22.9018 23.1045 18.3167 24.9901ZM20.2784 14.3687C20.042 17.4239 18.7185 20.1926 16.7096 22.2453C16.3078 22.651 15.8824 23.0329 15.4333 23.3671C14.9842 23.0091 14.5588 22.651 14.157 22.2453C12.1245 20.1926 10.8009 17.4477 10.5882 14.3687C12.0772 13.7243 13.7316 13.3663 15.4569 13.3663C17.1586 13.3424 18.7894 13.7004 20.2784 14.3687Z" fill="#106D5A"/>
<path fill-rule="evenodd" clip-rule="evenodd" d="M18.3166 24.9901C18.5057 24.7992 18.7184 24.6321 18.9075 24.4411C21.1055 22.2214 22.6418 19.3572 23.1853 16.135C23.209 15.9918 23.2326 15.8247 23.2562 15.6815C22.8072 13.7481 21.6491 12.0774 20.0656 10.9556C18.6003 10.4782 17.0404 10.2395 15.4332 10.2395C13.9206 10.2395 12.4553 10.4543 11.0609 10.8839C9.26465 12.1012 8.01202 13.8914 7.68114 16.135C7.70477 16.0634 7.6575 16.2066 7.68114 16.135C8.24837 19.3572 9.78461 22.2214 11.959 24.4411C12.1008 24.5844 12.2662 24.7514 12.4317 24.8946C13.377 25.3004 14.417 25.5152 15.5041 25.5152C16.4968 25.5152 17.4422 25.3243 18.3166 24.9901ZM14.1333 22.2214C12.1008 20.1687 10.7773 17.4239 10.5645 14.3449C12.0535 13.7004 13.7079 13.3424 15.4332 13.3424C17.1586 13.3424 18.813 13.7004 20.3019 14.3449C20.0656 17.4 18.7421 20.1687 16.7331 22.2214C16.3314 22.6272 15.9059 23.0091 15.4569 23.3432C14.9606 23.0091 14.5351 22.6272 14.1333 22.2214Z" fill="#106D5A"/>
<g opacity="0.6">
<path opacity="0.6" fill-rule="evenodd" clip-rule="evenodd" d="M18.3166 24.9901C18.5057 24.7992 18.7184 24.6321 18.9075 24.4411C21.1055 22.2214 22.6418 19.3572 23.1853 16.135C23.209 15.9918 23.2326 15.8247 23.2562 15.6815C22.8072 13.7481 21.6491 12.0774 20.0656 10.9556C18.6003 10.4782 17.0404 10.2395 15.4332 10.2395C13.9206 10.2395 12.4553 10.4543 11.0609 10.8839C9.26465 12.1012 8.01202 13.8914 7.68114 16.135C7.70477 16.0634 7.6575 16.2066 7.68114 16.135C8.24837 19.3572 9.78461 22.2214 11.959 24.4411C12.1008 24.5844 12.2662 24.7514 12.4317 24.8946C13.377 25.3004 14.417 25.5152 15.5041 25.5152C16.4968 25.5152 17.4422 25.3243 18.3166 24.9901ZM14.1333 22.2214C12.1008 20.1687 10.7773 17.4239 10.5645 14.3449C12.0535 13.7004 13.7079 13.3424 15.4332 13.3424C17.1586 13.3424 18.813 13.7004 20.3019 14.3449C20.0656 17.4 18.7421 20.1687 16.7331 22.2214C16.3314 22.6272 15.9059 23.0091 15.4569 23.3432C14.9606 23.0091 14.5351 22.6272 14.1333 22.2214Z" fill="#106D5A"/>
</g>
</g>
<defs>
<clipPath id="clip0">
<rect width="90" height="30" fill="white"/>
</clipPath>
</defs>
</svg>
