<svg height='100px' width='100px'  fill="#000000" xmlns="http://www.w3.org/2000/svg" viewBox="0 0 89.57 82.01" x="0px" y="0px"><title>Send</title><g data-name="Layer 2"><g data-name="Layer 1"><path d="M87.93,1.59A5.47,5.47,0,0,0,81.83.48h0L3.29,35.39a5.55,5.55,0,0,0-.22,10L23.71,55.74V76.5a5.41,5.41,0,0,0,3.83,5.24,5.76,5.76,0,0,0,1.72.27,5.39,5.39,0,0,0,4.44-2.34l9.9-14,9.82,4.91a7.61,7.61,0,0,0,3.4.79,7.5,7.5,0,0,0,2.6-.46,7.6,7.6,0,0,0,4.36-4.13L89.12,7.67A5.47,5.47,0,0,0,87.93,1.59ZM5,40.44A.52.52,0,0,1,5.33,40L78,7.64,25.86,51.23,5.3,41A.53.53,0,0,1,5,40.44ZM29.62,76.78a.5.5,0,0,1-.91-.28V58.24l10.37,5.18Zm29.56-12a2.56,2.56,0,0,1-3.52,1.29L30.74,53.66,82.5,10.41Z"></path></g></g></svg>