<svg xmlns="http://www.w3.org/2000/svg" fill="" viewBox="0 0 32 40" x="0px" y="0px"><title>39-Minimize</title><g data-name="39-Minimize"><path d="M31,0H9A1,1,0,0,0,8,1V8H1A1,1,0,0,0,0,9V31a1,1,0,0,0,1,1H23a1,1,0,0,0,1-1V24h7a1,1,0,0,0,1-1V1A1,1,0,0,0,31,0ZM22,30H2V10H8V23a1,1,0,0,0,1,1H22Zm8-8H10V2H30Z"/></g><text x="0" y="47" fill="#000000" font-size="5px" font-weight="bold" font-family="'Helvetica Neue', Helvetica, Arial-Unicode, Arial, Sans-serif">Created by Loudoun Design Co.</text><text x="0" y="52" fill="#ffffff" font-size="5px" font-weight="bold" font-family="'Helvetica Neue', Helvetica, Arial-Unicode, Arial, Sans-serif">from the Noun Project</text></svg>