<svg width="59" height="54" viewBox="0 0 59 54" fill="none" xmlns="http://www.w3.org/2000/svg">
<path fill-rule="evenodd" clip-rule="evenodd" d="M35.0067 46.6425C35.4 46.3327 35.7933 45.9455 36.108 45.5583C40.2773 41.4536 43.2667 36.1097 44.2893 30.0688C44.604 28.4425 44.7613 26.7386 44.7613 25.0348C44.7613 24.4152 44.7613 23.8731 44.6827 23.2535C44.2107 15.9735 41.064 9.39046 36.108 4.5113C35.7147 4.12406 35.4 3.81427 35.0067 3.42704C33.748 2.34278 32.4107 1.25852 30.916 0.406597C30.0507 -0.135532 28.9493 -0.135532 28.0053 0.406597C26.5893 1.33596 25.1733 2.34278 23.9147 3.42704C23.5213 3.73682 23.128 4.12406 22.8133 4.5113C18.7227 8.53855 15.812 13.8049 14.7107 19.6909C15.1827 19.4586 15.6547 19.2262 16.1267 18.9939C22.42 16.2058 33.1187 15.3539 38.3893 20.388C35.5573 19.536 32.568 19.0714 29.5 19.0714C26.432 19.0714 23.4427 19.536 20.6107 20.388C18.408 21.085 16.284 22.0143 14.3173 23.176C12.272 24.4152 10.384 25.8867 8.65333 27.5131C4.484 31.6178 1.49467 36.9616 0.471999 43.0025C0.157332 44.6289 0 46.3327 0 48.0366C0 48.114 0 48.2689 0 48.3464C0 49.2757 0.550666 50.1276 1.416 50.5923C2.98933 51.4442 4.64133 52.1413 6.372 52.6834C9.204 53.5353 12.1933 54 15.2613 54C19.116 54 22.892 53.2255 26.2747 51.9089C25.8027 51.5991 25.3307 51.2893 24.9373 50.9796C18.172 46.2553 12.744 38.8978 14.7107 29.9914C15.812 35.9548 18.7227 41.3761 22.892 45.4808C23.2853 45.8681 23.6 46.1778 23.9933 46.5651C25.6453 48.0366 27.5333 49.3532 29.5 50.4374C33.748 52.7608 38.5467 54 43.7387 54C46.8067 54 49.796 53.5353 52.628 52.6834C54.3587 52.1413 56.0107 51.4442 57.584 50.5923C58.4493 50.1276 59 49.2757 59 48.3464C59 48.2689 59 48.1915 59 48.0366C59 46.3327 58.8427 44.6289 58.528 43.0025C57.4267 37.1165 54.516 31.6952 50.3467 27.5905C49.4813 26.7386 48.616 26.0416 47.7507 25.2671C47.5933 34.0961 43.8173 43.08 35.0067 46.6425ZM38.7827 26.8161C38.3893 32.5471 35.7933 37.6587 31.9387 41.4536C31.152 42.228 30.3653 42.9251 29.5 43.5446C28.6347 42.9251 27.848 42.228 27.0613 41.4536C23.2067 37.6587 20.6893 32.4697 20.2173 26.8161C23.0493 25.5769 26.196 24.9573 29.5 24.9573C32.804 24.8799 35.872 25.5769 38.7827 26.8161Z" fill="#106D5A"/>
</svg>
