<svg width="94" height="31" viewBox="0 0 94 31" fill="none" xmlns="http://www.w3.org/2000/svg">
<path d="M40.7951 28.3629H36.6777V8.56836H40.7951V28.3629Z" fill="#106D5A"/>
<path d="M53.1476 20.4707C53.1476 19.5245 52.8764 18.7527 52.3093 18.18C51.7669 17.6073 51.0026 17.3334 50.0904 17.3334C49.3261 17.3334 48.5371 17.4081 47.7975 17.5575C47.0332 17.7069 46.3429 17.931 45.7265 18.2298V28.3636H41.7324V16.6363C42.2502 16.1632 42.8419 15.7399 43.5076 15.3664C44.1732 14.9681 44.8636 14.6444 45.5786 14.3705C46.2936 14.0966 47.0332 13.8725 47.8222 13.7231C48.5865 13.5737 49.3508 13.499 50.0904 13.499C51.1506 13.499 52.1121 13.6733 52.9997 13.997C53.8872 14.3207 54.6269 14.7938 55.2433 15.4162C55.8596 16.0387 56.3281 16.7608 56.6732 17.6322C57.0184 18.5037 57.191 19.4498 57.191 20.4956V28.3885H53.1722V20.4707H53.1476Z" fill="#106D5A"/>
<path d="M67.8163 8.0957C69.3695 8.0957 70.7256 8.36959 71.9336 8.91736C73.1417 9.46513 74.1526 10.2121 74.9908 11.1583C75.8291 12.1044 76.4701 13.1999 76.8893 14.4449C77.333 15.6898 77.5549 17.0344 77.5549 18.4536C77.5549 19.8977 77.333 21.2422 76.8893 22.4872C76.4455 23.757 75.8044 24.8526 74.9908 25.7987C74.1526 26.7449 73.1417 27.4918 71.9336 28.0396C70.7256 28.5874 69.3449 28.8613 67.8163 28.8613C66.2877 28.8613 64.9317 28.5874 63.7236 28.0396C62.5402 27.4918 61.5293 26.7449 60.6911 25.7987C59.8774 24.8526 59.2364 23.7321 58.7926 22.4623C58.3488 21.1925 58.127 19.8479 58.127 18.4287C58.127 17.0095 58.3488 15.6649 58.7926 14.42C59.2364 13.1751 59.8528 12.0795 60.6911 11.1334C61.5047 10.1872 62.5155 9.44024 63.7236 8.89246C64.9317 8.36959 66.2877 8.0957 67.8163 8.0957ZM67.8163 25.3256C68.6546 25.3256 69.4189 25.1514 70.1092 24.8277C70.7995 24.4791 71.3912 24.0309 71.909 23.4084C72.4021 22.8109 72.7966 22.0888 73.0678 21.2422C73.339 20.3957 73.4869 19.4744 73.4869 18.4536C73.4869 17.4576 73.339 16.5364 73.0678 15.7147C72.7966 14.8682 72.4021 14.171 71.909 13.5485C71.4159 12.951 70.7995 12.4779 70.1092 12.1293C69.4189 11.7807 68.6546 11.6313 67.8163 11.6313C67.0027 11.6313 66.2384 11.8056 65.5481 12.1293C64.8577 12.4779 64.2907 12.9261 63.7976 13.5485C63.3045 14.1461 62.9346 14.8682 62.6634 15.7147C62.3922 16.5613 62.2443 17.4576 62.2443 18.4536C62.2443 19.4744 62.3922 20.3957 62.6634 21.2422C62.9346 22.0888 63.3291 22.8109 63.7976 23.4084C64.2907 24.006 64.8824 24.4791 65.5481 24.8277C66.2384 25.1514 67.0027 25.3256 67.8163 25.3256Z" fill="#106D5A"/>
<path d="M89.9315 20.4707C89.9315 19.5245 89.6603 18.7527 89.0933 18.18C88.5509 17.6073 87.7866 17.3334 86.8744 17.3334C86.1101 17.3334 85.3211 17.4081 84.5814 17.5575C83.8171 17.7069 83.1268 17.931 82.5104 18.2298V28.3636H78.541V16.6363C79.0588 16.1632 79.6505 15.7399 80.3162 15.3664C80.9818 14.9681 81.6722 14.6444 82.3872 14.3705C83.1022 14.0966 83.8418 13.8725 84.6308 13.7231C85.3951 13.5737 86.1594 13.499 86.899 13.499C87.9592 13.499 88.9207 13.6733 89.8083 13.997C90.6958 14.3207 91.4355 14.7938 92.0519 15.4162C92.6682 16.0387 93.1367 16.7608 93.4818 17.6322C93.827 18.5037 93.9996 19.4498 93.9996 20.4956V28.3885H89.9809V20.4707H89.9315Z" fill="#106D5A"/>
<path fill-rule="evenodd" clip-rule="evenodd" d="M19.1739 26.2467C19.3711 26.0475 19.593 25.8733 19.7903 25.6492C22.0832 23.3336 23.6857 20.3457 24.2528 16.9844C24.4007 16.0631 24.4993 15.117 24.4993 14.1708C24.4993 13.8223 24.4993 13.4986 24.4747 13.1749C24.2281 9.09149 22.4776 5.40647 19.7903 2.69251C19.593 2.49332 19.3958 2.29413 19.1739 2.09494C18.4835 1.47247 17.7439 0.899799 16.9549 0.401823C16.4865 0.103038 15.8701 0.103038 15.377 0.401823C14.5881 0.899799 13.8484 1.47247 13.1581 2.09494C12.9609 2.29413 12.739 2.46842 12.5417 2.69251C10.2982 4.9583 8.69559 7.89635 8.10387 11.183C8.35042 11.0585 8.62162 10.934 8.86817 10.8095C12.3198 9.24088 18.163 8.76781 20.9983 11.6063C19.4697 11.1083 17.8425 10.8593 16.1413 10.8593C14.4402 10.8593 12.8129 11.1332 11.2843 11.6063C10.0763 12.0046 8.91748 12.5275 7.83267 13.1749C6.7232 13.8472 5.6877 14.6688 4.75082 15.615C2.48258 17.9057 0.880015 20.9184 0.312954 24.2797C0.165025 25.201 0.0664062 26.1471 0.0664062 27.0933C0.0664062 27.1431 0.0664062 27.1929 0.0664062 27.2676C0.0664062 27.7905 0.362264 28.2635 0.830705 28.5125C1.69362 28.9856 2.60585 29.3591 3.54273 29.6579C5.07133 30.1558 6.69855 30.4048 8.39973 30.4048C10.52 30.4048 12.5417 29.9816 14.4155 29.2346C14.169 29.0603 13.9224 28.9109 13.6759 28.7366C9.97764 26.0973 6.96975 21.9642 8.05456 17.0093C8.64628 20.3706 10.2488 23.3585 12.5171 25.6741C12.7143 25.8733 12.9116 26.0724 13.1335 26.2716C14.0457 27.0933 15.0565 27.8403 16.1413 28.4378C18.4342 29.7077 21.097 30.4546 23.9076 30.4546C25.6088 30.4546 27.236 30.1807 28.7646 29.7077C29.7015 29.4089 30.6137 29.0105 31.4766 28.5623C31.9451 28.3133 32.2409 27.8403 32.2409 27.2925C32.2409 27.2427 32.2409 27.1929 32.2409 27.1431C32.2409 26.172 32.167 25.2508 31.9944 24.3295C31.4027 20.9682 29.8001 17.9804 27.5319 15.6648C27.0881 15.2166 26.595 14.7684 26.1019 14.37C26.0526 19.2502 23.9569 24.2797 19.1739 26.2467ZM21.2202 15.1668C20.9737 18.3538 19.593 21.2421 17.4974 23.3834C17.0782 23.8067 16.6344 24.205 16.166 24.5536C15.6976 24.1801 15.2538 23.8067 14.8346 23.3834C12.7143 21.2421 11.3337 18.3787 11.1118 15.1668C12.665 14.4945 14.3908 14.121 16.1906 14.121C17.9658 14.0961 19.667 14.4696 21.2202 15.1668Z" fill="#106D5A"/>
<path fill-rule="evenodd" clip-rule="evenodd" d="M19.174 26.2468C19.3713 26.0476 19.5932 25.8733 19.7904 25.6741C22.0833 23.3586 23.6859 20.3707 24.2529 17.0094C24.2776 16.86 24.3022 16.6857 24.3269 16.5363C23.8585 14.5195 22.6504 12.7766 20.9985 11.6063C19.4699 11.1084 17.8427 10.8594 16.1662 10.8594C14.5883 10.8594 13.0597 11.0835 11.605 11.5316C9.73126 12.8015 8.42455 14.6689 8.07938 17.0094C8.10404 16.9347 8.05473 17.0841 8.07938 17.0094C8.6711 20.3707 10.2737 23.3586 12.5419 25.6741C12.6898 25.8235 12.8624 25.9978 13.035 26.1472C14.0212 26.5705 15.106 26.7946 16.2401 26.7946C17.2756 26.7946 18.2618 26.5954 19.174 26.2468ZM14.8101 23.3586C12.6898 21.2173 11.3092 18.3539 11.0873 15.142C12.6405 14.4697 14.3664 14.0962 16.1662 14.0962C17.966 14.0962 19.6918 14.4697 21.2451 15.142C20.9985 18.329 19.6178 21.2173 17.5222 23.3586C17.103 23.7818 16.6593 24.1802 16.1908 24.5288C15.6731 24.1802 15.2293 23.7818 14.8101 23.3586Z" fill="#106D5A"/>
<g opacity="0.6">
<path opacity="0.6" fill-rule="evenodd" clip-rule="evenodd" d="M19.174 26.2468C19.3713 26.0476 19.5932 25.8733 19.7904 25.6741C22.0833 23.3586 23.6859 20.3707 24.2529 17.0094C24.2776 16.86 24.3022 16.6857 24.3269 16.5363C23.8585 14.5195 22.6504 12.7766 20.9985 11.6063C19.4699 11.1084 17.8427 10.8594 16.1662 10.8594C14.5883 10.8594 13.0597 11.0835 11.605 11.5316C9.73126 12.8015 8.42455 14.6689 8.07938 17.0094C8.10404 16.9347 8.05473 17.0841 8.07938 17.0094C8.6711 20.3707 10.2737 23.3586 12.5419 25.6741C12.6898 25.8235 12.8624 25.9978 13.035 26.1472C14.0212 26.5705 15.106 26.7946 16.2401 26.7946C17.2756 26.7946 18.2618 26.5954 19.174 26.2468ZM14.8101 23.3586C12.6898 21.2173 11.3092 18.3539 11.0873 15.142C12.6405 14.4697 14.3664 14.0962 16.1662 14.0962C17.966 14.0962 19.6918 14.4697 21.2451 15.142C20.9985 18.329 19.6178 21.2173 17.5222 23.3586C17.103 23.7818 16.6593 24.1802 16.1908 24.5288C15.6731 24.1802 15.2293 23.7818 14.8101 23.3586Z" fill="#106D5A"/>
</g>
</svg>
