<svg width="375" height="812" viewBox="0 0 375 812" fill="none" xmlns="http://www.w3.org/2000/svg">
<g clip-path="url(#clip0)">
<rect width="375" height="812" fill="white"/>
<path opacity="0.7" d="M227.499 239.5C212.999 286.5 132.281 240.781 90.999 255C51.3493 268.657 69.4341 348.5 38.999 348.5C-23.1245 348.5 -56.1953 239.145 -56.1953 176.983C-38.589 64.4306 69.0203 90.1259 129.708 106.773C196.401 131.021 234.499 186.5 227.499 239.5Z" fill="#E3F3DC"/>
<path opacity="0.7" d="M403 382.25C403 418.77 326.968 434 290.519 434C254.07 434 244 379.519 244 342.999C254.33 276.874 317.466 291.97 353.072 301.751C392.202 315.996 403 345.731 403 382.25Z" fill="#E3F3DC"/>
</g>
<defs>
<clipPath id="clip0">
<rect width="375" height="812" fill="white"/>
</clipPath>
</defs>
</svg>
