<svg width="150" height="49" viewBox="0 0 150 49" fill="none" xmlns="http://www.w3.org/2000/svg">
<path d="M65.0724 45.0308H58.4941V13.4053H65.0724V45.0308Z" fill="white"/>
<path d="M84.8082 32.4208C84.8082 30.9091 84.3749 29.6759 83.4689 28.761C82.6023 27.846 81.3812 27.4084 79.9238 27.4084C78.7027 27.4084 77.4422 27.5278 76.2604 27.7665C75.0393 28.0051 73.9364 28.3632 72.9516 28.8405V45.0312H66.5703V26.2946C67.3975 25.5387 68.3429 24.8625 69.4064 24.2658C70.47 23.6293 71.5729 23.1121 72.7153 22.6745C73.8576 22.237 75.0393 21.8789 76.2998 21.6403C77.5209 21.4016 78.7421 21.2822 79.9238 21.2822C81.6176 21.2822 83.1538 21.5607 84.5719 22.0778C85.99 22.595 87.1717 23.3508 88.1564 24.3453C89.1412 25.3398 89.8896 26.4935 90.4411 27.8858C90.9926 29.2781 91.2683 30.7898 91.2683 32.4606V45.071H84.8476V32.4208H84.8082Z" fill="white"/>
<path d="M108.244 12.6499C110.726 12.6499 112.892 13.0875 114.822 13.9627C116.753 14.8378 118.368 16.0312 119.707 17.5429C121.046 19.0546 122.07 20.8049 122.74 22.7939C123.449 24.783 123.804 26.9311 123.804 29.1986C123.804 31.5059 123.449 33.654 122.74 35.643C122.031 37.6719 121.007 39.4222 119.707 40.9339C118.368 42.4455 116.753 43.6389 114.822 44.5141C112.892 45.3893 110.686 45.8269 108.244 45.8269C105.802 45.8269 103.636 45.3893 101.705 44.5141C99.8146 43.6389 98.1996 42.4455 96.8603 40.9339C95.5604 39.4222 94.5363 37.6321 93.8272 35.6033C93.1182 33.5745 92.7637 31.4263 92.7637 29.1588C92.7637 26.8913 93.1182 24.7432 93.8272 22.7542C94.5363 20.7651 95.521 19.0148 96.8603 17.5031C98.1602 15.9915 99.7752 14.7981 101.705 13.9229C103.636 13.0875 105.802 12.6499 108.244 12.6499ZM108.244 40.178C109.584 40.178 110.805 39.8996 111.908 39.3824C113.011 38.8255 113.956 38.1094 114.783 37.1149C115.571 36.1602 116.201 35.0066 116.634 33.654C117.068 32.3015 117.304 30.8296 117.304 29.1986C117.304 27.6074 117.068 26.1355 116.634 24.8227C116.201 23.4702 115.571 22.3564 114.783 21.3618C113.995 20.4071 113.011 19.6513 111.908 19.0943C110.805 18.5374 109.584 18.2987 108.244 18.2987C106.944 18.2987 105.723 18.5772 104.62 19.0943C103.517 19.6513 102.611 20.3673 101.824 21.3618C101.036 22.3166 100.445 23.4702 100.012 24.8227C99.5783 26.1753 99.3419 27.6074 99.3419 29.1986C99.3419 30.8296 99.5783 32.3015 100.012 33.654C100.445 35.0066 101.075 36.1602 101.824 37.1149C102.611 38.0697 103.557 38.8255 104.62 39.3824C105.723 39.8996 106.944 40.178 108.244 40.178Z" fill="white"/>
<path d="M143.577 32.4208C143.577 30.9091 143.144 29.6759 142.238 28.761C141.372 27.846 140.15 27.4084 138.693 27.4084C137.472 27.4084 136.211 27.5278 135.03 27.7665C133.809 28.0051 132.706 28.3632 131.721 28.8405V45.0312H125.379V26.2946C126.206 25.5387 127.151 24.8625 128.215 24.2658C129.279 23.6293 130.382 23.1121 131.524 22.6745C132.666 22.237 133.848 21.8789 135.108 21.6403C136.33 21.4016 137.551 21.2822 138.732 21.2822C140.426 21.2822 141.962 21.5607 143.381 22.0778C144.799 22.595 145.98 23.3508 146.965 24.3453C147.95 25.3398 148.698 26.4935 149.25 27.8858C149.801 29.2781 150.077 30.7898 150.077 32.4606V45.071H143.656V32.4208H143.577Z" fill="white"/>
<path fill-rule="evenodd" clip-rule="evenodd" d="M30.5278 41.6502C30.843 41.332 31.1975 41.0535 31.5126 40.6955C35.1759 36.9959 37.7363 32.2222 38.6423 26.8519C38.8787 25.38 39.0362 23.8683 39.0362 22.3567C39.0362 21.7997 39.0362 21.2826 38.9969 20.7654C38.6029 14.2414 35.8062 8.35391 31.5126 4.01783C31.1975 3.69959 30.8824 3.38134 30.5278 3.0631C29.4249 2.06859 28.2432 1.15364 26.9827 0.358025C26.2342 -0.119342 25.2495 -0.119342 24.4617 0.358025C23.2012 1.15364 22.0194 2.06859 20.9165 3.0631C20.6014 3.38134 20.2468 3.65981 19.9317 4.01783C16.3472 7.63786 13.7868 12.332 12.8414 17.583C13.2353 17.3841 13.6686 17.1852 14.0625 16.9863C19.5772 14.4801 28.9128 13.7243 33.4428 18.2593C31.0005 17.4636 28.4007 17.0658 25.6828 17.0658C22.9648 17.0658 20.365 17.5034 17.9228 18.2593C15.9926 18.8958 14.1413 19.7311 12.4081 20.7654C10.6355 21.8395 8.98109 23.1523 7.48424 24.6639C3.86029 28.3237 1.2999 33.1372 0.393908 38.5075C0.157563 39.9794 0 41.4911 0 43.0027C0 43.0823 0 43.1619 0 43.2812C0 44.1166 0.472689 44.8724 1.22111 45.2702C2.59979 46.0261 4.05725 46.6228 5.5541 47.1001C7.99632 47.8958 10.5961 48.2936 13.3141 48.2936C16.7017 48.2936 19.9317 47.6173 22.9254 46.4239C22.5315 46.1454 22.1376 45.9067 21.7437 45.6283C15.8351 41.4115 11.0294 34.808 12.7626 26.8916C13.708 32.262 16.2684 37.0357 19.8923 40.7353C20.2075 41.0535 20.5226 41.3717 20.8771 41.69C22.3346 43.0027 23.9496 44.1962 25.6828 45.1509C29.3461 47.1797 33.6003 48.3731 38.0909 48.3731C40.8088 48.3731 43.4086 47.9355 45.8508 47.1797C47.3477 46.7023 48.8052 46.0658 50.1838 45.3498C50.9323 44.952 51.4049 44.1962 51.4049 43.321C51.4049 43.2414 51.4049 43.1619 51.4049 43.0823C51.4049 41.5309 51.2868 40.059 51.011 38.5871C50.0657 33.2167 47.5053 28.4431 43.8813 24.7435C43.1723 24.0274 42.3845 23.3114 41.5966 22.6749C41.5179 30.4719 38.1696 38.5075 30.5278 41.6502ZM33.7973 23.9479C33.4034 29.0398 31.1975 33.6543 27.8493 37.0754C27.1796 37.7517 26.4706 38.3882 25.7222 38.9451C24.9737 38.3484 24.2647 37.7517 23.5951 37.0754C20.2075 33.6543 18.0016 29.0796 17.6471 23.9479C20.1287 22.8738 22.886 22.2771 25.7616 22.2771C28.5977 22.2373 31.3157 22.834 33.7973 23.9479Z" fill="white"/>
<path fill-rule="evenodd" clip-rule="evenodd" d="M30.5282 41.6498C30.8434 41.3315 31.1979 41.0531 31.513 40.7348C35.1763 37.0353 37.7367 32.2616 38.6427 26.8912C38.6821 26.6525 38.7215 26.3741 38.7609 26.1354C38.0125 22.9132 36.0823 20.1285 33.4431 18.2588C31.0009 17.4632 28.4011 17.0654 25.7226 17.0654C23.2015 17.0654 20.7593 17.4235 18.4353 18.1395C15.4416 20.1683 13.3539 23.1518 12.8024 26.8912C12.8418 26.7719 12.763 27.0106 12.8024 26.8912C13.7478 32.2616 16.3082 37.0353 19.9321 40.7348C20.1685 40.9735 20.4442 41.252 20.7199 41.4907C22.2956 42.1669 24.0288 42.525 25.8407 42.525C27.4951 42.525 29.0708 42.2067 30.5282 41.6498ZM23.5561 37.0353C20.1685 33.6141 17.9626 29.0394 17.6081 23.9077C20.0897 22.8336 22.847 22.2369 25.7226 22.2369C28.5981 22.2369 31.3554 22.8336 33.8371 23.9077C33.4431 28.9996 31.2373 33.6141 27.889 37.0353C27.2194 37.7115 26.5104 38.348 25.7619 38.9049C24.9347 38.348 24.2257 37.7115 23.5561 37.0353Z" fill="white"/>
<g opacity="0.6">
<path opacity="0.6" fill-rule="evenodd" clip-rule="evenodd" d="M30.5282 41.6498C30.8434 41.3315 31.1979 41.0531 31.513 40.7348C35.1763 37.0353 37.7367 32.2616 38.6427 26.8912C38.6821 26.6525 38.7215 26.3741 38.7609 26.1354C38.0125 22.9132 36.0823 20.1285 33.4431 18.2588C31.0009 17.4632 28.4011 17.0654 25.7226 17.0654C23.2015 17.0654 20.7593 17.4235 18.4353 18.1395C15.4416 20.1683 13.3539 23.1518 12.8024 26.8912C12.8418 26.7719 12.763 27.0106 12.8024 26.8912C13.7478 32.2616 16.3082 37.0353 19.9321 40.7348C20.1685 40.9735 20.4442 41.252 20.7199 41.4907C22.2956 42.1669 24.0288 42.525 25.8407 42.525C27.4951 42.525 29.0708 42.2067 30.5282 41.6498ZM23.5561 37.0353C20.1685 33.6141 17.9626 29.0394 17.6081 23.9077C20.0897 22.8336 22.847 22.2369 25.7226 22.2369C28.5981 22.2369 31.3554 22.8336 33.8371 23.9077C33.4431 28.9996 31.2373 33.6141 27.889 37.0353C27.2194 37.7115 26.5104 38.348 25.7619 38.9049C24.9347 38.348 24.2257 37.7115 23.5561 37.0353Z" fill="white"/>
</g>
</svg>
