<svg width="140" height="140" viewBox="0 0 140 140" fill="none" xmlns="http://www.w3.org/2000/svg">
<path d="M70 122.5C98.9949 122.5 122.5 98.9949 122.5 70C122.5 41.0051 98.9949 17.5 70 17.5C41.0051 17.5 17.5 41.0051 17.5 70C17.5 98.9949 41.0051 122.5 70 122.5Z" fill="#FF862F"/>
<path d="M70 41C64.2644 41 58.6575 42.7008 53.8885 45.8874C49.1195 49.0739 45.4024 53.6031 43.2075 58.9022C41.0126 64.2012 40.4383 70.0322 41.5572 75.6576C42.6762 81.2831 45.4382 86.4504 49.4939 90.5061C53.5496 94.5618 58.7169 97.3238 64.3424 98.4428C69.9678 99.5617 75.7988 98.9874 81.0978 96.7925C86.3969 94.5976 90.9261 90.8806 94.1126 86.1115C97.2992 81.3425 99 75.7357 99 70C98.9915 62.3113 95.9335 54.94 90.4968 49.5033C85.06 44.0665 77.6887 41.0085 70 41ZM54 67.5C54 66.8078 54.2053 66.1311 54.5899 65.5555C54.9745 64.9799 55.5211 64.5313 56.1606 64.2664C56.8002 64.0015 57.5039 63.9322 58.1828 64.0673C58.8618 64.2023 59.4854 64.5356 59.9749 65.0251C60.4644 65.5146 60.7977 66.1383 60.9328 66.8172C61.0678 67.4961 60.9985 68.1999 60.7336 68.8394C60.4687 69.4789 60.0201 70.0256 59.4445 70.4101C58.8689 70.7947 58.1922 71 57.5 71C56.5718 71 55.6815 70.6313 55.0251 69.9749C54.3688 69.3185 54 68.4283 54 67.5ZM80.9 86.866C80.6703 86.9986 80.3974 87.0345 80.1412 86.9659C79.885 86.8973 79.6666 86.7297 79.534 86.5C78.5689 84.8265 77.1801 83.4367 75.5074 82.4704C73.8346 81.504 71.9368 80.9953 70.005 80.9953C68.0732 80.9953 66.1754 81.504 64.5027 82.4704C62.8299 83.4367 61.4411 84.8265 60.476 86.5C60.4126 86.6179 60.3261 86.7218 60.2218 86.8057C60.1174 86.8895 59.9973 86.9515 59.8685 86.9881C59.7398 87.0247 59.605 87.035 59.4721 87.0185C59.3393 87.002 59.2111 86.959 59.0952 86.892C58.9793 86.8251 58.878 86.7355 58.7973 86.6287C58.7167 86.5218 58.6583 86.3999 58.6256 86.2701C58.593 86.1403 58.5867 86.0052 58.6072 85.8729C58.6277 85.7407 58.6746 85.6138 58.745 85.5C59.8858 83.523 61.527 81.8811 63.5036 80.7396C65.4802 79.5981 67.7225 78.9971 70.005 78.9971C72.2876 78.9971 74.5299 79.5981 76.5065 80.7396C78.4831 81.8811 80.1242 83.523 81.265 85.5C81.3977 85.7296 81.4338 86.0024 81.3653 86.2586C81.2969 86.5147 81.1295 86.7332 80.9 86.866ZM82.5 71C81.8078 71 81.1311 70.7947 80.5555 70.4101C79.9799 70.0256 79.5313 69.4789 79.2664 68.8394C79.0015 68.1999 78.9322 67.4961 79.0673 66.8172C79.2023 66.1383 79.5357 65.5146 80.0251 65.0251C80.5146 64.5356 81.1383 64.2023 81.8172 64.0673C82.4961 63.9322 83.1999 64.0015 83.8394 64.2664C84.4789 64.5313 85.0256 64.9799 85.4102 65.5555C85.7947 66.1311 86 66.8078 86 67.5C86 68.4283 85.6313 69.3185 84.9749 69.9749C84.3185 70.6313 83.4283 71 82.5 71Z" fill="white"/>
</svg>
