<svg width="24" height="24" viewBox="0 0 24 24" fill="none" xmlns="http://www.w3.org/2000/svg">
<path fill-rule="evenodd" clip-rule="evenodd" d="M13.4085 18.4399C13.5366 18.3373 13.6648 18.2091 13.7674 18.081C15.1261 16.7222 16.1003 14.9532 16.4336 12.9536C16.5362 12.4152 16.5875 11.8512 16.5875 11.2872C16.5875 11.0821 16.5875 10.9026 16.5618 10.6975C16.408 8.28763 15.3825 6.10849 13.7674 4.49336C13.6392 4.36517 13.5366 4.26262 13.4085 4.13444C12.9983 3.77552 12.5624 3.4166 12.0753 3.13459C11.7933 2.95514 11.4344 2.95514 11.1268 3.13459C10.6653 3.44224 10.2038 3.77552 9.79365 4.13444C9.66546 4.23699 9.53728 4.36517 9.43473 4.49336C8.1016 5.82648 7.15304 7.56979 6.79412 9.51821C6.94794 9.4413 7.10176 9.36438 7.25558 9.28747C9.30654 8.36454 12.7932 8.08253 14.5109 9.74894C13.5879 9.46693 12.6137 9.31311 11.6139 9.31311C10.614 9.31311 9.63982 9.46693 8.71689 9.74894C7.99906 9.97967 7.30686 10.2873 6.66593 10.6719C5.99937 11.0821 5.38408 11.5692 4.82007 12.1075C3.46131 13.4663 2.4871 15.2353 2.15382 17.2349C2.05127 17.7733 2 18.3373 2 18.9013C2 18.927 2 18.9783 2 19.0039C2 19.3115 2.17946 19.5935 2.46147 19.7474C2.97421 20.0294 3.51258 20.2601 4.0766 20.4396C4.99953 20.7216 5.97373 20.8754 6.97358 20.8754C8.22979 20.8754 9.46037 20.619 10.5628 20.1832C10.4089 20.0806 10.2551 19.9781 10.1269 19.8756C7.92215 18.3117 6.15319 15.8762 6.79412 12.9279C7.15304 14.902 8.1016 16.6966 9.46037 18.0553C9.58855 18.1835 9.6911 18.2861 9.81928 18.4142C10.3577 18.9013 10.9729 19.3372 11.6139 19.6961C12.9983 20.4652 14.5621 20.8754 16.2542 20.8754C17.254 20.8754 18.2282 20.7216 19.1511 20.4396C19.7152 20.2601 20.2535 20.0294 20.7663 19.7474C21.0483 19.5935 21.2277 19.3115 21.2277 19.0039C21.2277 18.9783 21.2277 18.9526 21.2277 18.9013C21.2277 18.3373 21.1765 17.7733 21.0739 17.2349C20.715 15.2865 19.7664 13.4919 18.4077 12.1332C18.1257 11.8512 17.8437 11.6204 17.5617 11.3641C17.5104 14.2867 16.2798 17.2606 13.4085 18.4399ZM14.639 11.8768C14.5109 13.7739 13.6648 15.466 12.4086 16.7222C12.1522 16.9786 11.8959 17.2093 11.6139 17.4144C11.3319 17.2093 11.0755 16.9786 10.8191 16.7222C9.56291 15.466 8.74253 13.7483 8.58871 11.8768C9.51164 11.4666 10.5371 11.2615 11.6139 11.2615C12.6906 11.2359 13.6905 11.4666 14.639 11.8768Z" fill="#73C14F"/>
</svg>
