<svg width="45" height="45" viewBox="0 0 45 45" fill="none" xmlns="http://www.w3.org/2000/svg">
<path d="M30.7871 0C30.7871 2.81858 30.7871 10.8882 30.7871 13.6875C33.856 13.6875 41.9241 13.6875 44.993 13.6875C44.993 10.8882 44.993 2.79928 44.993 0C44.993 0 35.1492 0 30.7871 0ZM42.9663 11.7377C39.4149 11.7377 36.4038 11.7377 32.8138 11.7377C32.8138 8.3013 32.8138 5.3862 32.8138 1.94984C36.3845 1.94984 39.3956 1.94984 42.9663 1.94984C42.9663 1.94984 42.9663 8.3013 42.9663 11.7377Z" fill="#113934"/>
<path d="M24.2544 42.9724H22.3049V40.9453H20.3555V42.9724H18.3867V44.9994C23.1542 44.9994 21.4557 44.9994 26.2038 44.9994C26.2038 43.5901 26.2038 42.3739 26.2038 40.9453H24.2544V42.9724Z" fill="#113934"/>
<path d="M40.5721 3.91992C38.3139 3.91992 36.7505 3.91992 34.4922 3.91992C34.4922 6.10143 34.4922 7.60725 34.4922 9.78875C36.5767 9.78875 38.3525 9.78875 40.5721 9.78875C40.5721 7.60725 40.5721 6.10143 40.5721 3.91992Z" fill="#113934"/>
<path d="M20.2916 5.86883C21.7199 5.86883 22.9166 5.86883 24.3449 5.86883C24.3449 7.23951 24.3449 8.41714 24.3449 9.78782H26.3715C26.3715 5.01939 26.3715 6.71827 26.3715 1.96915C23.5149 1.96915 21.0443 1.96915 18.2649 1.96915V0H16.2383C16.2383 1.37068 16.2383 2.529 16.2383 3.91899C17.6666 3.91899 18.8826 3.91899 20.2916 3.91899V5.86883Z" fill="#113934"/>
<path d="M20.2849 9.78516H18.2578V11.735H20.2849V9.78516Z" fill="#113934"/>
<path d="M16.2383 41.0831H18.2653C18.2653 39.7124 18.2653 38.554 18.2653 37.1641H16.2383C16.2383 38.554 16.2383 39.7124 16.2383 41.0831Z" fill="#113934"/>
<path d="M18.2653 5.86719H16.2383V7.81703H18.2653V5.86719Z" fill="#113934"/>
<path d="M10.1346 35.2129C7.87638 35.2129 6.31296 35.2129 4.05469 35.2129C4.05469 37.3944 4.05469 38.9002 4.05469 41.0817C6.31296 41.0817 7.87638 41.0817 10.1346 41.0817C10.1346 38.9002 10.1346 37.3944 10.1346 35.2129Z" fill="#113934"/>
<path d="M4.05469 17.6074V19.5573C5.48328 19.5573 6.69952 19.5573 8.10881 19.5573V17.6074C6.69952 17.6074 5.48328 17.6074 4.05469 17.6074Z" fill="#113934"/>
<path d="M10.1346 3.91992C7.87638 3.91992 6.31296 3.91992 4.05469 3.91992C4.05469 6.10143 4.05469 7.60725 4.05469 9.78875C6.31296 9.78875 7.87638 9.78875 10.1346 9.78875C10.1346 7.60725 10.1346 6.10143 10.1346 3.91992Z" fill="#113934"/>
<path d="M4.04659 25.4258H2.01953V27.3756H4.04659V25.4258Z" fill="#113934"/>
<path d="M4.04659 21.5234H2.01953V23.4733H4.04659V21.5234Z" fill="#113934"/>
<path d="M14.2059 0C9.84375 0 4.36213 0 0 0C0 2.81858 0 10.8882 0 13.6875C4.36213 13.6875 9.84375 13.6875 14.2059 13.6875C14.2059 10.8882 14.2059 2.81858 14.2059 0ZM12.1792 11.7377C8.56985 11.7377 5.57812 11.7377 2.04596 11.7377C2.04596 11.7377 2.04596 5.3862 2.04596 1.94984C5.57812 1.94984 8.56985 1.94984 12.1792 1.94984C12.1792 5.3862 12.1792 8.3013 12.1792 11.7377Z" fill="#113934"/>
<path d="M2.02706 23.4746H0V25.4245H2.02706V23.4746Z" fill="#113934"/>
<path d="M2.02706 17.6074H0V19.5573H2.02706V17.6074Z" fill="#113934"/>
<path d="M44.9997 28.3594H42.9727V30.3092H44.9997V28.3594Z" fill="#113934"/>
<path d="M40.9375 40.0954H42.9646V42.0452H44.9916C44.9916 39.3232 44.9916 37.0065 44.9916 34.2266C43.5823 34.2266 42.3661 34.2266 40.9375 34.2266C40.9375 36.3502 40.9375 38.0104 40.9375 40.0954Z" fill="#113934"/>
<path d="M42.9646 30.3281H40.9375V32.278H42.9646V30.3281Z" fill="#113934"/>
<path d="M42.9534 18.588H40.9268V20.5378H38.9001V18.588H36.8735C36.8735 19.9587 36.8735 21.117 36.8735 22.507H34.8468V24.4568C32.5886 24.4568 31.0251 24.4568 28.7669 24.4568V22.507C30.1952 22.507 31.4112 22.507 32.8202 22.507V20.5571H30.7935V19.5725H32.4535V17.6034H30.4268V18.588H28.7476V16.6188H30.7742V14.669H28.7476V12.7191H26.7209V14.669H26.3542C26.3542 13.2983 26.3542 12.14 26.3542 10.75C24.1345 10.75 22.3588 10.75 20.2742 10.75V12.6998C21.7025 12.6998 22.9185 12.6998 24.3275 12.6998V14.669H24.6943V16.6188H26.7209C26.7209 19.1285 26.7209 21.812 26.7209 24.4375C25.3119 24.4375 24.0959 24.4375 22.6676 24.4375V22.4877H20.641C20.641 23.8583 20.641 25.0167 20.641 26.4066H22.6676V28.3565H20.641V26.4066H18.6143V28.3565H16.5877V26.4066H16.2209V25.4221H18.2476V23.4722C16.8193 23.4722 15.6033 23.4722 14.1943 23.4722V25.4221H12.1676V23.4722H14.1943V21.5224H12.1676V19.5725C13.5959 19.5725 14.8119 19.5725 16.2209 19.5725V17.6034C13.9627 17.6034 12.3992 17.6034 10.141 17.6034V19.5532H8.09501V21.5031H10.1217V23.4529C8.69336 23.4529 7.47737 23.4529 6.06836 23.4529V25.4028H8.09501V27.3526C10.3147 27.3526 12.3992 27.3526 14.5417 27.3526C14.5417 28.3372 14.5417 29.2445 14.5417 30.287H16.5877V32.2369H14.561V34.1867C15.9893 34.1867 17.2053 34.1867 18.6143 34.1867C18.6143 32.816 18.6143 31.6384 18.6143 30.2677C20.0426 30.2677 21.2393 30.2677 22.6676 30.2677C22.6676 31.6384 22.6676 32.816 22.6676 34.1867H24.6943C24.6943 32.816 24.6943 31.6384 24.6943 30.2677H26.7209C26.7209 31.6384 26.7209 32.7967 26.7209 34.1867C25.2926 34.1867 24.0959 34.1867 22.6676 34.1867C22.6676 35.5574 22.6676 36.7157 22.6676 38.1057H24.6943V36.1559H26.7209V38.1057H28.7476V36.1559H30.7742C30.7742 37.5265 30.7742 38.6849 30.7742 40.0748H28.7476V42.0247C30.8321 42.0247 32.6079 42.0247 34.8275 42.0247V40.0748H32.8009C32.8009 38.7042 32.8009 37.5458 32.8009 36.1559H34.8275C34.8275 34.7852 34.8275 33.6075 34.8275 32.2369C33.3992 32.2369 32.1832 32.2369 30.7742 32.2369C30.7742 30.1326 30.7742 28.4723 30.7742 26.368C33.0325 26.368 34.5959 26.368 36.8542 26.368C36.8542 29.8044 36.8542 32.7195 36.8542 36.1559H34.8275C34.8275 37.5265 34.8275 38.6849 34.8275 40.0748H36.8542V42.0247H38.8808C38.8808 38.8972 38.8808 29.4955 38.8808 26.368H40.9075V28.3179H42.9341C42.9341 26.9472 42.9341 25.7889 42.9341 24.3989H40.9075V22.449H42.9341V24.3989H44.9608C44.9608 23.0282 44.9608 21.8506 44.9608 20.4799H42.9341V18.588H42.9534ZM28.7476 30.3256H26.7209C26.7209 29.6306 26.7209 28.9936 26.7209 28.3758H28.7476V30.3256Z" fill="#113934"/>
<path d="M34.4665 28.3594H32.4395V30.3092H34.4665V28.3594Z" fill="#113934"/>
<path d="M42.9727 18.5909H44.9997C44.9997 17.2202 44.9997 16.0619 44.9997 14.6719H42.9727C42.9727 16.0426 42.9727 17.2202 42.9727 18.5909Z" fill="#113934"/>
<path d="M16.2383 15.6562C16.2383 17.0269 16.2383 18.1853 16.2383 19.5752H18.2649V17.6061H20.2916C20.2916 18.9768 20.2916 20.1351 20.2916 21.5251C21.7199 21.5251 22.9359 21.5251 24.3449 21.5251V19.5752H22.3182C22.3182 18.2046 22.3182 17.0462 22.3182 15.6562C20.06 15.6562 18.4966 15.6562 16.2383 15.6562Z" fill="#113934"/>
<path d="M40.5658 14.6719C39.1566 14.6719 37.9403 14.6719 36.5117 14.6719V16.6217C37.9403 16.6217 39.1372 16.6217 40.5658 16.6217V14.6719Z" fill="#113934"/>
<path d="M7.10294 29.3463H9.12959V27.3965C6.87132 27.3965 5.3079 27.3965 3.04963 27.3965V29.3463H5.07628V31.2962C3.31985 31.2962 1.58272 31.2962 0 31.2962C0 34.1148 0 42.1844 0 44.9837C4.36213 44.9837 9.84375 44.9837 14.2059 44.9837C14.2059 42.1651 14.2059 34.0954 14.2059 31.2962C12.0248 31.2962 9.57353 31.2962 7.10294 31.2962V29.3463ZM12.1792 33.2653C12.1792 33.2653 12.1792 39.6168 12.1792 43.0531C8.56985 43.0531 5.57812 43.0531 2.04596 43.0531C2.04596 39.6168 2.04596 36.7017 2.04596 33.2653C5.55882 33.2653 8.55055 33.2653 12.1792 33.2653Z" fill="#113934"/>
<path d="M32.8066 44.9997C37.3232 44.9997 40.45 44.9997 44.9666 44.9997V42.9727C40.45 42.9727 37.3232 42.9727 32.8066 42.9727V44.9997Z" fill="#113934"/>
</svg>
