<svg width="346" height="509" viewBox="0 0 346 509" fill="none" xmlns="http://www.w3.org/2000/svg">
<path fill-rule="evenodd" clip-rule="evenodd" d="M99.2642 424.395L99.4806 426.546L100.589 428.828L100.444 421.936L99.2642 424.395Z" fill="#030100"/>
<path fill-rule="evenodd" clip-rule="evenodd" d="M203.711 192.436C203.711 192.436 152.899 201.538 139.15 203.371C139.15 203.371 146.653 341.266 150.793 360.185C152.196 366.591 145.276 405.437 144.416 427.268C142.736 469.892 145.221 504.519 145.221 504.519C145.221 504.519 190.809 508.061 200.655 504.943C210.498 501.828 194.35 495.988 184.561 494.367C174.773 492.73 169.939 486.859 169.719 479.477C168.814 448.832 201.456 387.95 199.548 355.258C197.127 313.737 203.711 192.436 203.711 192.436Z" fill="white"/>
<path fill-rule="evenodd" clip-rule="evenodd" d="M146.207 503.543C152.655 504.018 191.555 506.725 200.337 503.946C202.29 503.327 202.685 502.734 202.672 502.558C202.544 500.771 193.482 496.905 184.391 495.399C174.652 493.77 168.923 487.978 168.672 479.507C168.229 464.535 175.499 443.014 183.196 420.229C191.2 396.536 199.478 372.033 198.502 355.319C196.239 316.541 201.89 207.003 202.593 193.698C194.746 195.099 153.746 202.388 140.249 204.277C140.928 216.602 147.922 342.169 151.817 359.961C152.584 363.468 151.132 375.029 149.292 389.665C147.691 402.419 145.874 416.875 145.463 427.309C143.954 465.616 145.838 497.818 146.207 503.543ZM183.787 507.275C167.457 507.275 146.42 505.663 145.14 505.562C144.623 505.523 144.213 505.111 144.176 504.594C144.151 504.246 141.706 469.419 143.368 427.227C143.782 416.701 145.605 402.199 147.213 389.404C148.883 376.116 150.459 363.562 149.769 360.408C145.657 341.622 138.409 209.061 138.102 203.427C138.073 202.88 138.468 202.405 139.011 202.333C152.58 200.524 203.017 191.497 203.525 191.405C203.842 191.349 204.164 191.439 204.405 191.652C204.644 191.863 204.774 192.173 204.758 192.492C204.692 193.704 198.204 314.208 200.596 355.196C201.595 372.318 193.252 397.014 185.183 420.898C177.547 443.5 170.336 464.846 170.768 479.445C170.987 486.824 176.078 491.887 184.735 493.334C188.624 493.979 204.422 497.618 204.764 502.408C204.873 503.921 203.596 505.111 200.971 505.94C197.84 506.932 191.311 507.275 183.787 507.275Z" fill="#113934"/>
<path fill-rule="evenodd" clip-rule="evenodd" d="M142.034 507.683L142.244 501.609L180.97 501.876C180.97 501.876 182.556 494.571 185.788 492.777C189.022 490.984 193.905 494.697 193.905 494.697L190.621 502.458C190.621 502.458 201.701 502.504 205.33 503.873C208.958 505.243 206.883 508.548 206.883 508.548L142.034 507.683Z" fill="#113934"/>
<path fill-rule="evenodd" clip-rule="evenodd" d="M164.815 192.656C164.815 192.656 114.005 201.758 100.252 203.592L105.094 350.095C105.094 350.095 99.8865 382.22 98.7403 399.693C96.8736 428.117 103.339 465.611 104.293 480.69C105.181 494.744 106.325 504.739 106.325 504.739C106.325 504.739 151.915 508.28 161.758 505.164C171.602 502.047 155.456 496.208 145.667 494.588C135.877 492.951 131.044 487.079 130.824 479.697C129.918 449.067 156.4 385.699 154.493 353.007C152.071 311.487 164.815 192.656 164.815 192.656Z" fill="white"/>
<path fill-rule="evenodd" clip-rule="evenodd" d="M107.272 503.76C113.606 504.226 152.638 506.95 161.44 504.167C163.395 503.547 163.789 502.954 163.777 502.778C163.649 500.99 154.587 497.125 145.496 495.621C135.757 493.992 130.029 488.199 129.777 479.727C129.337 464.868 135.136 442.919 141.275 419.681C147.741 395.204 154.429 369.896 153.447 353.07C151.187 314.359 162.213 207.39 163.625 193.932C155.599 195.363 114.766 202.624 101.332 204.501L106.142 350.062C106.145 350.128 106.14 350.196 106.129 350.263C106.077 350.583 100.917 382.538 99.7865 399.762C98.4558 420.025 101.376 444.883 103.507 463.035C104.344 470.162 105.067 476.316 105.339 480.624C106.068 492.166 106.981 501.046 107.272 503.76ZM144.898 507.495C128.568 507.495 107.524 505.883 106.244 505.782C105.743 505.745 105.341 505.356 105.284 504.857C105.271 504.758 104.125 494.676 103.247 480.756C102.978 476.505 102.257 470.376 101.425 463.279C99.2835 445.047 96.351 420.079 97.6943 399.623C98.7979 382.788 103.72 352.034 104.043 350.029L99.2047 203.626C99.1873 203.09 99.5799 202.627 100.113 202.554C113.686 200.744 164.122 191.718 164.63 191.625C164.961 191.568 165.289 191.666 165.53 191.889C165.771 192.114 165.892 192.44 165.858 192.767C165.73 193.954 153.15 311.986 155.54 352.947C156.541 370.107 149.811 395.58 143.303 420.214C137.203 443.302 131.442 465.109 131.872 479.665C132.091 487.046 137.182 492.109 145.839 493.556C149.73 494.199 165.525 497.837 165.869 502.628C165.976 504.142 164.7 505.331 162.075 506.162C158.944 507.153 152.422 507.495 144.898 507.495Z" fill="#113934"/>
<mask id="mask0" mask-type="alpha" maskUnits="userSpaceOnUse" x="103" y="492" width="66" height="17">
<path fill-rule="evenodd" clip-rule="evenodd" d="M103.137 492.508H168.579V508.769H103.137V492.508Z" fill="white"/>
</mask>
<g mask="url(#mask0)">
<path fill-rule="evenodd" clip-rule="evenodd" d="M103.137 507.904L103.349 501.828L142.075 502.11C142.075 502.11 143.66 494.792 146.893 492.996C150.127 491.204 155.01 494.918 155.01 494.918L151.726 502.678C151.726 502.678 162.806 502.725 166.434 504.11C170.063 505.48 167.988 508.769 167.988 508.769L103.137 507.904Z" fill="#113934"/>
</g>
<path fill-rule="evenodd" clip-rule="evenodd" d="M185.527 154.557C209.265 173.027 206.578 211.773 210.635 268.65C214.691 325.542 208.659 381.481 208.659 381.481C208.659 381.481 158.482 385.762 123.342 384.361C118.969 384.188 112.81 353.984 112.81 353.984C112.81 353.984 99.92 382.817 95.4187 382.221C86.842 381.088 78.7744 377.625 78.7744 377.625C78.7744 377.625 84.3651 323.653 90.7788 279.415C97.1924 235.171 94.0234 213.646 104.431 200.657C113.474 189.373 177.683 148.454 185.527 154.557Z" fill="#106D5A"/>
<path fill-rule="evenodd" clip-rule="evenodd" d="M157.974 227.357C151.767 222.705 162.234 212.91 167.194 209.193C168.574 208.16 170.401 204.554 171.286 206.032C173.991 210.546 161.963 230.347 157.974 227.357Z" fill="#FF862F"/>
<path fill-rule="evenodd" clip-rule="evenodd" d="M103.154 308.117C96.948 303.474 107.414 293.676 112.375 289.958C113.753 288.926 115.58 285.321 116.466 286.797C119.172 291.312 107.144 311.108 103.154 308.117Z" fill="#FF862F"/>
<path fill-rule="evenodd" clip-rule="evenodd" d="M187.576 248.273C181.369 243.622 191.836 233.827 196.796 230.11C198.176 229.077 200.003 225.471 200.889 226.949C203.593 231.463 191.567 251.262 187.576 248.273Z" fill="#FF862F"/>
<path fill-rule="evenodd" clip-rule="evenodd" d="M185.775 302.876C179.566 298.234 190.034 288.434 194.995 284.716C196.375 283.686 198.202 280.08 199.085 281.556C201.79 286.07 189.762 305.866 185.775 302.876Z" fill="#FF862F"/>
<path fill-rule="evenodd" clip-rule="evenodd" d="M129.294 370.148C123.087 365.489 133.552 355.699 138.514 351.984C139.893 350.945 141.721 347.341 142.605 348.82C145.311 353.338 133.283 373.138 129.294 370.148Z" fill="#FF862F"/>
<path fill-rule="evenodd" clip-rule="evenodd" d="M124.691 263.975C118.547 266.24 121.659 230.811 126.367 249.944C126.867 251.979 127.91 254.016 127.663 256.097C127.33 258.884 127.327 263.002 124.691 263.975Z" fill="#FF862F"/>
<path fill-rule="evenodd" clip-rule="evenodd" d="M150.55 323.369C144.404 325.634 147.518 290.203 152.224 309.33C152.725 311.376 153.769 313.406 153.522 315.484C153.189 318.27 153.186 322.394 150.55 323.369Z" fill="#FF862F"/>
<path fill-rule="evenodd" clip-rule="evenodd" d="M102.488 349.89C96.3436 352.157 99.4558 316.728 104.164 335.85C104.663 337.897 105.707 339.927 105.46 342.005C105.127 344.791 105.124 348.915 102.488 349.89Z" fill="#FF862F"/>
<path fill-rule="evenodd" clip-rule="evenodd" d="M169.277 273.406C163.133 275.673 166.245 240.242 170.953 259.377C171.452 261.412 172.496 263.448 172.249 265.528C171.916 268.314 171.913 272.433 169.277 273.406Z" fill="#FF862F"/>
<path fill-rule="evenodd" clip-rule="evenodd" d="M192.59 367.393C186.446 369.66 189.558 334.23 194.264 353.369C194.765 355.4 195.809 357.43 195.56 359.523C195.227 362.311 195.226 366.418 192.59 367.393Z" fill="#FF862F"/>
<path fill-rule="evenodd" clip-rule="evenodd" d="M171.167 11.6292C166.798 11.8007 162.631 14.2955 158.17 14.4718C151.621 14.7283 144.749 13.019 138.343 18.2194C131.846 23.4954 135.273 29.2468 128.295 33.5217C120.142 38.5191 110.519 32.7205 104.884 42.0857C97.168 54.9106 106.439 65.5633 107.265 70.0649C108.867 78.7926 102.172 81.0308 100.162 86.9663C99.1987 89.8152 101.073 92.9978 102.183 95.4391C107.615 107.382 115 112.271 127.959 113.99C139.604 115.534 137.433 99.9753 146.874 96.6636C155.528 93.629 175.915 93.2607 184.612 86.5838C195.09 78.5376 186.988 42.4792 184.747 30.2698C184.506 28.9493 169.107 18.1911 168.157 17.5772" fill="#FFBE00"/>
<path fill-rule="evenodd" clip-rule="evenodd" d="M171.167 11.6292C166.798 11.8007 162.631 14.2955 158.17 14.4718C151.621 14.7283 144.749 13.019 138.343 18.2194C131.846 23.4954 135.273 29.2468 128.295 33.5217C120.142 38.5191 110.519 32.7205 104.884 42.0857C97.168 54.9106 106.439 65.5633 107.265 70.0649C108.867 78.7926 102.172 81.0308 100.162 86.9663C99.1987 89.8152 101.073 92.9978 102.183 95.4391C107.615 107.382 115 112.271 127.959 113.99C139.604 115.534 137.433 99.9753 146.874 96.6636C155.528 93.629 175.915 93.2607 184.612 86.5838C195.09 78.5376 186.988 42.4792 184.747 30.2698C184.506 28.9493 169.107 18.1911 168.157 17.5772" fill="#FFBE00"/>
<path fill-rule="evenodd" clip-rule="evenodd" d="M296.235 111.54C297.451 103.846 288.075 90.5442 278.063 105.137C275.249 109.237 265.906 123.028 263.899 124.345C249.208 133.988 228.579 154.05 224.881 152.359C209.239 145.215 209.837 121.215 207.393 105.883C204.271 86.2944 179.357 68.3526 169.491 84.9597C159.993 100.945 185.038 185.315 214.081 186.9C245.429 188.611 267.11 141.417 279.933 130.215C284.209 126.48 295.225 117.941 296.235 111.54Z" fill="white"/>
<path fill-rule="evenodd" clip-rule="evenodd" d="M180.372 79.4614C177.028 79.4614 173.206 80.7584 170.392 85.4945C164.41 95.5617 172.776 133.679 186.664 159.65C195.443 176.062 205.199 185.367 214.137 185.855C236.318 187.059 253.701 162.93 266.432 145.307C271.359 138.487 275.615 132.596 279.243 129.428C279.781 128.957 280.426 128.411 281.143 127.803C285.769 123.886 294.377 116.593 295.199 111.377C295.806 107.54 293.316 101.628 289.316 100.041C285.982 98.7144 282.387 100.683 278.928 105.728L278.171 106.833C272.111 115.691 266.255 124.051 264.475 125.22C258.468 129.162 251.304 134.987 244.983 140.126C232.361 150.39 226.967 154.473 224.445 153.311C211.097 147.215 209.1 129.372 207.495 115.035C207.137 111.829 206.798 108.802 206.356 106.048C204.442 94.0255 193.556 81.7264 183.065 79.7243C182.229 79.5653 181.32 79.4614 180.372 79.4614ZM215.748 187.992C215.176 187.992 214.602 187.977 214.024 187.945C201.592 187.267 191.279 172.72 184.815 160.636C170.384 133.651 162.194 95.1886 168.589 84.4257C171.89 78.8696 177.172 76.4661 183.458 77.6686C194.721 79.8171 206.39 92.9237 208.428 105.719C208.876 108.52 209.216 111.572 209.577 114.804C211.206 129.335 213.051 145.805 225.317 151.408C227.128 151.986 236.675 144.184 243.661 138.503C250.021 133.333 257.228 127.471 263.323 123.47C265.002 122.368 273.612 109.786 276.44 105.651L277.197 104.544C282.625 96.6351 287.603 97.1089 290.092 98.0958C295.115 100.09 298.026 106.924 297.272 111.703C296.326 117.687 287.672 125.019 282.499 129.399C281.791 129.999 281.156 130.539 280.623 131.003C277.175 134.014 272.984 139.816 268.131 146.534C255.443 164.098 238.179 187.992 215.748 187.992Z" fill="#113934"/>
<path fill-rule="evenodd" clip-rule="evenodd" d="M177.592 71.4769C175.61 65.5996 175.591 62.2675 175.243 57.8494C174.484 48.2197 173.36 37.9385 173.36 37.9385C173.36 37.9385 165.993 34.3309 162.31 32.5271C158.431 48.5707 160.478 48.2559 150.241 66.8935C147.464 71.9507 122.399 72.3788 122.399 72.3788C122.399 72.3788 116.667 88.1533 116.318 89.7682C108.495 125.995 169.975 146.976 169.975 146.976L190.143 101.118C190.143 101.118 179.573 77.3557 177.592 71.4769Z" fill="white"/>
<path fill-rule="evenodd" clip-rule="evenodd" d="M123.14 73.4101C120.849 79.725 117.579 88.895 117.343 89.9889C110.319 122.517 161.88 142.875 169.409 145.658L188.997 101.12C187.526 97.8037 178.451 77.3058 176.598 71.8094C174.82 66.535 174.585 63.2847 174.315 59.5213L174.197 57.9316C173.551 49.7122 172.625 40.9168 172.379 38.6235L163.025 34.0432C162.289 37.1755 161.791 39.6183 161.346 41.8046C159.731 49.7264 159.065 53.0066 151.159 67.396C148.377 72.4642 128.705 73.2795 123.14 73.4101ZM169.975 148.022C169.863 148.022 169.748 148.004 169.636 147.967C169.481 147.913 153.966 142.563 139.623 132.822C120.411 119.775 111.996 104.811 115.293 89.5467C115.646 87.9098 120.824 73.6416 121.413 72.022C121.562 71.6127 121.946 71.3388 122.382 71.331C131.838 71.1689 147.513 69.6846 149.321 66.3902C157.072 52.2779 157.723 49.089 159.292 41.3875C159.773 39.0202 160.373 36.0753 161.291 32.2804C161.365 31.9719 161.576 31.7138 161.865 31.5784C162.152 31.4447 162.486 31.4478 162.771 31.5863L173.822 36.9977C174.145 37.1566 174.363 37.4683 174.402 37.824C174.413 37.9279 175.536 48.2312 176.288 57.7664L176.407 59.3719C176.668 62.992 176.891 66.1195 178.585 71.1437C180.529 76.9076 190.996 100.456 191.1 100.692C191.221 100.961 191.223 101.27 191.103 101.539L170.935 147.397C170.763 147.786 170.38 148.022 169.975 148.022Z" fill="#113934"/>
<path fill-rule="evenodd" clip-rule="evenodd" d="M182.917 47.3067C185.904 49.589 188.975 44.9757 186.46 42.8256C185.807 42.2684 184.937 42.1724 184.245 42.3534" fill="white"/>
<path fill-rule="evenodd" clip-rule="evenodd" d="M184.602 48.966C183.813 48.966 183.006 48.6937 182.279 48.138C181.819 47.7855 181.734 47.1291 182.084 46.6711C182.439 46.2115 183.096 46.1265 183.555 46.4759C184.701 47.3526 185.527 46.5814 185.828 46.2099C186.42 45.4812 186.604 44.3259 185.778 43.6207C185.39 43.2902 184.87 43.2729 184.51 43.3657C183.951 43.5168 183.378 43.1784 183.23 42.6181C183.083 42.0593 183.418 41.488 183.977 41.3416C185.105 41.0425 186.289 41.3022 187.142 42.0294C188.972 43.5971 188.673 46.0321 187.459 47.5258C186.686 48.4764 185.66 48.966 184.602 48.966Z" fill="#113934"/>
<path fill-rule="evenodd" clip-rule="evenodd" d="M187.483 21.4904C186.663 38.4343 184.332 52.9968 182.836 57.8935C180.705 64.8599 174.047 66.4229 169.449 65.7744C164.598 65.0913 158.881 61.1941 159.39 53.6721C159.978 44.9412 162.465 25.9463 163.732 22.6913C164.998 19.4363 168.369 15.9814 173.038 13.9526C179.264 11.2469 187.728 16.3686 187.483 21.4904Z" fill="white"/>
<path fill-rule="evenodd" clip-rule="evenodd" d="M176.798 14.2535C175.616 14.2535 174.476 14.4691 173.457 14.913C169.319 16.7105 165.968 19.8364 164.71 23.0694C163.531 26.0977 161.046 44.6943 160.436 53.7416C159.99 60.3476 164.871 64.0732 169.595 64.7374C173.177 65.2443 179.779 64.3046 181.834 57.5884C183.242 52.9798 185.6 38.7195 186.436 21.4403C186.519 19.6979 185.288 17.7761 183.144 16.2981C181.197 14.9571 178.928 14.2535 176.798 14.2535ZM171.439 66.9597C170.718 66.9597 170.003 66.9094 169.301 66.8102C163.649 66.0138 157.808 61.5405 158.344 53.6013C158.913 45.1632 161.401 25.7906 162.753 22.3121C164.207 18.577 167.988 15.0057 172.62 12.9925C176.128 11.4674 180.727 12.0891 184.334 14.5744C187.081 16.4663 188.648 19.0697 188.53 21.5409C187.686 38.9995 185.279 53.488 183.837 58.1989C181.946 64.3894 176.565 66.9597 171.439 66.9597Z" fill="#113934"/>
<path fill-rule="evenodd" clip-rule="evenodd" d="M187.483 21.4904C186.663 38.4343 184.332 52.9968 182.836 57.8935C180.705 64.8599 174.047 66.4229 169.449 65.7744C164.598 65.0913 158.881 61.1941 159.39 53.6721C159.978 44.9412 162.465 25.9463 163.732 22.6913C164.998 19.4363 168.369 15.9814 173.038 13.9526C179.264 11.2469 187.728 16.3686 187.483 21.4904Z" fill="white"/>
<path fill-rule="evenodd" clip-rule="evenodd" d="M176.798 14.2535C175.616 14.2535 174.476 14.4691 173.457 14.913C169.319 16.7105 165.968 19.8364 164.71 23.0694C163.531 26.0977 161.046 44.6943 160.436 53.7416C159.99 60.3476 164.871 64.0732 169.595 64.7374C173.177 65.2443 179.779 64.3046 181.834 57.5884C183.242 52.9798 185.6 38.7195 186.436 21.4403C186.519 19.6979 185.288 17.7761 183.144 16.2981C181.197 14.9571 178.928 14.2535 176.798 14.2535ZM171.439 66.9597C170.718 66.9597 170.003 66.9094 169.301 66.8102C163.649 66.0138 157.808 61.5405 158.344 53.6013C158.913 45.1632 161.401 25.7906 162.753 22.3121C164.207 18.577 167.988 15.0057 172.62 12.9925C176.128 11.4674 180.727 12.0891 184.334 14.5744C187.081 16.4663 188.648 19.0697 188.53 21.5409C187.686 38.9995 185.279 53.488 183.837 58.1989C181.946 64.3894 176.565 66.9597 171.439 66.9597Z" fill="#113934"/>
<path fill-rule="evenodd" clip-rule="evenodd" d="M187.483 21.4904C186.663 38.4343 184.332 52.9968 182.836 57.8935C180.705 64.8599 174.047 66.4229 169.449 65.7744C164.598 65.0913 158.881 61.1941 159.39 53.6721C159.978 44.9412 162.465 25.9463 163.732 22.6913C164.998 19.4363 168.369 15.9814 173.038 13.9526C179.264 11.2469 187.728 16.3686 187.483 21.4904Z" fill="white"/>
<path fill-rule="evenodd" clip-rule="evenodd" d="M176.798 14.2535C175.616 14.2535 174.476 14.4691 173.457 14.913C169.319 16.7105 165.968 19.8364 164.71 23.0694C163.531 26.0977 161.046 44.6943 160.436 53.7416C159.99 60.3476 164.871 64.0732 169.595 64.7374C173.177 65.2443 179.779 64.3046 181.834 57.5884C183.242 52.9798 185.6 38.7195 186.436 21.4403C186.519 19.6979 185.288 17.7761 183.144 16.2981C181.197 14.9571 178.928 14.2535 176.798 14.2535ZM171.439 66.9597C170.718 66.9597 170.003 66.9094 169.301 66.8102C163.649 66.0138 157.808 61.5405 158.344 53.6013C158.913 45.1632 161.401 25.7906 162.753 22.3121C164.207 18.577 167.988 15.0057 172.62 12.9925C176.128 11.4674 180.727 12.0891 184.334 14.5744C187.081 16.4663 188.648 19.0697 188.53 21.5409C187.686 38.9995 185.279 53.488 183.837 58.1989C181.946 64.3894 176.565 66.9597 171.439 66.9597Z" fill="#113934"/>
<path fill-rule="evenodd" clip-rule="evenodd" d="M179.68 49.2358C178.843 49.2358 177.795 48.9194 176.524 48.4331C175.983 48.2253 175.713 47.6209 175.92 47.081C176.128 46.5427 176.732 46.2735 177.276 46.4782C178.703 47.0259 179.351 47.1345 179.625 47.144C179.625 46.7095 179.409 45.7935 179.231 45.0364C178.983 43.9803 178.673 42.6675 178.504 41.199C178.438 40.6245 178.851 40.1067 179.426 40.0406C179.999 39.9776 180.522 40.3868 180.588 40.9614C180.743 42.3071 181.024 43.5018 181.271 44.5563C181.73 46.5049 182.061 47.9121 181.079 48.7699C180.705 49.0957 180.24 49.2358 179.68 49.2358Z" fill="#113934"/>
<path fill-rule="evenodd" clip-rule="evenodd" d="M179.68 49.2358C178.843 49.2358 177.795 48.9194 176.524 48.4331C175.983 48.2253 175.713 47.6209 175.92 47.081C176.128 46.5427 176.732 46.2735 177.276 46.4782C178.703 47.0259 179.351 47.1345 179.625 47.144C179.625 46.7095 179.409 45.7935 179.231 45.0364C178.983 43.9803 178.673 42.6675 178.504 41.199C178.438 40.6245 178.851 40.1067 179.426 40.0406C179.999 39.9776 180.522 40.3868 180.588 40.9614C180.743 42.3071 181.024 43.5018 181.271 44.5563C181.73 46.5049 182.061 47.9121 181.079 48.7699C180.705 49.0957 180.24 49.2358 179.68 49.2358Z" fill="#113934"/>
<path fill-rule="evenodd" clip-rule="evenodd" d="M174.989 40.4537C175.066 39.9107 174.738 39.4149 174.257 39.3456C173.775 39.2779 173.321 39.662 173.244 40.2066C173.166 40.7496 173.494 41.2454 173.975 41.3147C174.458 41.3824 174.912 40.9983 174.989 40.4537Z" fill="#113934"/>
<path fill-rule="evenodd" clip-rule="evenodd" d="M183.817 41.3368C183.894 40.7937 183.568 40.2979 183.085 40.2287C182.603 40.161 182.149 40.5451 182.073 41.0896C181.994 41.6327 182.322 42.1285 182.803 42.1977C183.285 42.2654 183.739 41.8814 183.817 41.3368Z" fill="#113934"/>
<path fill-rule="evenodd" clip-rule="evenodd" d="M183.817 41.3368C183.894 40.7937 183.568 40.2979 183.085 40.2287C182.603 40.161 182.149 40.5451 182.073 41.0896C181.994 41.6327 182.322 42.1285 182.803 42.1977C183.285 42.2654 183.739 41.8814 183.817 41.3368Z" fill="#113934"/>
<path fill-rule="evenodd" clip-rule="evenodd" d="M162.161 45.8035C158.702 47.2815 156.864 42.0543 159.831 40.5905C160.602 40.2096 161.469 40.3308 162.095 40.6755" fill="white"/>
<path fill-rule="evenodd" clip-rule="evenodd" d="M160.984 47.1048C159.596 47.1048 158.355 46.3131 157.703 44.8996C156.897 43.1509 157.206 40.7191 159.368 39.652C160.37 39.1561 161.581 39.1971 162.601 39.759C163.109 40.0392 163.293 40.6766 163.013 41.1819C162.732 41.6871 162.092 41.8697 161.589 41.5927C161.264 41.4132 160.755 41.2999 160.296 41.5297C159.323 42.0098 159.215 43.1714 159.607 44.0229C159.809 44.4589 160.422 45.4096 161.748 44.8414C162.286 44.6147 162.898 44.8618 163.125 45.3923C163.353 45.9243 163.106 46.5381 162.574 46.7664C162.038 46.9946 161.501 47.1048 160.984 47.1048Z" fill="#113934"/>
<path fill-rule="evenodd" clip-rule="evenodd" d="M180.779 48.687C180.809 48.5406 180.836 48.3942 180.866 48.2478L180.779 48.687Z" fill="#6294E5"/>
<path fill-rule="evenodd" clip-rule="evenodd" d="M195.356 30.9936C194.363 33.2114 183.729 37.7586 172.938 27.4474C162.15 17.1363 156.575 40.1432 154.904 39.8945C150.678 39.2665 155.178 28.5445 159.712 18.6678C167.159 2.44628 202.508 15.0145 195.356 30.9936Z" fill="#FFBE00"/>
<path fill-rule="evenodd" clip-rule="evenodd" d="M195.356 30.9936C194.363 33.2114 183.729 37.7586 172.938 27.4474C162.15 17.1363 156.575 40.1432 154.904 39.8945C150.678 39.2665 155.178 28.5445 159.712 18.6678C167.159 2.44628 202.508 15.0145 195.356 30.9936Z" fill="#FFBE00"/>
<path fill-rule="evenodd" clip-rule="evenodd" d="M194.511 30.2666C193.516 32.4843 182.884 37.0316 172.093 26.7204C161.303 16.4092 155.73 39.4161 154.058 39.1675C149.831 38.5394 154.333 27.8175 158.867 17.9407C166.315 1.71923 201.661 14.2875 194.511 30.2666Z" fill="#FFBE00"/>
<path fill-rule="evenodd" clip-rule="evenodd" d="M99.9542 95.4979C91.8283 79.2732 101.722 75.4925 120.047 71.4285C130.793 69.0439 139.844 76.7674 149.682 78.9506C156.889 80.5482 166.951 83.9432 174.895 80.0224C178.334 78.3257 178.976 75.4658 180.328 74.8676C180.328 74.8676 189.566 79.5723 190.414 78.9663C191.286 78.3446 202.171 127.72 202.171 127.72L193.127 161.427C193.127 161.427 179.827 180.098 170.278 188.27C163.951 193.685 156.26 199.066 148.177 201.309C86.6633 218.366 87.0984 143.016 92.4195 100.513" fill="#FF862F"/>
<path fill-rule="evenodd" clip-rule="evenodd" d="M171.522 33.048C168.406 33.048 165.873 35.7694 165.873 39.1157C165.873 42.4619 168.406 45.1849 171.522 45.1849C174.635 45.1849 177.169 42.4619 177.169 39.1157C177.169 35.7694 174.635 33.048 171.522 33.048ZM171.522 47.2784C167.25 47.2784 163.776 43.6157 163.776 39.1157C163.776 34.6157 167.25 30.9546 171.522 30.9546C175.791 30.9546 179.266 34.6157 179.266 39.1157C179.266 43.6157 175.791 47.2784 171.522 47.2784Z" fill="#113934"/>
<path fill-rule="evenodd" clip-rule="evenodd" d="M187.593 34.9571C184.478 34.9571 181.944 37.6801 181.944 41.0264C181.944 44.3727 184.478 47.0956 187.593 47.0956C190.709 47.0956 193.242 44.3727 193.242 41.0264C193.242 37.6801 190.709 34.9571 187.593 34.9571ZM187.593 49.1891C183.322 49.1891 179.847 45.5265 179.847 41.0265C179.847 36.5264 183.322 32.8638 187.593 32.8638C191.864 32.8638 195.339 36.5264 195.339 41.0265C195.339 45.5265 191.864 49.1891 187.593 49.1891Z" fill="#113934"/>
<path fill-rule="evenodd" clip-rule="evenodd" d="M187.593 34.9571C184.478 34.9571 181.944 37.6801 181.944 41.0264C181.944 44.3727 184.478 47.0956 187.593 47.0956C190.709 47.0956 193.242 44.3727 193.242 41.0264C193.242 37.6801 190.709 34.9571 187.593 34.9571ZM187.593 49.1891C183.322 49.1891 179.847 45.5265 179.847 41.0265C179.847 36.5264 183.322 32.8638 187.593 32.8638C191.864 32.8638 195.339 36.5264 195.339 41.0265C195.339 45.5265 191.864 49.1891 187.593 49.1891Z" fill="#113934"/>
<path fill-rule="evenodd" clip-rule="evenodd" d="M187.593 34.9571C184.478 34.9571 181.944 37.6801 181.944 41.0264C181.944 44.3727 184.478 47.0956 187.593 47.0956C190.709 47.0956 193.242 44.3727 193.242 41.0264C193.242 37.6801 190.709 34.9571 187.593 34.9571ZM187.593 49.1891C183.322 49.1891 179.847 45.5265 179.847 41.0265C179.847 36.5264 183.322 32.8638 187.593 32.8638C191.864 32.8638 195.339 36.5264 195.339 41.0265C195.339 45.5265 191.864 49.1891 187.593 49.1891Z" fill="#113934"/>
<path fill-rule="evenodd" clip-rule="evenodd" d="M180.888 39.2279C180.704 39.2279 180.516 39.1791 180.346 39.0752C180.046 38.8958 179.32 38.7085 179.092 38.7651C178.604 39.0721 178.005 38.9005 177.697 38.4126C177.39 37.9215 177.587 37.2541 178.077 36.9456C179.122 36.2893 180.902 36.9661 181.434 37.2872C181.929 37.5862 182.086 38.23 181.785 38.7242C181.588 39.0485 181.243 39.2279 180.888 39.2279Z" fill="#113934"/>
<path fill-rule="evenodd" clip-rule="evenodd" d="M159.092 41.7226C158.634 41.7226 158.213 41.4204 158.083 40.9576L156.652 35.8548C156.559 35.5211 156.636 35.1606 156.862 34.8962C157.087 34.6302 157.431 34.4948 157.774 34.5326L165.246 35.3448C165.823 35.4077 166.238 35.924 166.176 36.4985C166.113 37.0746 165.593 37.4917 165.021 37.4256L159.089 36.7803L160.103 40.3941C160.259 40.9497 159.934 41.5274 159.376 41.6832C159.282 41.71 159.187 41.7226 159.092 41.7226Z" fill="#113934"/>
<path fill-rule="evenodd" clip-rule="evenodd" d="M231.936 9.98769C226.33 9.98769 220.58 12.4872 215.42 17.2375C208.703 23.4169 203.866 32.5319 201.794 42.9028C199.726 53.2722 200.694 63.5409 204.522 71.8201C208.103 79.5625 213.767 84.5599 220.471 85.8931C227.172 87.2246 234.326 84.7803 240.608 78.999C247.322 72.818 252.161 63.7046 254.231 53.3336C256.301 42.9642 255.332 32.694 251.505 24.4164C247.923 16.6755 242.258 11.6766 235.555 10.3434C234.361 10.1057 233.15 9.98769 231.936 9.98769ZM224.153 96.2356C222.272 96.2356 220.389 96.0515 218.518 95.68C208.598 93.7062 200.406 86.7193 195.447 76.0021C190.739 65.8231 189.511 53.3745 191.994 40.951C194.473 28.5276 200.387 17.4987 208.645 9.89948C217.337 1.89892 227.579 -1.41746 237.51 0.556315C247.43 2.53009 255.623 9.51858 260.58 20.2327C265.288 30.4132 266.515 42.8603 264.033 55.2837C261.555 67.7088 255.641 78.7361 247.382 86.3353C240.33 92.8264 232.25 96.2356 224.153 96.2356Z" fill="#113934"/>
<path fill-rule="evenodd" clip-rule="evenodd" d="M204.61 38.4023C204.367 38.4023 204.123 38.3189 203.926 38.1489C203.483 37.7695 201.956 37.8183 201.278 37.9474C201.181 37.9852 201.077 38.0104 200.965 38.0182C200.53 38.0654 200.022 37.768 199.864 37.3194C199.71 36.8724 199.874 36.3734 200.266 36.1074C200.681 35.8225 203.822 35.2937 205.294 36.5623C205.732 36.94 205.781 37.6011 205.404 38.0387C205.196 38.2795 204.905 38.4023 204.61 38.4023Z" fill="#113934"/>
<path fill-rule="evenodd" clip-rule="evenodd" d="M180.702 143.288C180.317 143.288 179.947 143.076 179.762 142.709C179.504 142.193 179.713 141.563 180.23 141.305C188.812 137.022 195.55 132.787 202.081 127.574C202.528 127.216 203.189 127.284 203.553 127.737C203.916 128.189 203.842 128.847 203.389 129.209C196.741 134.516 189.887 138.826 181.17 143.178C181.019 143.254 180.859 143.288 180.702 143.288Z" fill="#113934"/>
<path fill-rule="evenodd" clip-rule="evenodd" d="M164.914 88.2671C148.486 88.2671 127.993 78.5525 120.157 72.1826C119.709 71.8174 119.642 71.1579 120.007 70.7109C120.373 70.2623 121.032 70.1946 121.481 70.5598C129.973 77.4617 155.317 89.0006 171.496 85.5284C176.996 84.3479 180.901 81.521 183.1 77.128C183.359 76.6134 183.99 76.4009 184.508 76.6606C185.025 76.9187 185.235 77.5467 184.977 78.0646C182.478 83.0541 178.09 86.254 171.936 87.5762C169.723 88.0499 167.364 88.2671 164.914 88.2671Z" fill="#113934"/>
<path fill-rule="evenodd" clip-rule="evenodd" d="M220.201 90.4551L215.015 131.014C215.015 131.014 216 132.142 217.121 132.419C218.245 132.694 219.504 132.116 219.504 132.116L225.352 91.3874L220.201 90.4551Z" fill="#113934"/>
<mask id="mask1" mask-type="alpha" maskUnits="userSpaceOnUse" x="196" y="5" width="65" height="87">
<path fill-rule="evenodd" clip-rule="evenodd" d="M197.479 42.3544C192.781 65.9919 202.89 87.9338 220.06 91.3645C237.233 94.7936 254.963 78.4122 259.665 54.7763C264.361 31.1388 254.251 9.1969 237.081 5.76621C235.552 5.45993 234.021 5.31152 232.491 5.31152C216.856 5.31468 201.761 20.823 197.479 42.3544Z" fill="white"/>
</mask>
<g mask="url(#mask1)">
<path fill-rule="evenodd" clip-rule="evenodd" d="M192.69 2.51538C187.183 2.73325 181.932 5.89081 176.313 6.11184C168.054 6.43707 159.392 4.27414 151.318 10.8561C143.128 17.5312 147.449 24.8093 138.651 30.2214C128.375 36.5428 116.244 29.2062 109.142 41.0565C99.4164 57.2864 111.104 70.7676 112.144 76.4638C114.162 87.509 105.725 90.3413 103.191 97.8531C101.976 101.457 104.339 105.485 105.738 108.575C112.585 123.688 121.893 129.874 138.229 132.049C152.905 134.004 150.169 114.315 162.072 110.125C172.978 106.285 198.679 105.816 209.639 97.3684C222.849 87.1869 212.634 41.5554 209.81 26.1055C209.507 24.4336 190.097 10.8198 188.899 10.043" fill="#FFBE00"/>
</g>
<mask id="mask2" mask-type="alpha" maskUnits="userSpaceOnUse" x="196" y="5" width="65" height="87">
<path fill-rule="evenodd" clip-rule="evenodd" d="M197.479 42.3544C192.781 65.9919 202.89 87.9338 220.06 91.3645C237.233 94.7936 254.963 78.4122 259.665 54.7763C264.361 31.1388 254.251 9.1969 237.081 5.76621C235.552 5.45993 234.021 5.31152 232.491 5.31152C216.856 5.31468 201.761 20.823 197.479 42.3544Z" fill="white"/>
</mask>
<g mask="url(#mask2)">
<path fill-rule="evenodd" clip-rule="evenodd" d="M207.502 47.6641C211.267 50.5533 215.137 44.715 211.968 41.9947C211.146 41.289 210.048 41.1674 209.177 41.3964" fill="white"/>
</g>
<mask id="mask3" mask-type="alpha" maskUnits="userSpaceOnUse" x="196" y="5" width="65" height="87">
<path fill-rule="evenodd" clip-rule="evenodd" d="M197.479 42.3544C192.781 65.9919 202.89 87.9338 220.06 91.3645C237.233 94.7936 254.963 78.4122 259.665 54.7763C264.361 31.1388 254.251 9.1969 237.081 5.76621C235.552 5.45993 234.021 5.31152 232.491 5.31152C216.856 5.31468 201.761 20.823 197.479 42.3544Z" fill="white"/>
</mask>
<g mask="url(#mask3)">
<path fill-rule="evenodd" clip-rule="evenodd" d="M209.587 49.4901C208.711 49.4901 207.78 49.198 206.865 48.497C206.405 48.145 206.32 47.485 206.67 47.0256C207.024 46.5646 207.681 46.4809 208.139 46.8299C209.82 48.1166 211.047 46.8646 211.386 46.4494C212.213 45.4263 212.458 43.797 211.287 42.7913C210.716 42.3019 209.955 42.2751 209.444 42.4108C208.881 42.5624 208.311 42.223 208.164 41.6625C208.018 41.102 208.352 40.5274 208.911 40.3805C210.245 40.0285 211.646 40.3348 212.649 41.1968C214.826 43.066 214.462 45.9789 213.013 47.7708C212.213 48.7623 210.971 49.4901 209.587 49.4901Z" fill="#113934"/>
</g>
<mask id="mask4" mask-type="alpha" maskUnits="userSpaceOnUse" x="196" y="5" width="65" height="87">
<path fill-rule="evenodd" clip-rule="evenodd" d="M197.479 42.3544C192.781 65.9919 202.89 87.9338 220.06 91.3645C237.233 94.7936 254.963 78.4122 259.665 54.7763C264.361 31.1388 254.251 9.1969 237.081 5.76621C235.552 5.45993 234.021 5.31152 232.491 5.31152C216.856 5.31468 201.761 20.823 197.479 42.3544Z" fill="white"/>
</mask>
<g mask="url(#mask4)">
<path fill-rule="evenodd" clip-rule="evenodd" d="M213.257 14.9937C212.226 36.4366 209.286 54.8642 207.399 61.0624C204.717 69.8768 196.321 71.855 190.524 71.034C184.412 70.1688 177.206 65.2383 177.847 55.7183C178.589 44.67 181.723 20.6331 183.321 16.514C184.916 12.395 189.166 8.02178 195.048 5.45468C202.896 2.03189 213.568 8.51278 213.257 14.9937Z" fill="white"/>
</g>
<mask id="mask5" mask-type="alpha" maskUnits="userSpaceOnUse" x="196" y="5" width="65" height="87">
<path fill-rule="evenodd" clip-rule="evenodd" d="M197.479 42.3544C192.781 65.9919 202.89 87.9338 220.06 91.3645C237.233 94.7936 254.963 78.4122 259.665 54.7763C264.361 31.1388 254.251 9.1969 237.081 5.76621C235.552 5.45993 234.021 5.31152 232.491 5.31152C216.856 5.31468 201.761 20.823 197.479 42.3544Z" fill="white"/>
</mask>
<g mask="url(#mask5)">
<path fill-rule="evenodd" clip-rule="evenodd" d="M199.783 5.56222C198.258 5.56222 196.785 5.84324 195.467 6.41792C190.187 8.72136 185.909 12.7362 184.297 16.8947C182.805 20.7422 179.661 44.3228 178.891 55.7895C178.316 64.3228 184.595 69.1349 190.67 69.9938C195.276 70.6506 203.759 69.4333 206.399 60.7563C208.176 54.9133 211.157 36.8363 212.211 14.9433C212.32 12.6446 210.727 10.1233 207.946 8.19878C205.444 6.47002 202.527 5.56222 199.783 5.56222ZM193.033 72.2609C192.137 72.2609 191.248 72.1961 190.379 72.0746C183.372 71.0831 176.136 65.5195 176.801 55.6474C177.517 44.9827 180.646 20.5164 182.344 16.1353C184.149 11.4731 188.857 7.01151 194.63 4.49178C198.965 2.6004 204.661 3.374 209.135 6.47157C212.517 8.80974 214.449 12.0147 214.303 15.0443C213.24 37.1173 210.212 55.4216 208.401 61.3705C206.06 69.0654 199.389 72.2609 193.033 72.2609Z" fill="#113934"/>
</g>
<mask id="mask6" mask-type="alpha" maskUnits="userSpaceOnUse" x="196" y="5" width="65" height="87">
<path fill-rule="evenodd" clip-rule="evenodd" d="M197.479 42.3544C192.781 65.9919 202.89 87.9338 220.06 91.3645C237.233 94.7936 254.963 78.4122 259.665 54.7763C264.361 31.1388 254.251 9.1969 237.081 5.76621C235.552 5.45993 234.021 5.31152 232.491 5.31152C216.856 5.31468 201.761 20.823 197.479 42.3544Z" fill="white"/>
</mask>
<g mask="url(#mask6)">
<path fill-rule="evenodd" clip-rule="evenodd" d="M203.417 49.8332C202.406 49.8332 201.117 49.4385 199.542 48.8354C199.002 48.627 198.732 48.0207 198.939 47.4792C199.146 46.9393 199.754 46.6693 200.293 46.873C202.962 47.8992 203.565 47.746 203.661 47.7034C203.754 47.4192 203.404 45.9273 203.122 44.729C202.812 43.3997 202.424 41.7467 202.212 39.9027C202.147 39.328 202.56 38.807 203.133 38.7407C203.719 38.6838 204.23 39.088 204.296 39.6643C204.493 41.3851 204.849 42.9055 205.162 44.2475C205.72 46.6188 206.121 48.3333 205.006 49.309C204.587 49.6737 204.058 49.8332 203.417 49.8332Z" fill="#113934"/>
</g>
<mask id="mask7" mask-type="alpha" maskUnits="userSpaceOnUse" x="196" y="5" width="65" height="87">
<path fill-rule="evenodd" clip-rule="evenodd" d="M197.479 42.3544C192.781 65.9919 202.89 87.9338 220.06 91.3645C237.233 94.7936 254.963 78.4122 259.665 54.7763C264.361 31.1388 254.251 9.1969 237.081 5.76621C235.552 5.45993 234.021 5.31152 232.491 5.31152C216.856 5.31468 201.761 20.823 197.479 42.3544Z" fill="white"/>
</mask>
<g mask="url(#mask7)">
<path fill-rule="evenodd" clip-rule="evenodd" d="M208.636 40.1107C208.734 39.4224 208.323 38.794 207.713 38.7072C207.107 38.622 206.535 39.1082 206.437 39.7966C206.339 40.4833 206.754 41.1117 207.359 41.1985C207.967 41.2854 208.538 40.7975 208.636 40.1107Z" fill="#113934"/>
</g>
<mask id="mask8" mask-type="alpha" maskUnits="userSpaceOnUse" x="196" y="5" width="65" height="87">
<path fill-rule="evenodd" clip-rule="evenodd" d="M197.479 42.3544C192.781 65.9919 202.89 87.9338 220.06 91.3645C237.233 94.7936 254.963 78.4122 259.665 54.7763C264.361 31.1388 254.251 9.1969 237.081 5.76621C235.552 5.45993 234.021 5.31152 232.491 5.31152C216.856 5.31468 201.761 20.823 197.479 42.3544Z" fill="white"/>
</mask>
<g mask="url(#mask8)">
<path fill-rule="evenodd" clip-rule="evenodd" d="M223.182 27.0211C221.932 29.8281 208.527 35.5812 194.925 22.5326C181.325 9.48557 174.301 38.5998 172.193 38.2857C166.864 37.49 172.537 23.9204 178.253 11.4227C187.641 -9.10455 232.197 6.80007 223.182 27.0211Z" fill="#FFBE00"/>
</g>
<mask id="mask9" mask-type="alpha" maskUnits="userSpaceOnUse" x="196" y="5" width="65" height="87">
<path fill-rule="evenodd" clip-rule="evenodd" d="M220.06 91.3645C237.233 94.7936 254.963 78.4122 259.665 54.7763C264.361 31.1388 254.251 9.1969 237.081 5.76621C235.552 5.45993 234.021 5.31152 232.491 5.31152C216.856 5.31468 201.761 20.823 197.479 42.3544C192.781 65.9919 202.89 87.9338 220.06 91.3645Z" fill="white"/>
</mask>
<g mask="url(#mask9)">
<path fill-rule="evenodd" clip-rule="evenodd" d="M213.399 31.762C209.32 31.762 206.005 35.3301 206.005 39.7175C206.005 44.1033 209.32 47.6714 213.399 47.6714C217.477 47.6714 220.793 44.1033 220.793 39.7175C220.793 35.3301 217.477 31.762 213.399 31.762ZM203.91 39.7176C203.91 34.1729 208.166 29.6624 213.399 29.6624C218.631 29.6624 222.888 34.1729 222.888 39.7176C222.888 45.2607 218.631 49.7713 213.399 49.7713C208.166 49.7713 203.91 45.2607 203.91 39.7176Z" fill="#113934"/>
</g>
<path fill-rule="evenodd" clip-rule="evenodd" d="M201.92 43.8738C197.767 64.7634 206.137 84.1046 220.577 86.9901C235.018 89.8724 250.144 75.2256 254.299 54.3375C258.45 33.4495 250.08 14.1083 235.64 11.2228C221.222 8.33738 206.073 22.9857 201.918 43.8738H201.92ZM224.114 97.3464C222.287 97.3464 220.454 97.1696 218.624 96.805C198.787 92.8414 186.9 68.2187 192.126 41.9196C192.126 41.918 192.127 41.918 192.127 41.918C197.357 15.622 217.751 -2.55422 237.591 1.40777C257.429 5.37135 269.316 29.9941 264.091 56.2932C259.341 80.1694 242.095 97.3464 224.114 97.3464Z" fill="#113934"/>
<path fill-rule="evenodd" clip-rule="evenodd" d="M226.531 141.869C227.881 132.435 217.863 107.445 206.731 125.337C203.601 130.367 203.101 136.692 200.247 141.882C198.917 144.296 196.642 146.122 194.41 147.737C178.068 159.563 133.317 182.012 129.202 179.94C111.806 171.178 123.514 127.3 124.868 108.322C126.304 88.2357 104.777 64.4642 93.805 84.8292C83.2424 104.431 81.2621 130.367 80.5584 152.044C79.7446 177.018 85.229 220.525 117.531 222.468C152.395 224.566 186.536 176.902 210.447 159.797C220.626 152.515 225.407 149.719 226.531 141.869Z" fill="white"/>
<path fill-rule="evenodd" clip-rule="evenodd" d="M104.358 78.0915C100.592 78.0915 97.3005 80.5488 94.7252 85.3248C84.4554 104.385 82.3287 129.765 81.603 152.079C81.2394 163.274 81.263 219.237 117.595 221.422C141.89 222.883 165.588 199.955 186.513 179.727C194.903 171.62 202.826 163.961 209.839 158.945L212.14 157.307C220.643 151.266 224.523 148.509 225.494 141.721C226.372 135.589 222.073 122.477 216.296 120.37C213.467 119.347 210.541 121.194 207.619 125.891C206.039 128.43 205.164 131.301 204.238 134.34C203.415 137.046 202.563 139.843 201.164 142.385C199.752 144.951 197.378 146.881 195.023 148.586C179.914 159.52 133.673 183.372 128.73 180.873C114.453 173.684 118.745 144.686 121.878 123.514C122.728 117.771 123.532 112.347 123.825 108.248C124.702 95.9441 116.403 81.2068 107.068 78.4945C106.141 78.2253 105.236 78.0915 104.358 78.0915ZM119.817 223.582C119.035 223.582 118.253 223.56 117.469 223.511C102.761 222.628 92.0554 213.458 85.6454 196.258C79.3582 179.387 79.2622 159.694 79.5109 152.011C80.2445 129.453 82.4074 103.772 92.8819 84.3314C97.8027 75.1981 104.249 75.4941 107.652 76.4842C117.996 79.4893 126.87 94.998 125.913 108.396C125.613 112.575 124.806 118.037 123.95 123.821C120.91 144.362 116.745 172.494 129.673 179.005C133.497 180.371 176.295 159.554 193.795 146.89C195.805 145.434 198.055 143.688 199.328 141.376C200.622 139.024 201.442 136.332 202.236 133.73C203.16 130.695 204.115 127.558 205.842 124.784C210.222 117.743 214.335 117.43 217.014 118.404C223.843 120.893 228.579 134.95 227.567 142.017C226.467 149.695 222.084 152.809 213.353 159.013L211.056 160.648C204.17 165.574 196.301 173.18 187.969 181.234C167.392 201.122 144.156 223.582 119.817 223.582Z" fill="#113934"/>
<path fill-rule="evenodd" clip-rule="evenodd" d="M216.738 133.328C216.516 133.328 216.299 133.314 216.085 133.285C214.264 133.041 212.899 131.823 212.242 129.855C212.058 129.306 212.356 128.714 212.903 128.531C213.45 128.346 214.045 128.645 214.227 129.192C214.629 130.395 215.347 131.074 216.363 131.211C217.894 131.41 219.956 130.346 220.966 128.83C221.289 128.35 221.936 128.22 222.418 128.539C222.899 128.86 223.028 129.51 222.709 129.991C221.385 131.977 218.917 133.328 216.738 133.328Z" fill="#113934"/>
<path fill-rule="evenodd" clip-rule="evenodd" d="M222.206 136.346C221.938 136.346 221.671 136.244 221.466 136.039C221.059 135.632 221.057 134.969 221.465 134.56C221.82 134.204 222.19 133.903 222.546 133.614C223.55 132.801 223.994 132.395 223.994 131.309C223.994 130.731 224.463 130.262 225.041 130.262C225.619 130.262 226.088 130.731 226.088 131.309C226.088 133.439 224.907 134.396 223.865 135.24C223.561 135.485 223.247 135.739 222.948 136.039C222.743 136.244 222.474 136.346 222.206 136.346Z" fill="#113934"/>
<path fill-rule="evenodd" clip-rule="evenodd" d="M223.992 141.492C223.652 141.492 223.32 141.329 223.119 141.025C222.799 140.543 222.93 139.895 223.411 139.573C223.616 139.438 223.816 139.317 224.008 139.2C224.628 138.827 224.938 138.627 225.154 138.193C225.412 137.677 226.04 137.467 226.558 137.724C227.076 137.982 227.285 138.61 227.027 139.128C226.528 140.126 225.763 140.587 225.088 140.995C224.921 141.096 224.746 141.2 224.57 141.318C224.392 141.436 224.191 141.492 223.992 141.492Z" fill="#113934"/>
<path fill-rule="evenodd" clip-rule="evenodd" d="M223.465 146.955C222.935 146.955 222.48 146.552 222.425 146.012C222.368 145.437 222.787 144.924 223.363 144.866L224.162 144.779L224.614 144.328C225.024 143.918 225.688 143.918 226.097 144.328C226.505 144.735 226.505 145.398 226.097 145.807L225.573 146.332C225.524 146.38 225.471 146.423 225.414 146.461L225.099 146.672C224.956 146.768 224.792 146.827 224.621 146.845L223.571 146.95C223.536 146.953 223.5 146.955 223.465 146.955Z" fill="#113934"/>
<path fill-rule="evenodd" clip-rule="evenodd" d="M4.9519 193.047C4.9519 182.416 13.6282 173.799 24.332 173.799C35.0357 173.799 43.7121 182.416 43.7121 193.047C43.7121 203.677 35.0357 212.294 24.332 212.294C13.6282 212.294 4.9519 203.677 4.9519 193.047Z" fill="#106D5A"/>
<path fill-rule="evenodd" clip-rule="evenodd" d="M238.502 331.75L279.937 342.527C279.937 342.527 267.377 360.594 253.288 357.232C238.622 353.729 238.502 331.75 238.502 331.75Z" fill="#FF0E11"/>
<path fill-rule="evenodd" clip-rule="evenodd" d="M1.37817 242.085V323.388L58.5776 318.3L58.0245 237.244L1.37817 242.085Z" fill="white"/>
<path fill-rule="evenodd" clip-rule="evenodd" d="M2.09689 243.184V322.552L57.3848 317.639L56.8425 238.512L2.09689 243.184ZM1.04843 324.741C0.78672 324.741 0.534465 324.645 0.340544 324.467C0.124551 324.269 0 323.989 0 323.694V242.223C0 241.679 0.41622 241.226 0.958568 241.18L57.7931 236.33C58.0801 236.307 58.3733 236.403 58.5893 236.6C58.8053 236.796 58.9283 237.075 58.9314 237.366L59.488 318.588C59.4911 319.135 59.0765 319.591 58.5326 319.638L1.14145 324.736C1.10992 324.74 1.07839 324.741 1.04843 324.741Z" fill="#113934"/>
<path fill-rule="evenodd" clip-rule="evenodd" d="M16.0245 251.551C12.537 251.551 9.70076 254.279 9.70076 257.633C9.70076 260.988 12.537 263.717 16.0245 263.717C19.5103 263.717 22.3482 260.988 22.3482 257.633C22.3482 254.279 19.5103 251.551 16.0245 251.551ZM16.0243 265.812C11.3813 265.812 7.60376 262.143 7.60376 257.633C7.60376 253.125 11.3813 249.458 16.0243 249.458C20.6674 249.458 24.4449 253.125 24.4449 257.633C24.4449 262.143 20.6674 265.812 16.0243 265.812Z" fill="#113934"/>
<path fill-rule="evenodd" clip-rule="evenodd" d="M28.3092 254.925C27.77 254.925 27.3112 254.511 27.2655 253.967C27.2182 253.389 27.6471 252.884 28.2241 252.835L46.7207 251.296C47.2977 251.277 47.8038 251.678 47.8527 252.253C47.9 252.829 47.4711 253.334 46.8941 253.384L28.3975 254.922C28.3691 254.924 28.3392 254.925 28.3092 254.925Z" fill="#113934"/>
<path fill-rule="evenodd" clip-rule="evenodd" d="M28.341 261.858C27.8018 261.858 27.343 261.444 27.2973 260.899C27.25 260.321 27.6788 259.816 28.2558 259.767L46.7508 258.228C47.3279 258.212 47.834 258.61 47.8828 259.185C47.9301 259.761 47.5013 260.266 46.9243 260.317L28.4293 261.854C28.4009 261.856 28.3709 261.858 28.341 261.858Z" fill="#113934"/>
<path fill-rule="evenodd" clip-rule="evenodd" d="M9.05287 276.019C8.52156 276.019 8.06435 275.616 8.01074 275.075C7.95399 274.5 8.37494 273.987 8.95197 273.93L47.6589 270.107C48.2217 270.063 48.7499 270.471 48.8051 271.047C48.8618 271.621 48.4425 272.134 47.8654 272.191L9.15693 276.014C9.12224 276.017 9.08755 276.019 9.05287 276.019Z" fill="#113934"/>
<path fill-rule="evenodd" clip-rule="evenodd" d="M9.62953 284.551C9.09822 284.551 8.64101 284.148 8.5874 283.607C8.53065 283.032 8.9516 282.519 9.52863 282.463L48.2371 278.639C48.8015 278.584 49.3265 279.003 49.3833 279.579C49.4401 280.154 49.0191 280.667 48.4437 280.723L9.73359 284.547C9.6989 284.55 9.66422 284.551 9.62953 284.551Z" fill="#113934"/>
<path fill-rule="evenodd" clip-rule="evenodd" d="M10.2069 293.084C9.67561 293.084 9.2184 292.681 9.1648 292.139C9.10804 291.565 9.52899 291.052 10.106 290.995L48.8129 287.172C49.3805 287.12 49.9039 287.535 49.9591 288.112C50.0159 288.686 49.5965 289.199 49.0195 289.256L10.311 293.079C10.2763 293.082 10.2416 293.084 10.2069 293.084Z" fill="#113934"/>
<path fill-rule="evenodd" clip-rule="evenodd" d="M10.7833 301.621C10.252 301.621 9.79482 301.218 9.74121 300.676C9.68445 300.102 10.1054 299.589 10.6824 299.532L49.3909 295.707C49.9601 295.655 50.4804 296.071 50.5371 296.647C50.5939 297.221 50.1729 297.735 49.5975 297.791L10.8874 301.616C10.8527 301.619 10.818 301.621 10.7833 301.621Z" fill="#113934"/>
<path fill-rule="evenodd" clip-rule="evenodd" d="M11.3622 310.152C10.8309 310.152 10.3737 309.749 10.3201 309.207C10.2633 308.633 10.6843 308.119 11.2613 308.063L49.9682 304.238C50.5389 304.189 51.0576 304.602 51.1144 305.178C51.1712 305.752 50.7518 306.265 50.1747 306.322L11.4663 310.147C11.4316 310.15 11.3969 310.152 11.3622 310.152Z" fill="#113934"/>
<path fill-rule="evenodd" clip-rule="evenodd" d="M274.477 239.967L317.349 236.309L317.017 297.426L273.884 300.998L274.477 239.967Z" fill="#FF862F"/>
<path fill-rule="evenodd" clip-rule="evenodd" d="M285.775 247.26C283.285 247.26 281.261 249.202 281.261 251.591C281.261 253.981 283.285 255.923 285.775 255.923C288.263 255.923 290.285 253.981 290.285 251.591C290.285 249.202 288.263 247.26 285.775 247.26ZM285.775 258.017C282.128 258.017 279.164 255.135 279.164 251.592C279.164 248.048 282.128 245.167 285.775 245.167C289.42 245.167 292.382 248.048 292.382 251.592C292.382 255.135 289.42 258.017 285.775 258.017Z" fill="#113934"/>
<path fill-rule="evenodd" clip-rule="evenodd" d="M295.042 249.805C294.503 249.805 294.044 249.391 293.998 248.847C293.951 248.269 294.38 247.764 294.955 247.715L308.908 246.555C309.506 246.498 309.991 246.934 310.042 247.51C310.089 248.088 309.659 248.593 309.083 248.641L295.132 249.802C295.1 249.804 295.072 249.805 295.042 249.805Z" fill="#113934"/>
<path fill-rule="evenodd" clip-rule="evenodd" d="M295.063 255.034C294.524 255.034 294.065 254.62 294.02 254.076C293.972 253.498 294.401 252.993 294.977 252.944L308.931 251.784C309.521 251.751 310.014 252.165 310.065 252.739C310.112 253.316 309.682 253.821 309.106 253.871L295.153 255.031C295.122 255.033 295.093 255.034 295.063 255.034Z" fill="#113934"/>
<path fill-rule="evenodd" clip-rule="evenodd" d="M280.514 265.716C279.981 265.716 279.526 265.313 279.472 264.771C279.415 264.197 279.836 263.684 280.413 263.627L309.612 260.743C310.173 260.687 310.701 261.104 310.759 261.682C310.816 262.258 310.394 262.771 309.818 262.827L280.618 265.711C280.583 265.714 280.549 265.716 280.514 265.716Z" fill="#113934"/>
<path fill-rule="evenodd" clip-rule="evenodd" d="M279.915 272.075C279.379 272.075 278.922 271.666 278.873 271.124C278.821 270.546 279.245 270.038 279.821 269.986L309.137 267.326C309.708 267.273 310.225 267.699 310.277 268.274C310.329 268.85 309.903 269.358 309.328 269.412L280.013 272.07C279.98 272.073 279.948 272.075 279.915 272.075Z" fill="#113934"/>
<path fill-rule="evenodd" clip-rule="evenodd" d="M279.844 278.518C279.313 278.518 278.857 278.115 278.804 277.577C278.745 277.001 279.163 276.488 279.74 276.431C280.016 276.401 307.446 273.629 309.366 273.355C309.926 273.264 310.47 273.67 310.552 274.243C310.632 274.814 310.235 275.345 309.661 275.427C307.7 275.707 281.084 278.398 279.952 278.512C279.915 278.516 279.879 278.518 279.844 278.518Z" fill="#113934"/>
<path fill-rule="evenodd" clip-rule="evenodd" d="M279.774 285.1C279.241 285.1 278.785 284.696 278.731 284.156C278.675 283.581 279.096 283.068 279.673 283.011L309.481 280.07C310.05 280.019 310.569 280.433 310.627 281.008C310.684 281.584 310.263 282.097 309.688 282.154L279.878 285.095C279.843 285.098 279.808 285.1 279.774 285.1Z" fill="#113934"/>
<path fill-rule="evenodd" clip-rule="evenodd" d="M279.844 291.471C279.311 291.471 278.856 291.067 278.802 290.527C278.747 289.951 279.166 289.439 279.743 289.383L309.691 286.442C310.282 286.4 310.78 286.808 310.837 287.381C310.892 287.958 310.473 288.47 309.897 288.526L279.948 291.467C279.913 291.47 279.877 291.471 279.844 291.471Z" fill="#113934"/>
<path fill-rule="evenodd" clip-rule="evenodd" d="M249.201 77.7621L333.414 70.5769L334.239 190.922L249.201 198.484V77.7621Z" fill="#FFBE00"/>
<path fill-rule="evenodd" clip-rule="evenodd" d="M271.392 91.0797C265.948 91.0797 261.517 95.3484 261.517 100.598C261.517 105.845 265.948 110.115 271.392 110.115C276.837 110.115 281.267 105.845 281.267 100.598C281.267 95.3484 276.837 91.0797 271.392 91.0797ZM271.392 112.209C264.791 112.209 259.421 107.001 259.421 100.598C259.421 94.1946 264.791 88.9863 271.392 88.9863C277.993 88.9863 283.364 94.1946 283.364 100.598C283.364 107.001 277.993 112.209 271.392 112.209Z" fill="#113934"/>
<path fill-rule="evenodd" clip-rule="evenodd" d="M289.596 96.0775C289.057 96.0775 288.598 95.6635 288.553 95.1174C288.505 94.5413 288.934 94.036 289.511 93.9872L316.917 91.7113C317.475 91.6562 318 92.0906 318.049 92.6667C318.096 93.2443 317.668 93.7496 317.089 93.7968L289.685 96.0743C289.655 96.0759 289.626 96.0775 289.596 96.0775Z" fill="#113934"/>
<path fill-rule="evenodd" clip-rule="evenodd" d="M289.641 106.349C289.102 106.349 288.643 105.935 288.597 105.389C288.55 104.813 288.979 104.308 289.556 104.259L316.963 101.983C317.52 101.925 318.046 102.362 318.095 102.938C318.143 103.516 317.714 104.021 317.135 104.069L289.729 106.346C289.699 106.348 289.671 106.349 289.641 106.349Z" fill="#113934"/>
<path fill-rule="evenodd" clip-rule="evenodd" d="M261.062 127.334C260.529 127.334 260.074 126.931 260.02 126.389C259.963 125.815 260.384 125.302 260.961 125.245L318.315 119.582C318.881 119.517 319.406 119.944 319.462 120.52C319.519 121.096 319.098 121.607 318.521 121.664L261.166 127.329C261.132 127.332 261.097 127.334 261.062 127.334Z" fill="#113934"/>
<path fill-rule="evenodd" clip-rule="evenodd" d="M261.918 139.977C261.385 139.977 260.93 139.574 260.876 139.033C260.819 138.458 261.24 137.945 261.817 137.888L319.17 132.225C319.733 132.156 320.261 132.587 320.318 133.163C320.375 133.738 319.954 134.251 319.377 134.307L262.022 139.972C261.987 139.975 261.953 139.977 261.918 139.977Z" fill="#113934"/>
<path fill-rule="evenodd" clip-rule="evenodd" d="M262.773 152.62C262.24 152.62 261.784 152.217 261.731 151.675C261.674 151.101 262.095 150.588 262.672 150.531L320.027 144.868C320.598 144.808 321.116 145.23 321.175 145.806C321.231 146.382 320.81 146.893 320.233 146.95L262.877 152.615C262.842 152.618 262.808 152.62 262.773 152.62Z" fill="#113934"/>
<path fill-rule="evenodd" clip-rule="evenodd" d="M263.629 165.261C263.096 165.261 262.64 164.858 262.587 164.317C262.53 163.743 262.951 163.229 263.528 163.173L320.883 157.511C321.45 157.445 321.974 157.873 322.031 158.449C322.087 159.024 321.666 159.537 321.089 159.594L263.733 165.257C263.698 165.26 263.663 165.261 263.629 165.261Z" fill="#113934"/>
<path fill-rule="evenodd" clip-rule="evenodd" d="M264.485 177.905C263.952 177.905 263.496 177.503 263.443 176.961C263.386 176.387 263.807 175.873 264.384 175.817L321.737 170.152C322.302 170.084 322.828 170.514 322.885 171.09C322.942 171.666 322.521 172.178 321.944 172.234L264.589 177.901C264.554 177.904 264.519 177.905 264.485 177.905Z" fill="#113934"/>
<path fill-rule="evenodd" clip-rule="evenodd" d="M324.069 91.0632L336.73 83.5353C338.376 82.5571 340.505 83.0926 341.487 84.7324C342.469 86.3706 341.931 88.4924 340.285 89.4706L327.625 97.0001C325.981 97.9783 323.851 97.4427 322.869 95.8029C321.887 94.1631 322.425 92.0414 324.069 91.0632Z" fill="white"/>
<path fill-rule="evenodd" clip-rule="evenodd" d="M324.608 91.9622C323.463 92.6443 323.088 94.1265 323.773 95.267C324.103 95.8199 324.63 96.2105 325.256 96.3681C325.879 96.5256 326.53 96.4311 327.085 96.1003L339.746 88.5724C340.301 88.2416 340.694 87.7171 340.851 87.0933C341.009 86.4695 340.914 85.8221 340.582 85.2692C339.901 84.1303 338.413 83.7539 337.268 84.4359L324.608 91.9622ZM325.855 98.537C325.485 98.537 325.111 98.4929 324.741 98.3984C323.571 98.1038 322.586 97.3729 321.966 96.3396C320.689 94.2068 321.391 91.4376 323.53 90.1633L336.19 82.637C338.331 81.3626 341.11 82.0636 342.389 84.1948C343.009 85.2282 343.186 86.4395 342.889 87.6051C342.595 88.7724 341.861 89.7537 340.824 90.3712L328.163 97.8991C327.455 98.3212 326.662 98.537 325.855 98.537Z" fill="#113934"/>
<path fill-rule="evenodd" clip-rule="evenodd" d="M325.979 98.249L338.639 90.7211C340.285 89.7429 342.415 90.2785 343.397 91.9167C344.378 93.5565 343.841 95.6783 342.195 96.6565L329.535 104.186C327.889 105.164 325.758 104.629 324.777 102.989C323.796 101.349 324.333 99.2272 325.979 98.249Z" fill="white"/>
<path fill-rule="evenodd" clip-rule="evenodd" d="M340.413 91.2819C339.991 91.2819 339.566 91.3906 339.178 91.6206L326.518 99.1485C325.963 99.4777 325.569 100.004 325.413 100.628C325.255 101.251 325.35 101.899 325.682 102.452C326.012 103.006 326.538 103.397 327.165 103.554C327.791 103.71 328.442 103.617 328.995 103.287L341.656 95.7571C342.802 95.0766 343.177 93.5943 342.492 92.4539C342.042 91.6994 341.237 91.2819 340.413 91.2819ZM327.764 105.723C327.394 105.723 327.019 105.678 326.649 105.585C325.479 105.29 324.493 104.559 323.874 103.526C323.255 102.493 323.078 101.281 323.373 100.116C323.669 98.9485 324.402 97.9656 325.44 97.3497L338.1 89.8218C340.241 88.549 343.02 89.2484 344.299 91.3797C344.917 92.413 345.096 93.6243 344.8 94.7916C344.505 95.9572 343.771 96.9401 342.734 97.5576L330.073 105.085C329.364 105.508 328.57 105.723 327.764 105.723Z" fill="#113934"/>
<path fill-rule="evenodd" clip-rule="evenodd" d="M327.04 105.646L339.7 98.1181C341.344 97.1399 343.474 97.6755 344.457 99.3137C345.439 100.953 344.902 103.075 343.256 104.053L330.595 111.583C328.949 112.561 326.82 112.026 325.838 110.386C324.856 108.746 325.394 106.624 327.04 105.646Z" fill="white"/>
<path fill-rule="evenodd" clip-rule="evenodd" d="M341.473 98.6789C341.052 98.6789 340.627 98.7875 340.239 99.0175L327.579 106.545C326.433 107.226 326.058 108.708 326.742 109.849C327.422 110.989 328.91 111.364 330.056 110.683L342.717 103.154C343.272 102.825 343.665 102.299 343.822 101.675C343.98 101.051 343.885 100.404 343.553 99.8508C343.101 99.0979 342.296 98.6789 341.473 98.6789ZM328.825 113.117C327.283 113.119 325.781 112.334 324.935 110.923C324.316 109.89 324.139 108.678 324.434 107.513C324.73 106.345 325.464 105.363 326.501 104.747L339.161 97.2188C341.3 95.946 344.078 96.6454 345.359 98.7766C345.978 99.81 346.157 101.021 345.86 102.189C345.566 103.354 344.832 104.337 343.795 104.955L331.135 112.482C330.41 112.912 329.612 113.117 328.825 113.117Z" fill="#113934"/>
</svg>
